%TF.GenerationSoftware,KiCad,Pcbnew,7.0.9*%
%TF.CreationDate,2023-11-16T15:57:50+00:00*%
%TF.ProjectId,zx_spectrum_composite_mod,7a785f73-7065-4637-9472-756d5f636f6d,0*%
%TF.SameCoordinates,Original*%
%TF.FileFunction,Copper,L1,Top*%
%TF.FilePolarity,Positive*%
%FSLAX46Y46*%
G04 Gerber Fmt 4.6, Leading zero omitted, Abs format (unit mm)*
G04 Created by KiCad (PCBNEW 7.0.9) date 2023-11-16 15:57:50*
%MOMM*%
%LPD*%
G01*
G04 APERTURE LIST*
%TA.AperFunction,ComponentPad*%
%ADD10C,1.600000*%
%TD*%
%TA.AperFunction,ComponentPad*%
%ADD11O,1.600000X1.600000*%
%TD*%
%TA.AperFunction,ComponentPad*%
%ADD12C,6.400000*%
%TD*%
%TA.AperFunction,ComponentPad*%
%ADD13R,1.515000X1.515000*%
%TD*%
%TA.AperFunction,ComponentPad*%
%ADD14C,1.515000*%
%TD*%
%TA.AperFunction,ComponentPad*%
%ADD15C,1.400000*%
%TD*%
%TA.AperFunction,ComponentPad*%
%ADD16C,3.765000*%
%TD*%
%TA.AperFunction,ComponentPad*%
%ADD17C,3.360000*%
%TD*%
%TA.AperFunction,Conductor*%
%ADD18C,0.250000*%
%TD*%
G04 APERTURE END LIST*
D10*
%TO.P,R1,1*%
%TO.N,Net-(Q1-Pad3)*%
X86880000Y-44400000D03*
D11*
%TO.P,R1,2*%
%TO.N,Net-(J1-Pad2)*%
X76720000Y-44400000D03*
%TD*%
D12*
%TO.P,H2,1,1*%
%TO.N,GND*%
X100450000Y-50310000D03*
%TD*%
%TO.P,H1,1,1*%
%TO.N,GND*%
X62540000Y-50460000D03*
%TD*%
D13*
%TO.P,Q1,1*%
%TO.N,Net-(Q1-Pad1)*%
X86890000Y-57250000D03*
D14*
%TO.P,Q1,2*%
%TO.N,Net-(Q1-Pad2)*%
X84890000Y-55980000D03*
%TO.P,Q1,3*%
%TO.N,Net-(Q1-Pad3)*%
X86890000Y-54710000D03*
%TD*%
D15*
%TO.P,TP2,1,1*%
%TO.N,Net-(Q1-Pad1)*%
X62000000Y-61000000D03*
%TD*%
D16*
%TO.P,J1,1,1*%
%TO.N,GND*%
X66015000Y-39850000D03*
D17*
%TO.P,J1,2,2*%
%TO.N,Net-(J1-Pad2)*%
X66015000Y-44350000D03*
%TD*%
D15*
%TO.P,TP1,1,1*%
%TO.N,Net-(Q1-Pad2)*%
X62000000Y-56000000D03*
%TD*%
D18*
%TO.N,GND*%
X62520000Y-40070000D02*
X62540000Y-40090000D01*
X100360000Y-39980000D02*
X100400000Y-39940000D01*
X66220000Y-39980000D02*
X100360000Y-39980000D01*
X62540000Y-40090000D02*
X62540000Y-50460000D01*
X62610000Y-39980000D02*
X62520000Y-40070000D01*
X66220000Y-39980000D02*
X62610000Y-39980000D01*
X100450000Y-39990000D02*
X100450000Y-50310000D01*
X100400000Y-39940000D02*
X100450000Y-39990000D01*
%TO.N,Net-(J1-Pad2)*%
X66000000Y-44400000D02*
X76720000Y-44400000D01*
%TO.N,Net-(Q1-Pad1)*%
X86890000Y-57250000D02*
X86890000Y-61000000D01*
X86880000Y-61010000D02*
X86870000Y-61000000D01*
X86890000Y-61000000D02*
X86880000Y-61010000D01*
X86870000Y-61000000D02*
X62000000Y-61000000D01*
%TO.N,Net-(Q1-Pad3)*%
X86880000Y-54700000D02*
X86890000Y-54710000D01*
X86880000Y-44400000D02*
X86880000Y-54700000D01*
%TO.N,Net-(Q1-Pad2)*%
X62020000Y-55980000D02*
X62000000Y-56000000D01*
X84890000Y-55980000D02*
X62020000Y-55980000D01*
%TD*%
M02*
