%TF.GenerationSoftware,KiCad,Pcbnew,7.0.9*%
%TF.CreationDate,2023-11-16T15:57:47+00:00*%
%TF.ProjectId,zx_spectrum_composite_mod,7a785f73-7065-4637-9472-756d5f636f6d,0*%
%TF.SameCoordinates,Original*%
%TF.FileFunction,Drillmap*%
%TF.FilePolarity,Positive*%
%FSLAX45Y45*%
G04 Gerber Fmt 4.5, Leading zero omitted, Abs format (unit mm)*
G04 Created by KiCad (PCBNEW 7.0.9) date 2023-11-16 15:57:47*
%MOMM*%
%LPD*%
G01*
G04 APERTURE LIST*
%ADD10C,0.100000*%
%ADD11C,0.200000*%
G04 APERTURE END LIST*
D10*
X5900000Y-3600000D02*
X10400000Y-3600000D01*
X10400000Y-6500000D01*
X5900000Y-6500000D01*
X5900000Y-3600000D01*
D11*
X6155777Y-6816484D02*
X6155777Y-6616484D01*
X6155777Y-6616484D02*
X6203396Y-6616484D01*
X6203396Y-6616484D02*
X6231967Y-6626008D01*
X6231967Y-6626008D02*
X6251015Y-6645055D01*
X6251015Y-6645055D02*
X6260539Y-6664103D01*
X6260539Y-6664103D02*
X6270062Y-6702198D01*
X6270062Y-6702198D02*
X6270062Y-6730769D01*
X6270062Y-6730769D02*
X6260539Y-6768865D01*
X6260539Y-6768865D02*
X6251015Y-6787912D01*
X6251015Y-6787912D02*
X6231967Y-6806960D01*
X6231967Y-6806960D02*
X6203396Y-6816484D01*
X6203396Y-6816484D02*
X6155777Y-6816484D01*
X6355777Y-6816484D02*
X6355777Y-6683150D01*
X6355777Y-6721246D02*
X6365301Y-6702198D01*
X6365301Y-6702198D02*
X6374824Y-6692674D01*
X6374824Y-6692674D02*
X6393872Y-6683150D01*
X6393872Y-6683150D02*
X6412920Y-6683150D01*
X6479586Y-6816484D02*
X6479586Y-6683150D01*
X6479586Y-6616484D02*
X6470062Y-6626008D01*
X6470062Y-6626008D02*
X6479586Y-6635531D01*
X6479586Y-6635531D02*
X6489110Y-6626008D01*
X6489110Y-6626008D02*
X6479586Y-6616484D01*
X6479586Y-6616484D02*
X6479586Y-6635531D01*
X6603396Y-6816484D02*
X6584348Y-6806960D01*
X6584348Y-6806960D02*
X6574824Y-6787912D01*
X6574824Y-6787912D02*
X6574824Y-6616484D01*
X6708158Y-6816484D02*
X6689110Y-6806960D01*
X6689110Y-6806960D02*
X6679586Y-6787912D01*
X6679586Y-6787912D02*
X6679586Y-6616484D01*
X6936729Y-6816484D02*
X6936729Y-6616484D01*
X6936729Y-6616484D02*
X7003396Y-6759341D01*
X7003396Y-6759341D02*
X7070062Y-6616484D01*
X7070062Y-6616484D02*
X7070062Y-6816484D01*
X7251015Y-6816484D02*
X7251015Y-6711722D01*
X7251015Y-6711722D02*
X7241491Y-6692674D01*
X7241491Y-6692674D02*
X7222443Y-6683150D01*
X7222443Y-6683150D02*
X7184348Y-6683150D01*
X7184348Y-6683150D02*
X7165301Y-6692674D01*
X7251015Y-6806960D02*
X7231967Y-6816484D01*
X7231967Y-6816484D02*
X7184348Y-6816484D01*
X7184348Y-6816484D02*
X7165301Y-6806960D01*
X7165301Y-6806960D02*
X7155777Y-6787912D01*
X7155777Y-6787912D02*
X7155777Y-6768865D01*
X7155777Y-6768865D02*
X7165301Y-6749817D01*
X7165301Y-6749817D02*
X7184348Y-6740293D01*
X7184348Y-6740293D02*
X7231967Y-6740293D01*
X7231967Y-6740293D02*
X7251015Y-6730769D01*
X7346253Y-6683150D02*
X7346253Y-6883150D01*
X7346253Y-6692674D02*
X7365301Y-6683150D01*
X7365301Y-6683150D02*
X7403396Y-6683150D01*
X7403396Y-6683150D02*
X7422443Y-6692674D01*
X7422443Y-6692674D02*
X7431967Y-6702198D01*
X7431967Y-6702198D02*
X7441491Y-6721246D01*
X7441491Y-6721246D02*
X7441491Y-6778388D01*
X7441491Y-6778388D02*
X7431967Y-6797436D01*
X7431967Y-6797436D02*
X7422443Y-6806960D01*
X7422443Y-6806960D02*
X7403396Y-6816484D01*
X7403396Y-6816484D02*
X7365301Y-6816484D01*
X7365301Y-6816484D02*
X7346253Y-6806960D01*
X7527205Y-6797436D02*
X7536729Y-6806960D01*
X7536729Y-6806960D02*
X7527205Y-6816484D01*
X7527205Y-6816484D02*
X7517682Y-6806960D01*
X7517682Y-6806960D02*
X7527205Y-6797436D01*
X7527205Y-6797436D02*
X7527205Y-6816484D01*
X7527205Y-6692674D02*
X7536729Y-6702198D01*
X7536729Y-6702198D02*
X7527205Y-6711722D01*
X7527205Y-6711722D02*
X7517682Y-6702198D01*
X7517682Y-6702198D02*
X7527205Y-6692674D01*
X7527205Y-6692674D02*
X7527205Y-6711722D01*
M02*
