%TF.GenerationSoftware,KiCad,Pcbnew,7.0.9*%
%TF.CreationDate,2023-11-16T15:57:50+00:00*%
%TF.ProjectId,zx_spectrum_composite_mod,7a785f73-7065-4637-9472-756d5f636f6d,0*%
%TF.SameCoordinates,Original*%
%TF.FileFunction,Legend,Top*%
%TF.FilePolarity,Positive*%
%FSLAX46Y46*%
G04 Gerber Fmt 4.6, Leading zero omitted, Abs format (unit mm)*
G04 Created by KiCad (PCBNEW 7.0.9) date 2023-11-16 15:57:50*
%MOMM*%
%LPD*%
G01*
G04 APERTURE LIST*
%ADD10C,0.000000*%
%ADD11C,0.150000*%
%ADD12C,0.254000*%
%ADD13C,0.120000*%
%ADD14C,0.200000*%
%ADD15C,0.100000*%
%ADD16C,0.300000*%
G04 APERTURE END LIST*
D10*
G36*
X99128132Y-56330082D02*
G01*
X99192538Y-56333646D01*
X99254887Y-56339580D01*
X99315170Y-56347876D01*
X99373375Y-56358528D01*
X99429493Y-56371531D01*
X99483511Y-56386878D01*
X99535419Y-56404563D01*
X99585206Y-56424579D01*
X99632862Y-56446921D01*
X99678375Y-56471582D01*
X99721735Y-56498556D01*
X99762931Y-56527837D01*
X99801951Y-56559418D01*
X99838786Y-56593294D01*
X99873424Y-56629459D01*
X99879282Y-56635902D01*
X99884967Y-56642506D01*
X99890502Y-56649234D01*
X99895914Y-56656049D01*
X99906464Y-56669791D01*
X99916816Y-56683434D01*
X99928458Y-56578659D01*
X99948566Y-56389217D01*
X101967865Y-56389217D01*
X101967865Y-56390275D01*
X101942466Y-56624167D01*
X101882141Y-57196725D01*
X101862033Y-57386167D01*
X101399540Y-57386167D01*
X101242907Y-58874184D01*
X101222798Y-59063625D01*
X100886248Y-59063625D01*
X100951414Y-59084297D01*
X101016004Y-59109245D01*
X101079518Y-59138825D01*
X101141456Y-59173394D01*
X101171677Y-59192661D01*
X101201316Y-59213309D01*
X101230310Y-59235382D01*
X101258598Y-59258925D01*
X101286115Y-59283983D01*
X101312801Y-59310600D01*
X101338591Y-59338821D01*
X101363424Y-59368690D01*
X101387237Y-59400252D01*
X101409968Y-59433551D01*
X101431553Y-59468633D01*
X101451930Y-59505541D01*
X101471036Y-59544321D01*
X101488810Y-59585016D01*
X101505188Y-59627672D01*
X101520107Y-59672332D01*
X101533506Y-59719042D01*
X101545322Y-59767846D01*
X101555491Y-59818789D01*
X101563952Y-59871915D01*
X101570641Y-59927268D01*
X101575497Y-59984894D01*
X101578456Y-60044837D01*
X101579457Y-60107142D01*
X101577832Y-60170296D01*
X101573054Y-60231005D01*
X101565270Y-60289315D01*
X101554627Y-60345273D01*
X101541271Y-60398927D01*
X101525348Y-60450323D01*
X101507006Y-60499509D01*
X101486389Y-60546532D01*
X101463646Y-60591439D01*
X101438923Y-60634276D01*
X101412365Y-60675092D01*
X101384120Y-60713933D01*
X101354334Y-60750846D01*
X101323153Y-60785878D01*
X101290724Y-60819077D01*
X101257194Y-60850489D01*
X101187415Y-60908142D01*
X101114989Y-60959214D01*
X101041086Y-61004082D01*
X100966880Y-61043122D01*
X100893542Y-61076711D01*
X100822244Y-61105227D01*
X100754158Y-61129045D01*
X100690457Y-61148542D01*
X100716923Y-61155252D01*
X100742741Y-61162681D01*
X100767908Y-61170829D01*
X100792421Y-61179696D01*
X100816276Y-61189284D01*
X100839471Y-61199590D01*
X100862002Y-61210616D01*
X100883867Y-61222361D01*
X100905062Y-61234825D01*
X100925585Y-61248009D01*
X100945431Y-61261912D01*
X100964598Y-61276534D01*
X100983083Y-61291876D01*
X101000883Y-61307937D01*
X101017995Y-61324717D01*
X101034415Y-61342217D01*
X101054926Y-61366580D01*
X101073980Y-61392015D01*
X101091563Y-61418475D01*
X101107655Y-61445917D01*
X101122240Y-61474296D01*
X101135302Y-61503565D01*
X101146822Y-61533682D01*
X101156784Y-61564599D01*
X101165172Y-61596274D01*
X101171967Y-61628659D01*
X101177153Y-61661712D01*
X101180713Y-61695386D01*
X101182629Y-61729637D01*
X101182885Y-61764420D01*
X101181464Y-61799689D01*
X101178348Y-61835400D01*
X101164590Y-61958167D01*
X100810048Y-61958167D01*
X100843497Y-61978178D01*
X100875878Y-61999390D01*
X100907040Y-62021914D01*
X100936833Y-62045860D01*
X100965107Y-62071337D01*
X100991711Y-62098456D01*
X101004341Y-62112666D01*
X101016496Y-62127327D01*
X101028158Y-62142454D01*
X101039310Y-62158060D01*
X101049931Y-62174159D01*
X101060003Y-62190764D01*
X101069507Y-62207891D01*
X101078425Y-62225551D01*
X101086737Y-62243760D01*
X101094425Y-62262530D01*
X101101470Y-62281876D01*
X101107854Y-62301811D01*
X101113556Y-62322349D01*
X101118560Y-62343504D01*
X101122845Y-62365290D01*
X101126393Y-62387720D01*
X101129186Y-62410808D01*
X101131203Y-62434568D01*
X101132428Y-62459014D01*
X101132840Y-62484159D01*
X101131785Y-62525007D01*
X101128644Y-62564985D01*
X101123448Y-62604063D01*
X101116234Y-62642214D01*
X101107033Y-62679410D01*
X101095880Y-62715623D01*
X101082808Y-62750826D01*
X101067852Y-62784990D01*
X101051045Y-62818087D01*
X101032420Y-62850090D01*
X101012012Y-62880970D01*
X100989854Y-62910700D01*
X100965979Y-62939252D01*
X100940423Y-62966597D01*
X100913217Y-62992709D01*
X100884396Y-63017558D01*
X100853995Y-63041118D01*
X100822045Y-63063360D01*
X100788582Y-63084257D01*
X100753639Y-63103779D01*
X100717249Y-63121901D01*
X100679446Y-63138593D01*
X100640265Y-63153828D01*
X100599738Y-63167577D01*
X100557899Y-63179814D01*
X100514783Y-63190509D01*
X100470423Y-63199636D01*
X100424852Y-63207165D01*
X100378105Y-63213070D01*
X100330214Y-63217323D01*
X100281215Y-63219895D01*
X100231140Y-63220758D01*
X100179825Y-63219818D01*
X100129887Y-63217005D01*
X100081363Y-63212331D01*
X100034290Y-63205809D01*
X99988705Y-63197452D01*
X99944645Y-63187272D01*
X99902149Y-63175281D01*
X99861252Y-63161492D01*
X99821992Y-63145917D01*
X99784407Y-63128568D01*
X99748533Y-63109458D01*
X99714408Y-63088599D01*
X99682069Y-63066004D01*
X99651553Y-63041685D01*
X99622898Y-63015655D01*
X99596139Y-62987925D01*
X99578393Y-62967291D01*
X99561667Y-62945881D01*
X99545968Y-62923715D01*
X99531300Y-62900811D01*
X99517668Y-62877188D01*
X99505075Y-62852864D01*
X99493528Y-62827858D01*
X99483030Y-62802188D01*
X99473587Y-62775873D01*
X99465202Y-62748932D01*
X99457881Y-62721383D01*
X99451628Y-62693245D01*
X99446447Y-62664537D01*
X99442344Y-62635277D01*
X99439324Y-62605483D01*
X99437390Y-62575175D01*
X99427864Y-62665133D01*
X99388707Y-63051425D01*
X99376007Y-63175250D01*
X97983241Y-63175250D01*
X97997895Y-63035550D01*
X98135641Y-63035550D01*
X99251125Y-63035550D01*
X99290282Y-62649258D01*
X98689149Y-62649258D01*
X98702930Y-62523848D01*
X99572890Y-62523848D01*
X99573136Y-62558207D01*
X99574937Y-62591635D01*
X99578287Y-62624116D01*
X99583179Y-62655635D01*
X99589607Y-62686175D01*
X99597563Y-62715718D01*
X99607042Y-62744249D01*
X99618037Y-62771752D01*
X99630541Y-62798209D01*
X99644548Y-62823604D01*
X99660050Y-62847921D01*
X99677042Y-62871143D01*
X99695517Y-62893255D01*
X99715468Y-62914238D01*
X99736889Y-62934078D01*
X99759773Y-62952756D01*
X99784113Y-62970258D01*
X99809904Y-62986566D01*
X99837137Y-63001665D01*
X99865808Y-63015536D01*
X99895908Y-63028165D01*
X99927432Y-63039535D01*
X99960373Y-63049628D01*
X99994725Y-63058429D01*
X100030480Y-63065922D01*
X100067632Y-63072089D01*
X100106175Y-63076914D01*
X100146103Y-63080381D01*
X100187407Y-63082473D01*
X100230082Y-63083174D01*
X100314880Y-63080366D01*
X100395701Y-63072064D01*
X100472340Y-63058457D01*
X100544590Y-63039733D01*
X100579004Y-63028511D01*
X100612244Y-63016079D01*
X100644284Y-63002462D01*
X100675097Y-62987683D01*
X100704659Y-62971765D01*
X100732943Y-62954731D01*
X100759924Y-62936606D01*
X100785576Y-62917413D01*
X100809872Y-62897175D01*
X100832788Y-62875915D01*
X100854297Y-62853657D01*
X100874374Y-62830425D01*
X100892993Y-62806242D01*
X100910129Y-62781131D01*
X100925754Y-62755115D01*
X100939844Y-62728219D01*
X100952373Y-62700466D01*
X100963316Y-62671879D01*
X100972645Y-62642481D01*
X100980336Y-62612297D01*
X100986363Y-62581349D01*
X100990699Y-62549660D01*
X100993320Y-62517256D01*
X100994200Y-62484158D01*
X100993431Y-62453504D01*
X100991153Y-62424215D01*
X100987406Y-62396243D01*
X100982231Y-62369539D01*
X100975669Y-62344056D01*
X100967759Y-62319745D01*
X100958544Y-62296556D01*
X100948063Y-62274442D01*
X100936357Y-62253355D01*
X100923468Y-62233246D01*
X100909434Y-62214065D01*
X100894299Y-62195766D01*
X100878101Y-62178299D01*
X100860882Y-62161617D01*
X100842683Y-62145670D01*
X100823543Y-62130410D01*
X100803505Y-62115789D01*
X100782608Y-62101758D01*
X100738401Y-62075273D01*
X100691249Y-62050568D01*
X100641477Y-62027256D01*
X100589410Y-62004947D01*
X100535375Y-61983256D01*
X100422699Y-61940175D01*
X100396531Y-61930117D01*
X100372007Y-61920139D01*
X100349132Y-61910170D01*
X100327912Y-61900140D01*
X100308355Y-61889980D01*
X100290466Y-61879620D01*
X100274250Y-61868991D01*
X100259716Y-61858022D01*
X100246868Y-61846643D01*
X100235713Y-61834786D01*
X100226257Y-61822380D01*
X100222169Y-61815949D01*
X100218507Y-61809355D01*
X100215273Y-61802589D01*
X100212468Y-61795642D01*
X100210092Y-61788505D01*
X100208147Y-61781171D01*
X100206632Y-61773629D01*
X100205550Y-61765872D01*
X100204899Y-61757890D01*
X100204682Y-61749675D01*
X100204928Y-61740975D01*
X100205656Y-61732536D01*
X100206850Y-61724360D01*
X100208498Y-61716447D01*
X100210585Y-61708798D01*
X100213096Y-61701415D01*
X100216017Y-61694298D01*
X100219334Y-61687448D01*
X100223032Y-61680866D01*
X100227097Y-61674554D01*
X100231515Y-61668512D01*
X100236271Y-61662741D01*
X100241352Y-61657241D01*
X100246742Y-61652015D01*
X100252427Y-61647063D01*
X100258393Y-61642386D01*
X100264626Y-61637985D01*
X100271111Y-61633861D01*
X100277835Y-61630015D01*
X100284781Y-61626447D01*
X100291938Y-61623159D01*
X100299289Y-61620153D01*
X100306820Y-61617428D01*
X100314518Y-61614985D01*
X100322368Y-61612827D01*
X100330356Y-61610953D01*
X100338466Y-61609364D01*
X100346686Y-61608063D01*
X100355000Y-61607049D01*
X100363395Y-61606323D01*
X100371855Y-61605887D01*
X100380367Y-61605741D01*
X100390884Y-61605964D01*
X100401006Y-61606631D01*
X100410733Y-61607739D01*
X100420067Y-61609286D01*
X100429008Y-61611270D01*
X100437559Y-61613687D01*
X100445719Y-61616536D01*
X100453491Y-61619814D01*
X100460875Y-61623518D01*
X100467873Y-61627646D01*
X100474485Y-61632195D01*
X100480714Y-61637163D01*
X100486559Y-61642547D01*
X100492023Y-61648345D01*
X100497106Y-61654554D01*
X100501810Y-61661172D01*
X100506136Y-61668196D01*
X100510084Y-61675623D01*
X100513656Y-61683452D01*
X100516854Y-61691679D01*
X100519678Y-61700303D01*
X100522130Y-61709320D01*
X100524210Y-61718728D01*
X100525920Y-61728525D01*
X100527261Y-61738707D01*
X100528235Y-61749273D01*
X100528841Y-61760221D01*
X100529083Y-61771546D01*
X100528960Y-61783248D01*
X100528474Y-61795323D01*
X100527625Y-61807769D01*
X100526416Y-61820583D01*
X101040766Y-61820583D01*
X101044454Y-61769425D01*
X101043823Y-61718253D01*
X101041803Y-61692805D01*
X101038601Y-61667525D01*
X101034182Y-61642470D01*
X101028513Y-61617697D01*
X101021558Y-61593264D01*
X101013283Y-61569228D01*
X101003655Y-61545645D01*
X100992639Y-61522574D01*
X100980200Y-61500070D01*
X100966305Y-61478192D01*
X100950918Y-61456997D01*
X100934007Y-61436541D01*
X100915535Y-61416882D01*
X100895470Y-61398077D01*
X100873777Y-61380183D01*
X100850421Y-61363257D01*
X100825368Y-61347357D01*
X100798585Y-61332540D01*
X100770036Y-61318863D01*
X100739687Y-61306382D01*
X100707504Y-61295156D01*
X100673453Y-61285241D01*
X100637499Y-61276695D01*
X100599609Y-61269574D01*
X100559747Y-61263936D01*
X100517879Y-61259839D01*
X100473972Y-61257338D01*
X100427991Y-61256492D01*
X100358406Y-61258393D01*
X100289322Y-61264163D01*
X100221290Y-61273898D01*
X100154858Y-61287696D01*
X100090579Y-61305655D01*
X100029001Y-61327873D01*
X99970676Y-61354448D01*
X99916154Y-61385476D01*
X99890491Y-61402691D01*
X99865986Y-61421056D01*
X99842706Y-61440584D01*
X99820720Y-61461285D01*
X99800099Y-61483174D01*
X99780909Y-61506262D01*
X99763221Y-61530561D01*
X99747102Y-61556083D01*
X99732622Y-61582841D01*
X99719850Y-61610846D01*
X99708854Y-61640112D01*
X99699702Y-61670649D01*
X99692465Y-61702472D01*
X99687211Y-61735590D01*
X99684007Y-61770018D01*
X99682924Y-61805767D01*
X99683650Y-61834796D01*
X99685802Y-61862580D01*
X99689343Y-61889164D01*
X99694237Y-61914593D01*
X99700447Y-61938912D01*
X99707934Y-61962166D01*
X99716664Y-61984401D01*
X99726597Y-62005659D01*
X99737698Y-62025988D01*
X99749929Y-62045432D01*
X99763254Y-62064035D01*
X99777635Y-62081843D01*
X99793035Y-62098901D01*
X99809418Y-62115253D01*
X99826746Y-62130945D01*
X99844982Y-62146021D01*
X99864089Y-62160527D01*
X99884031Y-62174507D01*
X99926269Y-62201071D01*
X99971400Y-62226072D01*
X100019127Y-62249870D01*
X100069155Y-62272825D01*
X100121188Y-62295296D01*
X100230082Y-62340225D01*
X100289417Y-62364833D01*
X100315721Y-62376416D01*
X100339835Y-62387668D01*
X100361797Y-62398703D01*
X100381645Y-62409635D01*
X100399420Y-62420575D01*
X100415158Y-62431638D01*
X100428900Y-62442937D01*
X100440684Y-62454585D01*
X100450549Y-62466694D01*
X100458534Y-62479379D01*
X100461833Y-62485973D01*
X100464676Y-62492752D01*
X100467069Y-62499732D01*
X100469016Y-62506927D01*
X100471591Y-62522016D01*
X100472441Y-62538133D01*
X100472210Y-62546876D01*
X100471523Y-62555438D01*
X100470389Y-62563814D01*
X100468817Y-62571998D01*
X100466817Y-62579982D01*
X100464397Y-62587760D01*
X100461567Y-62595327D01*
X100458335Y-62602675D01*
X100454711Y-62609798D01*
X100450704Y-62616690D01*
X100446323Y-62623345D01*
X100441578Y-62629755D01*
X100436476Y-62635916D01*
X100431028Y-62641819D01*
X100425242Y-62647459D01*
X100419127Y-62652830D01*
X100412694Y-62657925D01*
X100405950Y-62662737D01*
X100398904Y-62667261D01*
X100391567Y-62671489D01*
X100383947Y-62675416D01*
X100376053Y-62679035D01*
X100367895Y-62682340D01*
X100359480Y-62685324D01*
X100350820Y-62687981D01*
X100341922Y-62690305D01*
X100332795Y-62692288D01*
X100323450Y-62693925D01*
X100313894Y-62695210D01*
X100304138Y-62696135D01*
X100294189Y-62696695D01*
X100284058Y-62696883D01*
X100271917Y-62696623D01*
X100260105Y-62695847D01*
X100248629Y-62694558D01*
X100237495Y-62692759D01*
X100226710Y-62690457D01*
X100216281Y-62687654D01*
X100206213Y-62684354D01*
X100196514Y-62680562D01*
X100187190Y-62676281D01*
X100178248Y-62671517D01*
X100169694Y-62666272D01*
X100161535Y-62660551D01*
X100153778Y-62654357D01*
X100146429Y-62647696D01*
X100139494Y-62640571D01*
X100132981Y-62632986D01*
X100126895Y-62624946D01*
X100121245Y-62616453D01*
X100116035Y-62607513D01*
X100111273Y-62598130D01*
X100106965Y-62588306D01*
X100103117Y-62578048D01*
X100099738Y-62567358D01*
X100096832Y-62556241D01*
X100094407Y-62544700D01*
X100092469Y-62532740D01*
X100091025Y-62520366D01*
X100090081Y-62507580D01*
X100089644Y-62494387D01*
X100089721Y-62480792D01*
X100090317Y-62466797D01*
X100091441Y-62452408D01*
X99577091Y-62452408D01*
X99574207Y-62488577D01*
X99572890Y-62523848D01*
X98702930Y-62523848D01*
X98720899Y-62360333D01*
X99322032Y-62360333D01*
X99359074Y-61992033D01*
X98757941Y-61992033D01*
X98789691Y-61690408D01*
X99390824Y-61690408D01*
X99434216Y-61304117D01*
X98318732Y-61304117D01*
X98135641Y-63035550D01*
X97997895Y-63035550D01*
X97999116Y-63023908D01*
X98070024Y-62355042D01*
X98040176Y-62397132D01*
X98007845Y-62437214D01*
X97973130Y-62475191D01*
X97936129Y-62510964D01*
X97896938Y-62544437D01*
X97855656Y-62575512D01*
X97812380Y-62604091D01*
X97767209Y-62630076D01*
X97720239Y-62653370D01*
X97671568Y-62673875D01*
X97621294Y-62691493D01*
X97569515Y-62706127D01*
X97543092Y-62712295D01*
X97516329Y-62717679D01*
X97489238Y-62722269D01*
X97461832Y-62726052D01*
X97434123Y-62729015D01*
X97406123Y-62731147D01*
X97377844Y-62732435D01*
X97349299Y-62732867D01*
X97156683Y-62732867D01*
X97122816Y-63052484D01*
X97110116Y-63175250D01*
X95575533Y-63175250D01*
X95554366Y-63063067D01*
X95538491Y-62975225D01*
X95163841Y-62975225D01*
X95117274Y-63089525D01*
X95082349Y-63175250D01*
X93484266Y-63175250D01*
X93500141Y-63023908D01*
X93619733Y-61884083D01*
X93264133Y-61884083D01*
X93278685Y-61744383D01*
X93417591Y-61744383D01*
X93774250Y-61744383D01*
X93637725Y-63035550D01*
X94152075Y-63035550D01*
X94432533Y-63035550D01*
X94989216Y-63035550D01*
X95070708Y-62835525D01*
X95651733Y-62835525D01*
X95688775Y-63035550D01*
X96263450Y-63035550D01*
X96470883Y-63035550D01*
X96985233Y-63035550D01*
X97031799Y-62593167D01*
X97348241Y-62593167D01*
X97387560Y-62592109D01*
X97426122Y-62589169D01*
X97463894Y-62584400D01*
X97500844Y-62577854D01*
X97536939Y-62569584D01*
X97572148Y-62559643D01*
X97606439Y-62548084D01*
X97639779Y-62534958D01*
X97672136Y-62520320D01*
X97703478Y-62504221D01*
X97733772Y-62486715D01*
X97762988Y-62467853D01*
X97791092Y-62447690D01*
X97818052Y-62426277D01*
X97843836Y-62403667D01*
X97868412Y-62379913D01*
X97891748Y-62355067D01*
X97913811Y-62329183D01*
X97934570Y-62302313D01*
X97953992Y-62274509D01*
X97972045Y-62245825D01*
X97988697Y-62216313D01*
X98003916Y-62186026D01*
X98017670Y-62155017D01*
X98029926Y-62123338D01*
X98040652Y-62091041D01*
X98049816Y-62058181D01*
X98057386Y-62024809D01*
X98063330Y-61990978D01*
X98067616Y-61956740D01*
X98070211Y-61922150D01*
X98071083Y-61887258D01*
X98070446Y-61857462D01*
X98068544Y-61828026D01*
X98065390Y-61798990D01*
X98060995Y-61770391D01*
X98055373Y-61742268D01*
X98048535Y-61714660D01*
X98040494Y-61687604D01*
X98031263Y-61661139D01*
X98020853Y-61635303D01*
X98009278Y-61610136D01*
X97996549Y-61585674D01*
X97982679Y-61561957D01*
X97967680Y-61539023D01*
X97951565Y-61516910D01*
X97934347Y-61495657D01*
X97916037Y-61475302D01*
X97896648Y-61455883D01*
X97876192Y-61437439D01*
X97854682Y-61420008D01*
X97832131Y-61403629D01*
X97808550Y-61388339D01*
X97783952Y-61374178D01*
X97758349Y-61361183D01*
X97731754Y-61349394D01*
X97704180Y-61338847D01*
X97675638Y-61329582D01*
X97646141Y-61321638D01*
X97615702Y-61315052D01*
X97584332Y-61309862D01*
X97552044Y-61306108D01*
X97518852Y-61303827D01*
X97484766Y-61303058D01*
X96653974Y-61303058D01*
X96470883Y-63035550D01*
X96263450Y-63035550D01*
X95793549Y-61304117D01*
X95253800Y-61304117D01*
X94432533Y-63035550D01*
X94152075Y-63035550D01*
X94288600Y-61744383D01*
X94644200Y-61744383D01*
X94690766Y-61304117D01*
X93464158Y-61304117D01*
X93417591Y-61744383D01*
X93278685Y-61744383D01*
X93280008Y-61731684D01*
X93326575Y-61291417D01*
X93339275Y-61168650D01*
X93340333Y-61168650D01*
X93366540Y-60943225D01*
X95253800Y-60943225D01*
X96331183Y-60943225D01*
X96369283Y-60570692D01*
X95789316Y-60570692D01*
X95820008Y-60291292D01*
X96401033Y-60291292D01*
X96437016Y-59935692D01*
X95857050Y-59935692D01*
X95882384Y-59695450D01*
X96639158Y-59695450D01*
X96983116Y-59695450D01*
X96852941Y-60942167D01*
X97349299Y-60942167D01*
X97886933Y-60942167D01*
X98383291Y-60942167D01*
X98428799Y-60514600D01*
X98521933Y-60514600D01*
X98761116Y-60942167D01*
X99346374Y-60942167D01*
X99064857Y-60433108D01*
X99085654Y-60421586D01*
X99105968Y-60409452D01*
X99125787Y-60396720D01*
X99145100Y-60383406D01*
X99163896Y-60369524D01*
X99182162Y-60355087D01*
X99199887Y-60340112D01*
X99217059Y-60324613D01*
X99233667Y-60308603D01*
X99249699Y-60292098D01*
X99265143Y-60275111D01*
X99279988Y-60257659D01*
X99294223Y-60239754D01*
X99307835Y-60221412D01*
X99320813Y-60202647D01*
X99329145Y-60189692D01*
X99554867Y-60189692D01*
X99555691Y-60229227D01*
X99558161Y-60268417D01*
X99562274Y-60307202D01*
X99568027Y-60345523D01*
X99575417Y-60383320D01*
X99584439Y-60420534D01*
X99595091Y-60457103D01*
X99607370Y-60492970D01*
X99621271Y-60528075D01*
X99636793Y-60562356D01*
X99653931Y-60595756D01*
X99672682Y-60628214D01*
X99693044Y-60659670D01*
X99715012Y-60690065D01*
X99738583Y-60719340D01*
X99763755Y-60747433D01*
X99790523Y-60774287D01*
X99818885Y-60799841D01*
X99848837Y-60824034D01*
X99880376Y-60846809D01*
X99913498Y-60868105D01*
X99948201Y-60887862D01*
X99984481Y-60906021D01*
X100022335Y-60922521D01*
X100061759Y-60937304D01*
X100102751Y-60950310D01*
X100145306Y-60961478D01*
X100189422Y-60970750D01*
X100235095Y-60978065D01*
X100282322Y-60983364D01*
X100331099Y-60986587D01*
X100381424Y-60987675D01*
X100437636Y-60986318D01*
X100492544Y-60982300D01*
X100546119Y-60975702D01*
X100598327Y-60966603D01*
X100649138Y-60955085D01*
X100698519Y-60941227D01*
X100746440Y-60925109D01*
X100792868Y-60906812D01*
X100837773Y-60886415D01*
X100881122Y-60864000D01*
X100922883Y-60839647D01*
X100963026Y-60813434D01*
X101001519Y-60785444D01*
X101038330Y-60755756D01*
X101073428Y-60724450D01*
X101106780Y-60691606D01*
X101138356Y-60657305D01*
X101168123Y-60621628D01*
X101196051Y-60584653D01*
X101222107Y-60546462D01*
X101246261Y-60507134D01*
X101268480Y-60466750D01*
X101288732Y-60425391D01*
X101306987Y-60383135D01*
X101323213Y-60340064D01*
X101337377Y-60296258D01*
X101349449Y-60251797D01*
X101359397Y-60206762D01*
X101367190Y-60161231D01*
X101372795Y-60115287D01*
X101376181Y-60069008D01*
X101377317Y-60022475D01*
X101376492Y-59982940D01*
X101374022Y-59943750D01*
X101369909Y-59904965D01*
X101364156Y-59866644D01*
X101356766Y-59828847D01*
X101347744Y-59791634D01*
X101337092Y-59755064D01*
X101324813Y-59719197D01*
X101310912Y-59684092D01*
X101295390Y-59649811D01*
X101278252Y-59616411D01*
X101259500Y-59583953D01*
X101239139Y-59552497D01*
X101217171Y-59522102D01*
X101193599Y-59492827D01*
X101168428Y-59464734D01*
X101141659Y-59437880D01*
X101113298Y-59412326D01*
X101083346Y-59388132D01*
X101051807Y-59365358D01*
X101018684Y-59344062D01*
X100983981Y-59324305D01*
X100947701Y-59306146D01*
X100909847Y-59289646D01*
X100870423Y-59274863D01*
X100829432Y-59261857D01*
X100786876Y-59250689D01*
X100742761Y-59241417D01*
X100697088Y-59234102D01*
X100649861Y-59228803D01*
X100601083Y-59225580D01*
X100550758Y-59224492D01*
X100494546Y-59225849D01*
X100439638Y-59229867D01*
X100386064Y-59236465D01*
X100333855Y-59245564D01*
X100283045Y-59257082D01*
X100233663Y-59270940D01*
X100185743Y-59287058D01*
X100139314Y-59305355D01*
X100094410Y-59325751D01*
X100051061Y-59348167D01*
X100009300Y-59372520D01*
X99969156Y-59398732D01*
X99930664Y-59426723D01*
X99893853Y-59456411D01*
X99858755Y-59487717D01*
X99825403Y-59520561D01*
X99793827Y-59554861D01*
X99764060Y-59590539D01*
X99736132Y-59627514D01*
X99710076Y-59665705D01*
X99685922Y-59705033D01*
X99663704Y-59745417D01*
X99643451Y-59786776D01*
X99625196Y-59829032D01*
X99608971Y-59872102D01*
X99594806Y-59915909D01*
X99582734Y-59960370D01*
X99572786Y-60005405D01*
X99564994Y-60050936D01*
X99559389Y-60096880D01*
X99556002Y-60143159D01*
X99554867Y-60189692D01*
X99329145Y-60189692D01*
X99333145Y-60183474D01*
X99344820Y-60163907D01*
X99355826Y-60143961D01*
X99366151Y-60123650D01*
X99375784Y-60102989D01*
X99384713Y-60081992D01*
X99392927Y-60060675D01*
X99400414Y-60039050D01*
X99407162Y-60017134D01*
X99413160Y-59994940D01*
X99418395Y-59972483D01*
X99422858Y-59949778D01*
X99426534Y-59926839D01*
X99429414Y-59903680D01*
X99431486Y-59880317D01*
X99432738Y-59856763D01*
X99433157Y-59833034D01*
X99432542Y-59804319D01*
X99430705Y-59775946D01*
X99427658Y-59747951D01*
X99423413Y-59720373D01*
X99417982Y-59693248D01*
X99411377Y-59666614D01*
X99403610Y-59640508D01*
X99394693Y-59614967D01*
X99384639Y-59590030D01*
X99373458Y-59565733D01*
X99361164Y-59542115D01*
X99347767Y-59519211D01*
X99333281Y-59497060D01*
X99317717Y-59475699D01*
X99301087Y-59455166D01*
X99283403Y-59435497D01*
X99264678Y-59416731D01*
X99244922Y-59398904D01*
X99224149Y-59382055D01*
X99202370Y-59366220D01*
X99179598Y-59351437D01*
X99155844Y-59337743D01*
X99131120Y-59325175D01*
X99105438Y-59313772D01*
X99078811Y-59303571D01*
X99051250Y-59294608D01*
X99022767Y-59286921D01*
X98993375Y-59280548D01*
X98963085Y-59275527D01*
X98931909Y-59271893D01*
X98899860Y-59269686D01*
X98866949Y-59268942D01*
X98064733Y-59268942D01*
X97886933Y-60942167D01*
X97349299Y-60942167D01*
X97480533Y-59695450D01*
X97824491Y-59695450D01*
X97870000Y-59270000D01*
X96684666Y-59270000D01*
X96639158Y-59695450D01*
X95882384Y-59695450D01*
X95887742Y-59644650D01*
X96467708Y-59644650D01*
X96467708Y-59643592D01*
X96507925Y-59271059D01*
X95430541Y-59271059D01*
X95253800Y-60943225D01*
X93366540Y-60943225D01*
X93366663Y-60942167D01*
X93586925Y-60942167D01*
X94083283Y-60942167D01*
X94128791Y-60514600D01*
X94221925Y-60514600D01*
X94461108Y-60942167D01*
X95046366Y-60942167D01*
X94764850Y-60433108D01*
X94785646Y-60421586D01*
X94805960Y-60409452D01*
X94825780Y-60396720D01*
X94845093Y-60383406D01*
X94863888Y-60369524D01*
X94882154Y-60355087D01*
X94899879Y-60340112D01*
X94917051Y-60324613D01*
X94933659Y-60308603D01*
X94949691Y-60292098D01*
X94965135Y-60275111D01*
X94979981Y-60257659D01*
X94994215Y-60239754D01*
X95007827Y-60221412D01*
X95020805Y-60202647D01*
X95033137Y-60183474D01*
X95044812Y-60163907D01*
X95055818Y-60143961D01*
X95066143Y-60123650D01*
X95075776Y-60102989D01*
X95084706Y-60081992D01*
X95092920Y-60060675D01*
X95100406Y-60039050D01*
X95107154Y-60017134D01*
X95113152Y-59994940D01*
X95118388Y-59972483D01*
X95122850Y-59949778D01*
X95126527Y-59926839D01*
X95129407Y-59903680D01*
X95131478Y-59880317D01*
X95132730Y-59856763D01*
X95133150Y-59833034D01*
X95132535Y-59804319D01*
X95130698Y-59775946D01*
X95127651Y-59747951D01*
X95123406Y-59720373D01*
X95117975Y-59693248D01*
X95111370Y-59666614D01*
X95103603Y-59640508D01*
X95094686Y-59614967D01*
X95084631Y-59590030D01*
X95073450Y-59565733D01*
X95061156Y-59542115D01*
X95047759Y-59519211D01*
X95033273Y-59497060D01*
X95017709Y-59475699D01*
X95001079Y-59455166D01*
X94983395Y-59435497D01*
X94964670Y-59416731D01*
X94944915Y-59398904D01*
X94924141Y-59382055D01*
X94902363Y-59366220D01*
X94879590Y-59351437D01*
X94855836Y-59337743D01*
X94831112Y-59325175D01*
X94805430Y-59313772D01*
X94778803Y-59303571D01*
X94751242Y-59294608D01*
X94722759Y-59286921D01*
X94693367Y-59280548D01*
X94663077Y-59275527D01*
X94631901Y-59271893D01*
X94599852Y-59269686D01*
X94566941Y-59268942D01*
X93763666Y-59268942D01*
X93586925Y-60942167D01*
X93366663Y-60942167D01*
X93584808Y-59065742D01*
X93584808Y-59064684D01*
X93606947Y-58851959D01*
X93821875Y-58851959D01*
X95079175Y-58851959D01*
X95140558Y-58279400D01*
X94551066Y-58279400D01*
X94727808Y-56601942D01*
X94060000Y-56601942D01*
X93821875Y-58851959D01*
X93606947Y-58851959D01*
X93609150Y-58830792D01*
X93849391Y-56579717D01*
X93869500Y-56390275D01*
X94964875Y-56390275D01*
X94940533Y-56624167D01*
X94788133Y-58067734D01*
X95164900Y-58067734D01*
X95160435Y-58039159D01*
X95156565Y-58010584D01*
X95153291Y-57982009D01*
X95150612Y-57953434D01*
X95148528Y-57924859D01*
X95147040Y-57896284D01*
X95146147Y-57867709D01*
X95145849Y-57839134D01*
X95355400Y-57839134D01*
X95356509Y-57892308D01*
X95359834Y-57945017D01*
X95365370Y-57997182D01*
X95373112Y-58048721D01*
X95383057Y-58099555D01*
X95395200Y-58149603D01*
X95409535Y-58198786D01*
X95426060Y-58247022D01*
X95444769Y-58294232D01*
X95465658Y-58340336D01*
X95488722Y-58385252D01*
X95513957Y-58428902D01*
X95541359Y-58471205D01*
X95570923Y-58512080D01*
X95602645Y-58551448D01*
X95636519Y-58589227D01*
X95672543Y-58625339D01*
X95710710Y-58659702D01*
X95751018Y-58692237D01*
X95793461Y-58722863D01*
X95838034Y-58751499D01*
X95884734Y-58778067D01*
X95933556Y-58802485D01*
X95984496Y-58824673D01*
X96037549Y-58844552D01*
X96092710Y-58862040D01*
X96149975Y-58877058D01*
X96209340Y-58889525D01*
X96270800Y-58899362D01*
X96334351Y-58906487D01*
X96399989Y-58910821D01*
X96467708Y-58912284D01*
X96543343Y-58910457D01*
X96617223Y-58905048D01*
X96689308Y-58896167D01*
X96759553Y-58883919D01*
X96827918Y-58868415D01*
X96894358Y-58849762D01*
X96958833Y-58828068D01*
X97021299Y-58803441D01*
X97081713Y-58775989D01*
X97140035Y-58745821D01*
X97196220Y-58713044D01*
X97250227Y-58677768D01*
X97302014Y-58640099D01*
X97351537Y-58600146D01*
X97398754Y-58558017D01*
X97443623Y-58513821D01*
X97486102Y-58467665D01*
X97526148Y-58419658D01*
X97563718Y-58369907D01*
X97598770Y-58318521D01*
X97631262Y-58265608D01*
X97661152Y-58211277D01*
X97673931Y-58185177D01*
X97950106Y-58185177D01*
X97950363Y-58229936D01*
X97952651Y-58273474D01*
X97956961Y-58315769D01*
X97963284Y-58356801D01*
X97971612Y-58396549D01*
X97981935Y-58434992D01*
X97994243Y-58472109D01*
X98008529Y-58507881D01*
X98024782Y-58542285D01*
X98042993Y-58575301D01*
X98063155Y-58606910D01*
X98085256Y-58637089D01*
X98109289Y-58665818D01*
X98135244Y-58693076D01*
X98163112Y-58718843D01*
X98192884Y-58743098D01*
X98224551Y-58765820D01*
X98258104Y-58786989D01*
X98293533Y-58806583D01*
X98330830Y-58824582D01*
X98369985Y-58840966D01*
X98410989Y-58855712D01*
X98453834Y-58868802D01*
X98498510Y-58880213D01*
X98545008Y-58889926D01*
X98593318Y-58897920D01*
X98643433Y-58904173D01*
X98695342Y-58908665D01*
X98749036Y-58911375D01*
X98804507Y-58912284D01*
X98914720Y-58908629D01*
X99019754Y-58897829D01*
X99119344Y-58880130D01*
X99213222Y-58855778D01*
X99257937Y-58841185D01*
X99301123Y-58825021D01*
X99342748Y-58807318D01*
X99382779Y-58788105D01*
X99421182Y-58767414D01*
X99457924Y-58745276D01*
X99492971Y-58721721D01*
X99526291Y-58696780D01*
X99557849Y-58670485D01*
X99587613Y-58642865D01*
X99615549Y-58613952D01*
X99641624Y-58583776D01*
X99665805Y-58552369D01*
X99688058Y-58519761D01*
X99708349Y-58485983D01*
X99726646Y-58451065D01*
X99742916Y-58415039D01*
X99757124Y-58377935D01*
X99769238Y-58339785D01*
X99779224Y-58300618D01*
X99787049Y-58260467D01*
X99792680Y-58219361D01*
X99796082Y-58177331D01*
X99797224Y-58134408D01*
X99796225Y-58094633D01*
X99793264Y-58056624D01*
X99788393Y-58020320D01*
X99781665Y-57985657D01*
X99773134Y-57952573D01*
X99762852Y-57921005D01*
X99750872Y-57890891D01*
X99737246Y-57862169D01*
X99722029Y-57834775D01*
X99705272Y-57808647D01*
X99687029Y-57783722D01*
X99667353Y-57759938D01*
X99646296Y-57737233D01*
X99623911Y-57715543D01*
X99600252Y-57694806D01*
X99575371Y-57674960D01*
X99549321Y-57655941D01*
X99522155Y-57637688D01*
X99464686Y-57603226D01*
X99403389Y-57571075D01*
X99338685Y-57540733D01*
X99270998Y-57511700D01*
X99200752Y-57483474D01*
X99054274Y-57427442D01*
X99020405Y-57414254D01*
X98988654Y-57401217D01*
X98959029Y-57388233D01*
X98931541Y-57375203D01*
X98906198Y-57362031D01*
X98883011Y-57348619D01*
X98861987Y-57334868D01*
X98843137Y-57320682D01*
X98826470Y-57305963D01*
X98811995Y-57290613D01*
X98799721Y-57274534D01*
X98794413Y-57266191D01*
X98789658Y-57257629D01*
X98785459Y-57248836D01*
X98781815Y-57239800D01*
X98778729Y-57230508D01*
X98776202Y-57220949D01*
X98774234Y-57211110D01*
X98772827Y-57200979D01*
X98771981Y-57190544D01*
X98771699Y-57179792D01*
X98772016Y-57168549D01*
X98772953Y-57157643D01*
X98774493Y-57147074D01*
X98776617Y-57136845D01*
X98779308Y-57126955D01*
X98782548Y-57117407D01*
X98786318Y-57108202D01*
X98790601Y-57099342D01*
X98795378Y-57090827D01*
X98800632Y-57082660D01*
X98806344Y-57074840D01*
X98812497Y-57067371D01*
X98819072Y-57060252D01*
X98826052Y-57053487D01*
X98833418Y-57047075D01*
X98841153Y-57041018D01*
X98849237Y-57035318D01*
X98857655Y-57029975D01*
X98866386Y-57024992D01*
X98875414Y-57020370D01*
X98884720Y-57016110D01*
X98894287Y-57012213D01*
X98904095Y-57008680D01*
X98914128Y-57005514D01*
X98924367Y-57002715D01*
X98934794Y-57000285D01*
X98945391Y-56998225D01*
X98956141Y-56996537D01*
X98967024Y-56995221D01*
X98978024Y-56994280D01*
X98989122Y-56993714D01*
X99000299Y-56993525D01*
X99013933Y-56993816D01*
X99027053Y-56994686D01*
X99039662Y-56996133D01*
X99051761Y-56998151D01*
X99063351Y-57000739D01*
X99074435Y-57003892D01*
X99085012Y-57007607D01*
X99095087Y-57011881D01*
X99104658Y-57016709D01*
X99113729Y-57022089D01*
X99122301Y-57028017D01*
X99130375Y-57034490D01*
X99137953Y-57041504D01*
X99145037Y-57049055D01*
X99151628Y-57057140D01*
X99157727Y-57065756D01*
X99163336Y-57074899D01*
X99168457Y-57084566D01*
X99173091Y-57094753D01*
X99177240Y-57105456D01*
X99180905Y-57116673D01*
X99184088Y-57128399D01*
X99186790Y-57140632D01*
X99189014Y-57153367D01*
X99190759Y-57166601D01*
X99192029Y-57180331D01*
X99192825Y-57194553D01*
X99193148Y-57209264D01*
X99192999Y-57224460D01*
X99192381Y-57240138D01*
X99191294Y-57256294D01*
X99189741Y-57272925D01*
X99853316Y-57272925D01*
X99862841Y-57188259D01*
X99862340Y-57174500D01*
X100076624Y-57174500D01*
X100539115Y-57174500D01*
X100362374Y-58851959D01*
X101031241Y-58851959D01*
X101207982Y-57174500D01*
X101670475Y-57174500D01*
X101732916Y-56601942D01*
X100138008Y-56601942D01*
X100076624Y-57174500D01*
X99862340Y-57174500D01*
X99860611Y-57127093D01*
X99857621Y-57096709D01*
X99853333Y-57066536D01*
X99847712Y-57036630D01*
X99840722Y-57007049D01*
X99832327Y-56977850D01*
X99822492Y-56949092D01*
X99811182Y-56920831D01*
X99798359Y-56893125D01*
X99783990Y-56866033D01*
X99768038Y-56839610D01*
X99750467Y-56813915D01*
X99731242Y-56789006D01*
X99710327Y-56764940D01*
X99687687Y-56741774D01*
X99663286Y-56719567D01*
X99637087Y-56698375D01*
X99609057Y-56678256D01*
X99579158Y-56659268D01*
X99547356Y-56641468D01*
X99513614Y-56624914D01*
X99477897Y-56609663D01*
X99440169Y-56595774D01*
X99400395Y-56583303D01*
X99358539Y-56572308D01*
X99314565Y-56562847D01*
X99268438Y-56554976D01*
X99220122Y-56548755D01*
X99169581Y-56544240D01*
X99116780Y-56541489D01*
X99061682Y-56540559D01*
X98971289Y-56543023D01*
X98881559Y-56550503D01*
X98793206Y-56563127D01*
X98706942Y-56581023D01*
X98623482Y-56604321D01*
X98543537Y-56633148D01*
X98467822Y-56667634D01*
X98397049Y-56707908D01*
X98363739Y-56730255D01*
X98331932Y-56754097D01*
X98301717Y-56779450D01*
X98273183Y-56806331D01*
X98246420Y-56834754D01*
X98221516Y-56864738D01*
X98198561Y-56896296D01*
X98177644Y-56929446D01*
X98158853Y-56964204D01*
X98142279Y-57000586D01*
X98128011Y-57038608D01*
X98116136Y-57078285D01*
X98106745Y-57119634D01*
X98099927Y-57162672D01*
X98095771Y-57207413D01*
X98094366Y-57253875D01*
X98095310Y-57291641D01*
X98098109Y-57327784D01*
X98102715Y-57362365D01*
X98109079Y-57395440D01*
X98117154Y-57427068D01*
X98126890Y-57457309D01*
X98138239Y-57486221D01*
X98151152Y-57513861D01*
X98165582Y-57540290D01*
X98181480Y-57565564D01*
X98198796Y-57589743D01*
X98217484Y-57612886D01*
X98237494Y-57635050D01*
X98258778Y-57656295D01*
X98281288Y-57676678D01*
X98304974Y-57696259D01*
X98329790Y-57715095D01*
X98355685Y-57733246D01*
X98410522Y-57767725D01*
X98469099Y-57800164D01*
X98531028Y-57831031D01*
X98595920Y-57860794D01*
X98663390Y-57889921D01*
X98804507Y-57948142D01*
X98881869Y-57980289D01*
X98916142Y-57995395D01*
X98947548Y-58010054D01*
X98976138Y-58024416D01*
X99001965Y-58038629D01*
X99025083Y-58052842D01*
X99045543Y-58067204D01*
X99063399Y-58081864D01*
X99078703Y-58096970D01*
X99091508Y-58112671D01*
X99101866Y-58129117D01*
X99106144Y-58137665D01*
X99109831Y-58146455D01*
X99112932Y-58155506D01*
X99115455Y-58164836D01*
X99118791Y-58184406D01*
X99119891Y-58205317D01*
X99119592Y-58216614D01*
X99118703Y-58227679D01*
X99117236Y-58238505D01*
X99115203Y-58249083D01*
X99112614Y-58259403D01*
X99109482Y-58269459D01*
X99105818Y-58279242D01*
X99101635Y-58288743D01*
X99096942Y-58297954D01*
X99091753Y-58306867D01*
X99086079Y-58315474D01*
X99079931Y-58323765D01*
X99073320Y-58331734D01*
X99066260Y-58339370D01*
X99058761Y-58346667D01*
X99050835Y-58353616D01*
X99042493Y-58360208D01*
X99033747Y-58366435D01*
X99024609Y-58372289D01*
X99015091Y-58377761D01*
X99005204Y-58382843D01*
X98994959Y-58387528D01*
X98984368Y-58391805D01*
X98973444Y-58395668D01*
X98962197Y-58399108D01*
X98950639Y-58402115D01*
X98938782Y-58404683D01*
X98926637Y-58406803D01*
X98914217Y-58408466D01*
X98901532Y-58409665D01*
X98888594Y-58410390D01*
X98875416Y-58410634D01*
X98859651Y-58410296D01*
X98844310Y-58409288D01*
X98829402Y-58407615D01*
X98814936Y-58405280D01*
X98800920Y-58402289D01*
X98787363Y-58398648D01*
X98774274Y-58394361D01*
X98761661Y-58389434D01*
X98749534Y-58383871D01*
X98737901Y-58377677D01*
X98726770Y-58370858D01*
X98716151Y-58363418D01*
X98706052Y-58355363D01*
X98696482Y-58346697D01*
X98687449Y-58337426D01*
X98678963Y-58327554D01*
X98671031Y-58317088D01*
X98663664Y-58306031D01*
X98656868Y-58294388D01*
X98650654Y-58282166D01*
X98645030Y-58269368D01*
X98640005Y-58256001D01*
X98635586Y-58242068D01*
X98631784Y-58227575D01*
X98628607Y-58212527D01*
X98626063Y-58196929D01*
X98624161Y-58180787D01*
X98622910Y-58164104D01*
X98622319Y-58146886D01*
X98622397Y-58129139D01*
X98623151Y-58110867D01*
X98624591Y-58092075D01*
X97955724Y-58092075D01*
X97951890Y-58139216D01*
X97950106Y-58185177D01*
X97673931Y-58185177D01*
X97688396Y-58155634D01*
X97712953Y-58098789D01*
X97734779Y-58040849D01*
X97753833Y-57981923D01*
X97770072Y-57922119D01*
X97783454Y-57861545D01*
X97793935Y-57800308D01*
X97801475Y-57738518D01*
X97806030Y-57676282D01*
X97807558Y-57613709D01*
X97806448Y-57560628D01*
X97803124Y-57508000D01*
X97797588Y-57455905D01*
X97789845Y-57404425D01*
X97779900Y-57353641D01*
X97767758Y-57303632D01*
X97753422Y-57254481D01*
X97736897Y-57206267D01*
X97718188Y-57159072D01*
X97697299Y-57112976D01*
X97674235Y-57068060D01*
X97649000Y-57024405D01*
X97621598Y-56982092D01*
X97592034Y-56941202D01*
X97560312Y-56901815D01*
X97526438Y-56864012D01*
X97490414Y-56827874D01*
X97452247Y-56793482D01*
X97411939Y-56760917D01*
X97369496Y-56730259D01*
X97324923Y-56701589D01*
X97278223Y-56674988D01*
X97229401Y-56650538D01*
X97178461Y-56628318D01*
X97125408Y-56608409D01*
X97070247Y-56590893D01*
X97012982Y-56575850D01*
X96953617Y-56563360D01*
X96892157Y-56553506D01*
X96828606Y-56546367D01*
X96762968Y-56542024D01*
X96695249Y-56540559D01*
X96619614Y-56542385D01*
X96545733Y-56547794D01*
X96473649Y-56556676D01*
X96403403Y-56568923D01*
X96335039Y-56584427D01*
X96268599Y-56603080D01*
X96204124Y-56624775D01*
X96141658Y-56649402D01*
X96081244Y-56676853D01*
X96022922Y-56707021D01*
X95966737Y-56739798D01*
X95912730Y-56775075D01*
X95860944Y-56812743D01*
X95811420Y-56852696D01*
X95764203Y-56894825D01*
X95719334Y-56939021D01*
X95676855Y-56985177D01*
X95636809Y-57033184D01*
X95599239Y-57082935D01*
X95564187Y-57134321D01*
X95531695Y-57187234D01*
X95501805Y-57241565D01*
X95474561Y-57297208D01*
X95450005Y-57354053D01*
X95428178Y-57411993D01*
X95409124Y-57470919D01*
X95392885Y-57530723D01*
X95379504Y-57591298D01*
X95369022Y-57652534D01*
X95361482Y-57714324D01*
X95356927Y-57776560D01*
X95355400Y-57839134D01*
X95145849Y-57839134D01*
X95147350Y-57769528D01*
X95152227Y-57699913D01*
X95160445Y-57630434D01*
X95171969Y-57561236D01*
X95186764Y-57492466D01*
X95204795Y-57424268D01*
X95226027Y-57356789D01*
X95250426Y-57290173D01*
X95277957Y-57224566D01*
X95308584Y-57160114D01*
X95342273Y-57096963D01*
X95378989Y-57035257D01*
X95418697Y-56975143D01*
X95461362Y-56916765D01*
X95506950Y-56860270D01*
X95555424Y-56805803D01*
X95606752Y-56753510D01*
X95660897Y-56703536D01*
X95717825Y-56656026D01*
X95777501Y-56611126D01*
X95839890Y-56568982D01*
X95904957Y-56529739D01*
X95972667Y-56493543D01*
X96042985Y-56460539D01*
X96115877Y-56430873D01*
X96191308Y-56404690D01*
X96269242Y-56382136D01*
X96349646Y-56363356D01*
X96432483Y-56348496D01*
X96517719Y-56337702D01*
X96605319Y-56331119D01*
X96695249Y-56328892D01*
X96811479Y-56332640D01*
X96922071Y-56343647D01*
X97027071Y-56361555D01*
X97126520Y-56386009D01*
X97220463Y-56416651D01*
X97308942Y-56453126D01*
X97392002Y-56495077D01*
X97469685Y-56542146D01*
X97542035Y-56593978D01*
X97609095Y-56650216D01*
X97670910Y-56710503D01*
X97727521Y-56774483D01*
X97778973Y-56841800D01*
X97825309Y-56912096D01*
X97866573Y-56985015D01*
X97902808Y-57060200D01*
X97913031Y-57018994D01*
X97925229Y-56978736D01*
X97939370Y-56939449D01*
X97955424Y-56901157D01*
X97973364Y-56863883D01*
X97993158Y-56827652D01*
X98014777Y-56792486D01*
X98038191Y-56758410D01*
X98063372Y-56725447D01*
X98090288Y-56693621D01*
X98118911Y-56662955D01*
X98149211Y-56633473D01*
X98181158Y-56605199D01*
X98214723Y-56578156D01*
X98249875Y-56552368D01*
X98286586Y-56527859D01*
X98324825Y-56504652D01*
X98364563Y-56482770D01*
X98405771Y-56462239D01*
X98448418Y-56443080D01*
X98492475Y-56425319D01*
X98537912Y-56408978D01*
X98584700Y-56394080D01*
X98632809Y-56380651D01*
X98682210Y-56368713D01*
X98732872Y-56358290D01*
X98784767Y-56349406D01*
X98837864Y-56342084D01*
X98892133Y-56336348D01*
X98947546Y-56332222D01*
X99004072Y-56329728D01*
X99061682Y-56328892D01*
X99128132Y-56330082D01*
G37*
G36*
X96667809Y-57151926D02*
G01*
X96696611Y-57154028D01*
X96724502Y-57157483D01*
X96751482Y-57162249D01*
X96777547Y-57168287D01*
X96802694Y-57175557D01*
X96826923Y-57184019D01*
X96850229Y-57193633D01*
X96872612Y-57204358D01*
X96894069Y-57216155D01*
X96914596Y-57228983D01*
X96934193Y-57242802D01*
X96952857Y-57257572D01*
X96970585Y-57273254D01*
X96987375Y-57289806D01*
X97003225Y-57307189D01*
X97018132Y-57325362D01*
X97032094Y-57344287D01*
X97045109Y-57363921D01*
X97057175Y-57384226D01*
X97068288Y-57405161D01*
X97078448Y-57426686D01*
X97087651Y-57448761D01*
X97095895Y-57471346D01*
X97103178Y-57494401D01*
X97109497Y-57517885D01*
X97114851Y-57541759D01*
X97119236Y-57565982D01*
X97122651Y-57590515D01*
X97125093Y-57615317D01*
X97126560Y-57640347D01*
X97127050Y-57665567D01*
X97126355Y-57695978D01*
X97124287Y-57726253D01*
X97120864Y-57756340D01*
X97116109Y-57786182D01*
X97110041Y-57815726D01*
X97102681Y-57844916D01*
X97094051Y-57873700D01*
X97084170Y-57902022D01*
X97073061Y-57929827D01*
X97060742Y-57957062D01*
X97047236Y-57983672D01*
X97032562Y-58009602D01*
X97016742Y-58034798D01*
X96999797Y-58059205D01*
X96981746Y-58082770D01*
X96962611Y-58105437D01*
X96942413Y-58127152D01*
X96921171Y-58147861D01*
X96898908Y-58167509D01*
X96875644Y-58186041D01*
X96851399Y-58203405D01*
X96826194Y-58219544D01*
X96800050Y-58234404D01*
X96772987Y-58247931D01*
X96745027Y-58260071D01*
X96716191Y-58270769D01*
X96686498Y-58279970D01*
X96655969Y-58287621D01*
X96624626Y-58293666D01*
X96592489Y-58298051D01*
X96559579Y-58300723D01*
X96525916Y-58301625D01*
X96496198Y-58300915D01*
X96467369Y-58298813D01*
X96439435Y-58295357D01*
X96412398Y-58290587D01*
X96386261Y-58284543D01*
X96361029Y-58277264D01*
X96336704Y-58268790D01*
X96313290Y-58259160D01*
X96290792Y-58248413D01*
X96269211Y-58236590D01*
X96248552Y-58223730D01*
X96228818Y-58209873D01*
X96210013Y-58195057D01*
X96192140Y-58179323D01*
X96175202Y-58162709D01*
X96159204Y-58145256D01*
X96144148Y-58127004D01*
X96130038Y-58107991D01*
X96116878Y-58088256D01*
X96104671Y-58067841D01*
X96093420Y-58046784D01*
X96083129Y-58025124D01*
X96073802Y-58002902D01*
X96065442Y-57980157D01*
X96058052Y-57956927D01*
X96051637Y-57933254D01*
X96046198Y-57909176D01*
X96041741Y-57884733D01*
X96038268Y-57859964D01*
X96035783Y-57834910D01*
X96034290Y-57809608D01*
X96033791Y-57784100D01*
X96034495Y-57753699D01*
X96036590Y-57723449D01*
X96040055Y-57693406D01*
X96044869Y-57663622D01*
X96051008Y-57634150D01*
X96058453Y-57605044D01*
X96067179Y-57576357D01*
X96077166Y-57548142D01*
X96088392Y-57520452D01*
X96100835Y-57493342D01*
X96114473Y-57466863D01*
X96129283Y-57441070D01*
X96145245Y-57416016D01*
X96162336Y-57391753D01*
X96180534Y-57368336D01*
X96199817Y-57345818D01*
X96220164Y-57324251D01*
X96241553Y-57303690D01*
X96263961Y-57284187D01*
X96287368Y-57265796D01*
X96311750Y-57248570D01*
X96337086Y-57232562D01*
X96363354Y-57217826D01*
X96390532Y-57204415D01*
X96418599Y-57192382D01*
X96447532Y-57181780D01*
X96477310Y-57172663D01*
X96507910Y-57165085D01*
X96539311Y-57159098D01*
X96571491Y-57154755D01*
X96604428Y-57152110D01*
X96638100Y-57151217D01*
X96667809Y-57151926D01*
G37*
G36*
X95584000Y-62460875D02*
G01*
X95217816Y-62460875D01*
X95469700Y-61822700D01*
X95584000Y-62460875D01*
G37*
G36*
X98738520Y-59657627D02*
G01*
X98749506Y-59658448D01*
X98760203Y-59659801D01*
X98770606Y-59661672D01*
X98780711Y-59664048D01*
X98790513Y-59666915D01*
X98800007Y-59670259D01*
X98809188Y-59674068D01*
X98818051Y-59678329D01*
X98826591Y-59683027D01*
X98834804Y-59688149D01*
X98842685Y-59693683D01*
X98850228Y-59699614D01*
X98857429Y-59705929D01*
X98864283Y-59712616D01*
X98870786Y-59719659D01*
X98876932Y-59727047D01*
X98882717Y-59734766D01*
X98888135Y-59742802D01*
X98893183Y-59751143D01*
X98897854Y-59759774D01*
X98902145Y-59768682D01*
X98906049Y-59777854D01*
X98909564Y-59787277D01*
X98912683Y-59796937D01*
X98915402Y-59806821D01*
X98917716Y-59816915D01*
X98919620Y-59827206D01*
X98921110Y-59837681D01*
X98922179Y-59848327D01*
X98922825Y-59859129D01*
X98923041Y-59870075D01*
X98922829Y-59883206D01*
X98922004Y-59896195D01*
X98920578Y-59909024D01*
X98918564Y-59921675D01*
X98915975Y-59934130D01*
X98912823Y-59946371D01*
X98909122Y-59958379D01*
X98904884Y-59970137D01*
X98900122Y-59981627D01*
X98894849Y-59992831D01*
X98889077Y-60003731D01*
X98882820Y-60014308D01*
X98876090Y-60024545D01*
X98868900Y-60034424D01*
X98861263Y-60043926D01*
X98853191Y-60053035D01*
X98844698Y-60061730D01*
X98835795Y-60069996D01*
X98826497Y-60077812D01*
X98816815Y-60085163D01*
X98806763Y-60092029D01*
X98796353Y-60098392D01*
X98785598Y-60104235D01*
X98774511Y-60109540D01*
X98763104Y-60114287D01*
X98751391Y-60118461D01*
X98739384Y-60122041D01*
X98727097Y-60125012D01*
X98714541Y-60127353D01*
X98701729Y-60129048D01*
X98688675Y-60130078D01*
X98675391Y-60130425D01*
X98470075Y-60130425D01*
X98519817Y-59657350D01*
X98727250Y-59657350D01*
X98738520Y-59657627D01*
G37*
G36*
X100529452Y-59679045D02*
G01*
X100550859Y-59680610D01*
X100571588Y-59683181D01*
X100591636Y-59686729D01*
X100611002Y-59691223D01*
X100629684Y-59696634D01*
X100647682Y-59702931D01*
X100664992Y-59710085D01*
X100681614Y-59718065D01*
X100697546Y-59726841D01*
X100712787Y-59736383D01*
X100727334Y-59746661D01*
X100741187Y-59757646D01*
X100754344Y-59769307D01*
X100766804Y-59781614D01*
X100778564Y-59794537D01*
X100789624Y-59808045D01*
X100799981Y-59822110D01*
X100809634Y-59836701D01*
X100818582Y-59851788D01*
X100826824Y-59867340D01*
X100834356Y-59883329D01*
X100841179Y-59899723D01*
X100847290Y-59916493D01*
X100852688Y-59933609D01*
X100857371Y-59951040D01*
X100861338Y-59968757D01*
X100864587Y-59986729D01*
X100867117Y-60004928D01*
X100868926Y-60023321D01*
X100870012Y-60041880D01*
X100870375Y-60060575D01*
X100869859Y-60083255D01*
X100868324Y-60105827D01*
X100865783Y-60128251D01*
X100862253Y-60150486D01*
X100857749Y-60172492D01*
X100852285Y-60194230D01*
X100845878Y-60215658D01*
X100838542Y-60236738D01*
X100830293Y-60257428D01*
X100821146Y-60277690D01*
X100811117Y-60297482D01*
X100800220Y-60316764D01*
X100788472Y-60335497D01*
X100775887Y-60353640D01*
X100762481Y-60371153D01*
X100748269Y-60387997D01*
X100733266Y-60404130D01*
X100717488Y-60419514D01*
X100700950Y-60434107D01*
X100683667Y-60447869D01*
X100665655Y-60460761D01*
X100646929Y-60472743D01*
X100627503Y-60483774D01*
X100607395Y-60493814D01*
X100586618Y-60502823D01*
X100565188Y-60510761D01*
X100543121Y-60517588D01*
X100520432Y-60523263D01*
X100497135Y-60527747D01*
X100473247Y-60531000D01*
X100448783Y-60532981D01*
X100423757Y-60533650D01*
X100401666Y-60533122D01*
X100380241Y-60531556D01*
X100359484Y-60528984D01*
X100339397Y-60525434D01*
X100319983Y-60520935D01*
X100301244Y-60515519D01*
X100283183Y-60509213D01*
X100265801Y-60502049D01*
X100249102Y-60494055D01*
X100233087Y-60485262D01*
X100217759Y-60475698D01*
X100203120Y-60465394D01*
X100189172Y-60454379D01*
X100175919Y-60442683D01*
X100163361Y-60430335D01*
X100151502Y-60417366D01*
X100140343Y-60403804D01*
X100129887Y-60389680D01*
X100120137Y-60375023D01*
X100111095Y-60359862D01*
X100102762Y-60344228D01*
X100095142Y-60328150D01*
X100088237Y-60311658D01*
X100082049Y-60294781D01*
X100076580Y-60277549D01*
X100071832Y-60259991D01*
X100067809Y-60242138D01*
X100064512Y-60224019D01*
X100061943Y-60205664D01*
X100060106Y-60187101D01*
X100059002Y-60168362D01*
X100058633Y-60149475D01*
X100059154Y-60126894D01*
X100060708Y-60104421D01*
X100063277Y-60082096D01*
X100066845Y-60059959D01*
X100071398Y-60038050D01*
X100076918Y-60016409D01*
X100083390Y-59995075D01*
X100090796Y-59974089D01*
X100099123Y-59953491D01*
X100108352Y-59933320D01*
X100118469Y-59913617D01*
X100129457Y-59894421D01*
X100141299Y-59875772D01*
X100153981Y-59857710D01*
X100167486Y-59840276D01*
X100181797Y-59823508D01*
X100196899Y-59807448D01*
X100212775Y-59792134D01*
X100229410Y-59777607D01*
X100246787Y-59763907D01*
X100264891Y-59751073D01*
X100283705Y-59739146D01*
X100303213Y-59728165D01*
X100323399Y-59718171D01*
X100344247Y-59709203D01*
X100365740Y-59701301D01*
X100387864Y-59694506D01*
X100410601Y-59688856D01*
X100433936Y-59684392D01*
X100457853Y-59681155D01*
X100482335Y-59679183D01*
X100507366Y-59678517D01*
X100529452Y-59679045D01*
G37*
G36*
X97352589Y-61704455D02*
G01*
X97364044Y-61705313D01*
X97375191Y-61706725D01*
X97386027Y-61708677D01*
X97396546Y-61711154D01*
X97406745Y-61714143D01*
X97416618Y-61717628D01*
X97426161Y-61721596D01*
X97435369Y-61726032D01*
X97444237Y-61730922D01*
X97452762Y-61736252D01*
X97460937Y-61742006D01*
X97468759Y-61748172D01*
X97476223Y-61754734D01*
X97483324Y-61761678D01*
X97490058Y-61768990D01*
X97496419Y-61776655D01*
X97502404Y-61784659D01*
X97508008Y-61792989D01*
X97513225Y-61801628D01*
X97518052Y-61810564D01*
X97522484Y-61819782D01*
X97526515Y-61829267D01*
X97530142Y-61839005D01*
X97533360Y-61848982D01*
X97536163Y-61859183D01*
X97538548Y-61869594D01*
X97540510Y-61880201D01*
X97542044Y-61890990D01*
X97543146Y-61901945D01*
X97543810Y-61913053D01*
X97544033Y-61924300D01*
X97543715Y-61937924D01*
X97542772Y-61951399D01*
X97541216Y-61964707D01*
X97539059Y-61977828D01*
X97536315Y-61990746D01*
X97532996Y-62003439D01*
X97529115Y-62015891D01*
X97524685Y-62028083D01*
X97519718Y-62039995D01*
X97514228Y-62051610D01*
X97508227Y-62062909D01*
X97501728Y-62073872D01*
X97494744Y-62084482D01*
X97487287Y-62094721D01*
X97479371Y-62104568D01*
X97471008Y-62114006D01*
X97462210Y-62123016D01*
X97452992Y-62131580D01*
X97443365Y-62139679D01*
X97433342Y-62147294D01*
X97422936Y-62154407D01*
X97412160Y-62160999D01*
X97401027Y-62167051D01*
X97389549Y-62172545D01*
X97377740Y-62177463D01*
X97365611Y-62181785D01*
X97353176Y-62185493D01*
X97340448Y-62188569D01*
X97327439Y-62190994D01*
X97314163Y-62192749D01*
X97300631Y-62193815D01*
X97286858Y-62194175D01*
X97074133Y-62194175D01*
X97125991Y-61704166D01*
X97340833Y-61704166D01*
X97352589Y-61704455D01*
G37*
G36*
X94438511Y-59657627D02*
G01*
X94449497Y-59658448D01*
X94460194Y-59659801D01*
X94470598Y-59661672D01*
X94480703Y-59664048D01*
X94490505Y-59666915D01*
X94499999Y-59670259D01*
X94509179Y-59674068D01*
X94518042Y-59678329D01*
X94526583Y-59683027D01*
X94534796Y-59688149D01*
X94542676Y-59693683D01*
X94550219Y-59699614D01*
X94557421Y-59705929D01*
X94564275Y-59712616D01*
X94570778Y-59719659D01*
X94576924Y-59727047D01*
X94582709Y-59734766D01*
X94588127Y-59742802D01*
X94593174Y-59751143D01*
X94597846Y-59759774D01*
X94602136Y-59768682D01*
X94606041Y-59777854D01*
X94609556Y-59787277D01*
X94612675Y-59796937D01*
X94615394Y-59806821D01*
X94617708Y-59816915D01*
X94619612Y-59827206D01*
X94621102Y-59837681D01*
X94622171Y-59848327D01*
X94622817Y-59859129D01*
X94623033Y-59870075D01*
X94622728Y-59883206D01*
X94621821Y-59896195D01*
X94620325Y-59909024D01*
X94618252Y-59921675D01*
X94615613Y-59934130D01*
X94612422Y-59946371D01*
X94608690Y-59958379D01*
X94604429Y-59970137D01*
X94599653Y-59981627D01*
X94594372Y-59992831D01*
X94588599Y-60003731D01*
X94582347Y-60014308D01*
X94575627Y-60024545D01*
X94568453Y-60034424D01*
X94560835Y-60043926D01*
X94552786Y-60053035D01*
X94544319Y-60061730D01*
X94535445Y-60069996D01*
X94526178Y-60077812D01*
X94516528Y-60085163D01*
X94506508Y-60092029D01*
X94496131Y-60098392D01*
X94485409Y-60104235D01*
X94474354Y-60109540D01*
X94462977Y-60114287D01*
X94451292Y-60118461D01*
X94439311Y-60122041D01*
X94427045Y-60125012D01*
X94414507Y-60127353D01*
X94401709Y-60129048D01*
X94388664Y-60130078D01*
X94375383Y-60130425D01*
X94170066Y-60130425D01*
X94219808Y-59657350D01*
X94427241Y-59657350D01*
X94438511Y-59657627D01*
G37*
D11*
G36*
X79792770Y-37395722D02*
G01*
X80232407Y-37395722D01*
X79753691Y-38190000D01*
X80578255Y-38190000D01*
X80578255Y-37999734D01*
X80113461Y-37999734D01*
X80593642Y-37205212D01*
X79792770Y-37205212D01*
X79792770Y-37395722D01*
G37*
G36*
X81039630Y-37523217D02*
G01*
X80868904Y-37205212D01*
X80619532Y-37205212D01*
X80910914Y-37697850D01*
X80619532Y-38190000D01*
X80868904Y-38190000D01*
X81039630Y-37873705D01*
X81210600Y-38190000D01*
X81461193Y-38190000D01*
X81169811Y-37697850D01*
X81461193Y-37205212D01*
X81210600Y-37205212D01*
X81039630Y-37523217D01*
G37*
G36*
X81859064Y-37871018D02*
G01*
X81859529Y-37891771D01*
X81860910Y-37911941D01*
X81863186Y-37931523D01*
X81866338Y-37950512D01*
X81870346Y-37968903D01*
X81875190Y-37986691D01*
X81880850Y-38003871D01*
X81887305Y-38020438D01*
X81894536Y-38036387D01*
X81902522Y-38051713D01*
X81911245Y-38066411D01*
X81920682Y-38080477D01*
X81930816Y-38093905D01*
X81941624Y-38106690D01*
X81953088Y-38118828D01*
X81965188Y-38130313D01*
X81977903Y-38141140D01*
X81991213Y-38151305D01*
X82005099Y-38160802D01*
X82019540Y-38169627D01*
X82034516Y-38177774D01*
X82050007Y-38185239D01*
X82065993Y-38192016D01*
X82082455Y-38198101D01*
X82099372Y-38203489D01*
X82116723Y-38208175D01*
X82134490Y-38212153D01*
X82152652Y-38215419D01*
X82171189Y-38217968D01*
X82190080Y-38219795D01*
X82209307Y-38220895D01*
X82228848Y-38221263D01*
X82248857Y-38220936D01*
X82268482Y-38219957D01*
X82287706Y-38218331D01*
X82306513Y-38216061D01*
X82324887Y-38213152D01*
X82342810Y-38209608D01*
X82360267Y-38205432D01*
X82377241Y-38200628D01*
X82393715Y-38195201D01*
X82409674Y-38189154D01*
X82425100Y-38182491D01*
X82439977Y-38175217D01*
X82454289Y-38167335D01*
X82468019Y-38158849D01*
X82481151Y-38149764D01*
X82493668Y-38140082D01*
X82505555Y-38129809D01*
X82516793Y-38118949D01*
X82527368Y-38107504D01*
X82537262Y-38095480D01*
X82546459Y-38082880D01*
X82554943Y-38069708D01*
X82562697Y-38055968D01*
X82569704Y-38041664D01*
X82575949Y-38026800D01*
X82581415Y-38011381D01*
X82586084Y-37995409D01*
X82589942Y-37978889D01*
X82592971Y-37961826D01*
X82595155Y-37944222D01*
X82596478Y-37926082D01*
X82596922Y-37907411D01*
X82596391Y-37889383D01*
X82594823Y-37872106D01*
X82592255Y-37855557D01*
X82588726Y-37839712D01*
X82584273Y-37824550D01*
X82578934Y-37810047D01*
X82572746Y-37796182D01*
X82565747Y-37782931D01*
X82557975Y-37770271D01*
X82549467Y-37758181D01*
X82540262Y-37746637D01*
X82530397Y-37735617D01*
X82519909Y-37725098D01*
X82508837Y-37715058D01*
X82497218Y-37705474D01*
X82485089Y-37696324D01*
X82472489Y-37687584D01*
X82459455Y-37679232D01*
X82446025Y-37671245D01*
X82432237Y-37663602D01*
X82418128Y-37656278D01*
X82403736Y-37649253D01*
X82389098Y-37642502D01*
X82374253Y-37636003D01*
X82359238Y-37629734D01*
X82344090Y-37623673D01*
X82328848Y-37617795D01*
X82313549Y-37612080D01*
X82298231Y-37606504D01*
X82282932Y-37601044D01*
X82267689Y-37595678D01*
X82252540Y-37590383D01*
X82237363Y-37584816D01*
X82222824Y-37579082D01*
X82208969Y-37573145D01*
X82195845Y-37566970D01*
X82183499Y-37560522D01*
X82171980Y-37553765D01*
X82161333Y-37546664D01*
X82151606Y-37539184D01*
X82142847Y-37531288D01*
X82135103Y-37522942D01*
X82128420Y-37514110D01*
X82122847Y-37504757D01*
X82118430Y-37494847D01*
X82115216Y-37484345D01*
X82113253Y-37473216D01*
X82112588Y-37461423D01*
X82113216Y-37449221D01*
X82115055Y-37437805D01*
X82118040Y-37427172D01*
X82122106Y-37417326D01*
X82127189Y-37408265D01*
X82133222Y-37399990D01*
X82140142Y-37392501D01*
X82147882Y-37385799D01*
X82156377Y-37379885D01*
X82165563Y-37374757D01*
X82175375Y-37370418D01*
X82185747Y-37366867D01*
X82196614Y-37364104D01*
X82207911Y-37362130D01*
X82219573Y-37360946D01*
X82231535Y-37360551D01*
X82245824Y-37361184D01*
X82259282Y-37363061D01*
X82271896Y-37366150D01*
X82283654Y-37370420D01*
X82294543Y-37375837D01*
X82304551Y-37382370D01*
X82313666Y-37389986D01*
X82321874Y-37398653D01*
X82329163Y-37408339D01*
X82335522Y-37419012D01*
X82340936Y-37430639D01*
X82345394Y-37443189D01*
X82348883Y-37456629D01*
X82351391Y-37470927D01*
X82352905Y-37486050D01*
X82353412Y-37501967D01*
X82580314Y-37501967D01*
X82579973Y-37486416D01*
X82578951Y-37471009D01*
X82577248Y-37455769D01*
X82574864Y-37440720D01*
X82571798Y-37425884D01*
X82568052Y-37411284D01*
X82563624Y-37396943D01*
X82558515Y-37382884D01*
X82552725Y-37369130D01*
X82546253Y-37355703D01*
X82539100Y-37342627D01*
X82531267Y-37329925D01*
X82522751Y-37317619D01*
X82513555Y-37305733D01*
X82503678Y-37294288D01*
X82493119Y-37283309D01*
X82481879Y-37272818D01*
X82469958Y-37262837D01*
X82457355Y-37253391D01*
X82444072Y-37244501D01*
X82430107Y-37236191D01*
X82415461Y-37228483D01*
X82400134Y-37221401D01*
X82384125Y-37214967D01*
X82367436Y-37209204D01*
X82350065Y-37204135D01*
X82332013Y-37199783D01*
X82313280Y-37196172D01*
X82293865Y-37193322D01*
X82273770Y-37191259D01*
X82252993Y-37190004D01*
X82231535Y-37189581D01*
X82214774Y-37189860D01*
X82198124Y-37190695D01*
X82181612Y-37192084D01*
X82165266Y-37194027D01*
X82149113Y-37196520D01*
X82133182Y-37199563D01*
X82117500Y-37203153D01*
X82102094Y-37207288D01*
X82086992Y-37211968D01*
X82072222Y-37217189D01*
X82057811Y-37222951D01*
X82043787Y-37229251D01*
X82030178Y-37236088D01*
X82017012Y-37243460D01*
X82004315Y-37251365D01*
X81992116Y-37259801D01*
X81980442Y-37268766D01*
X81969321Y-37278260D01*
X81958780Y-37288279D01*
X81948847Y-37298822D01*
X81939551Y-37309888D01*
X81930917Y-37321474D01*
X81922975Y-37333579D01*
X81915752Y-37346202D01*
X81909274Y-37359339D01*
X81903571Y-37372990D01*
X81898669Y-37387152D01*
X81894597Y-37401824D01*
X81891381Y-37417004D01*
X81889050Y-37432691D01*
X81887631Y-37448882D01*
X81887152Y-37465575D01*
X81887592Y-37483827D01*
X81888894Y-37501278D01*
X81891038Y-37517955D01*
X81894002Y-37533885D01*
X81897762Y-37549097D01*
X81902296Y-37563617D01*
X81907583Y-37577473D01*
X81913599Y-37590692D01*
X81920324Y-37603302D01*
X81927733Y-37615330D01*
X81935806Y-37626804D01*
X81944520Y-37637751D01*
X81953852Y-37648198D01*
X81963781Y-37658172D01*
X81974283Y-37667702D01*
X81985338Y-37676815D01*
X81996922Y-37685537D01*
X82009013Y-37693897D01*
X82021589Y-37701922D01*
X82034628Y-37709639D01*
X82048108Y-37717076D01*
X82062005Y-37724260D01*
X82076298Y-37731218D01*
X82090965Y-37737978D01*
X82105984Y-37744568D01*
X82121331Y-37751015D01*
X82136985Y-37757345D01*
X82152924Y-37763587D01*
X82169125Y-37769768D01*
X82185566Y-37775916D01*
X82202224Y-37782057D01*
X82219078Y-37788220D01*
X82234837Y-37794213D01*
X82250101Y-37800159D01*
X82264796Y-37806143D01*
X82278853Y-37812247D01*
X82292198Y-37818558D01*
X82304760Y-37825160D01*
X82316467Y-37832136D01*
X82327247Y-37839572D01*
X82337029Y-37847552D01*
X82345739Y-37856160D01*
X82353306Y-37865480D01*
X82359659Y-37875598D01*
X82364726Y-37886597D01*
X82368433Y-37898562D01*
X82370711Y-37911578D01*
X82371486Y-37925729D01*
X82370840Y-37938331D01*
X82368940Y-37950377D01*
X82365844Y-37961831D01*
X82361609Y-37972658D01*
X82356292Y-37982822D01*
X82349951Y-37992288D01*
X82342641Y-38001021D01*
X82334422Y-38008985D01*
X82325350Y-38016145D01*
X82315482Y-38022465D01*
X82304875Y-38027909D01*
X82293588Y-38032444D01*
X82281676Y-38036032D01*
X82269198Y-38038639D01*
X82256210Y-38040229D01*
X82242770Y-38040767D01*
X82225794Y-38040033D01*
X82209525Y-38037851D01*
X82194016Y-38034250D01*
X82179320Y-38029257D01*
X82165492Y-38022902D01*
X82152584Y-38015213D01*
X82140651Y-38006219D01*
X82129747Y-37995949D01*
X82119924Y-37984430D01*
X82111237Y-37971692D01*
X82103739Y-37957764D01*
X82097484Y-37942673D01*
X82092525Y-37926449D01*
X82088917Y-37909120D01*
X82086713Y-37890715D01*
X82085966Y-37871263D01*
X81859064Y-37871018D01*
G37*
G36*
X83184545Y-37502656D02*
G01*
X83202230Y-37503974D01*
X83219537Y-37506149D01*
X83236452Y-37509159D01*
X83252962Y-37512985D01*
X83269052Y-37517608D01*
X83284710Y-37523008D01*
X83299922Y-37529166D01*
X83314673Y-37536062D01*
X83328951Y-37543677D01*
X83342741Y-37551990D01*
X83356030Y-37560983D01*
X83368804Y-37570636D01*
X83381050Y-37580929D01*
X83392753Y-37591843D01*
X83403900Y-37603359D01*
X83414478Y-37615456D01*
X83424473Y-37628115D01*
X83433871Y-37641317D01*
X83442658Y-37655042D01*
X83450820Y-37669271D01*
X83458345Y-37683984D01*
X83465218Y-37699161D01*
X83471426Y-37714783D01*
X83476955Y-37730831D01*
X83481790Y-37747284D01*
X83485920Y-37764124D01*
X83489329Y-37781330D01*
X83492005Y-37798884D01*
X83493933Y-37816765D01*
X83495099Y-37834955D01*
X83495491Y-37853433D01*
X83495099Y-37872021D01*
X83493933Y-37890313D01*
X83492005Y-37908288D01*
X83489329Y-37925928D01*
X83485920Y-37943214D01*
X83481790Y-37960125D01*
X83476955Y-37976644D01*
X83471426Y-37992751D01*
X83465218Y-38008425D01*
X83458345Y-38023650D01*
X83450820Y-38038404D01*
X83442658Y-38052669D01*
X83433871Y-38066426D01*
X83424473Y-38079655D01*
X83414478Y-38092337D01*
X83403900Y-38104453D01*
X83392753Y-38115984D01*
X83381050Y-38126911D01*
X83368804Y-38137213D01*
X83356030Y-38146873D01*
X83342741Y-38155870D01*
X83328951Y-38164185D01*
X83314673Y-38171801D01*
X83299922Y-38178696D01*
X83284710Y-38184852D01*
X83269052Y-38190249D01*
X83252962Y-38194869D01*
X83236452Y-38198692D01*
X83219537Y-38201699D01*
X83202230Y-38203871D01*
X83184545Y-38205188D01*
X83166496Y-38205631D01*
X83149951Y-38205035D01*
X83133524Y-38203286D01*
X83117290Y-38200447D01*
X83101329Y-38196579D01*
X83085717Y-38191743D01*
X83070532Y-38186002D01*
X83055850Y-38179416D01*
X83041749Y-38172048D01*
X83028307Y-38163958D01*
X83015600Y-38155208D01*
X83003706Y-38145860D01*
X82992702Y-38135976D01*
X82982666Y-38125616D01*
X82973674Y-38114843D01*
X82965805Y-38103718D01*
X82959134Y-38092302D01*
X82959134Y-38502630D01*
X82744933Y-38502630D01*
X82744933Y-37853433D01*
X82959134Y-37853433D01*
X82959882Y-37870640D01*
X82962096Y-37887395D01*
X82965730Y-37903608D01*
X82970740Y-37919188D01*
X82977078Y-37934043D01*
X82984701Y-37948084D01*
X82993562Y-37961218D01*
X83003617Y-37973356D01*
X83014819Y-37984406D01*
X83027124Y-37994278D01*
X83040485Y-38002880D01*
X83054858Y-38010122D01*
X83070197Y-38015913D01*
X83086457Y-38020162D01*
X83103591Y-38022778D01*
X83121556Y-38023670D01*
X83139047Y-38022778D01*
X83155768Y-38020162D01*
X83171669Y-38015913D01*
X83186700Y-38010122D01*
X83200812Y-38002880D01*
X83213957Y-37994278D01*
X83226084Y-37984406D01*
X83237144Y-37973356D01*
X83247087Y-37961218D01*
X83255865Y-37948084D01*
X83263428Y-37934043D01*
X83269727Y-37919188D01*
X83274712Y-37903608D01*
X83278334Y-37887395D01*
X83280543Y-37870640D01*
X83281290Y-37853433D01*
X83280543Y-37836226D01*
X83278334Y-37819471D01*
X83274712Y-37803258D01*
X83269727Y-37787678D01*
X83263428Y-37772823D01*
X83255865Y-37758782D01*
X83247087Y-37745647D01*
X83237144Y-37733510D01*
X83226084Y-37722459D01*
X83213957Y-37712588D01*
X83200812Y-37703985D01*
X83186700Y-37696743D01*
X83171669Y-37690953D01*
X83155768Y-37686704D01*
X83139047Y-37684088D01*
X83121556Y-37683196D01*
X83103591Y-37684088D01*
X83086457Y-37686704D01*
X83070197Y-37690953D01*
X83054858Y-37696743D01*
X83040485Y-37703985D01*
X83027124Y-37712588D01*
X83014819Y-37722459D01*
X83003617Y-37733510D01*
X82993562Y-37745647D01*
X82984701Y-37758782D01*
X82977078Y-37772823D01*
X82970740Y-37787678D01*
X82965730Y-37803258D01*
X82962096Y-37819471D01*
X82959882Y-37836226D01*
X82959134Y-37853433D01*
X82744933Y-37853433D01*
X82744933Y-37517843D01*
X82959134Y-37517843D01*
X82959134Y-37615785D01*
X82965805Y-37604366D01*
X82973674Y-37593233D01*
X82982666Y-37582448D01*
X82992702Y-37572073D01*
X83003706Y-37562170D01*
X83015600Y-37552801D01*
X83028307Y-37544030D01*
X83041749Y-37535917D01*
X83055850Y-37528526D01*
X83070532Y-37521918D01*
X83085717Y-37516156D01*
X83101329Y-37511302D01*
X83117290Y-37507418D01*
X83133524Y-37504567D01*
X83149951Y-37502811D01*
X83166496Y-37502212D01*
X83184545Y-37502656D01*
G37*
G36*
X83970589Y-37502626D02*
G01*
X83989721Y-37503856D01*
X84008390Y-37505877D01*
X84026586Y-37508668D01*
X84044295Y-37512206D01*
X84061509Y-37516468D01*
X84078215Y-37521432D01*
X84094402Y-37527075D01*
X84110059Y-37533374D01*
X84125175Y-37540308D01*
X84139739Y-37547852D01*
X84153740Y-37555986D01*
X84167166Y-37564685D01*
X84180007Y-37573928D01*
X84192251Y-37583693D01*
X84203887Y-37593955D01*
X84214905Y-37604694D01*
X84225292Y-37615886D01*
X84235038Y-37627508D01*
X84244132Y-37639539D01*
X84252562Y-37651955D01*
X84260317Y-37664734D01*
X84267387Y-37677853D01*
X84273760Y-37691290D01*
X84279425Y-37705022D01*
X84284370Y-37719027D01*
X84288586Y-37733282D01*
X84292059Y-37747764D01*
X84294781Y-37762451D01*
X84296738Y-37777320D01*
X84297921Y-37792349D01*
X84298318Y-37807515D01*
X84298304Y-37818188D01*
X84298207Y-37829196D01*
X84297944Y-37840621D01*
X84297432Y-37852547D01*
X84296588Y-37865058D01*
X84295688Y-37874874D01*
X84294519Y-37885100D01*
X84293046Y-37895771D01*
X84291235Y-37906922D01*
X83805436Y-37906922D01*
X83806572Y-37921469D01*
X83808473Y-37935655D01*
X83811209Y-37949402D01*
X83814850Y-37962628D01*
X83819470Y-37975255D01*
X83825138Y-37987203D01*
X83831926Y-37998391D01*
X83839904Y-38008741D01*
X83849146Y-38018171D01*
X83859720Y-38026603D01*
X83871699Y-38033957D01*
X83885154Y-38040153D01*
X83900156Y-38045110D01*
X83916777Y-38048750D01*
X83935086Y-38050993D01*
X83944897Y-38051565D01*
X83955157Y-38051758D01*
X83962007Y-38051664D01*
X83975054Y-38050918D01*
X83987247Y-38049457D01*
X83998609Y-38047310D01*
X84009163Y-38044506D01*
X84018931Y-38041076D01*
X84032159Y-38034823D01*
X84043746Y-38027330D01*
X84053767Y-38018699D01*
X84062299Y-38009032D01*
X84069418Y-37998428D01*
X84075200Y-37986991D01*
X84079720Y-37974822D01*
X84289769Y-37974822D01*
X84287643Y-37986679D01*
X84284930Y-37998384D01*
X84281637Y-38009920D01*
X84277768Y-38021274D01*
X84273329Y-38032430D01*
X84268325Y-38043375D01*
X84262760Y-38054093D01*
X84256640Y-38064569D01*
X84249970Y-38074790D01*
X84242756Y-38084741D01*
X84235002Y-38094406D01*
X84226713Y-38103772D01*
X84217895Y-38112823D01*
X84208553Y-38121546D01*
X84198692Y-38129925D01*
X84188317Y-38137945D01*
X84177433Y-38145593D01*
X84166046Y-38152854D01*
X84154160Y-38159712D01*
X84141780Y-38166154D01*
X84128913Y-38172164D01*
X84115563Y-38177729D01*
X84101734Y-38182833D01*
X84087433Y-38187462D01*
X84072664Y-38191601D01*
X84057433Y-38195235D01*
X84041745Y-38198351D01*
X84025604Y-38200933D01*
X84009016Y-38202966D01*
X83991986Y-38204437D01*
X83974520Y-38205330D01*
X83956622Y-38205631D01*
X83934754Y-38205204D01*
X83913530Y-38203933D01*
X83892952Y-38201835D01*
X83873024Y-38198926D01*
X83853748Y-38195223D01*
X83835130Y-38190742D01*
X83817171Y-38185499D01*
X83799875Y-38179512D01*
X83783246Y-38172797D01*
X83767287Y-38165369D01*
X83752001Y-38157246D01*
X83737392Y-38148444D01*
X83723462Y-38138979D01*
X83710216Y-38128868D01*
X83697657Y-38118128D01*
X83685787Y-38106774D01*
X83674611Y-38094823D01*
X83664132Y-38082292D01*
X83654353Y-38069197D01*
X83645277Y-38055555D01*
X83636908Y-38041382D01*
X83629249Y-38026695D01*
X83622303Y-38011509D01*
X83616075Y-37995842D01*
X83610567Y-37979709D01*
X83605782Y-37963128D01*
X83601724Y-37946115D01*
X83598396Y-37928686D01*
X83595802Y-37910858D01*
X83593945Y-37892647D01*
X83592829Y-37874070D01*
X83592456Y-37855143D01*
X83592821Y-37836982D01*
X83593915Y-37819059D01*
X83595734Y-37801398D01*
X83598275Y-37784018D01*
X83598359Y-37783579D01*
X83805436Y-37783579D01*
X84088269Y-37783579D01*
X84087604Y-37768017D01*
X84085644Y-37753226D01*
X84082436Y-37739237D01*
X84078030Y-37726083D01*
X84072474Y-37713797D01*
X84065819Y-37702410D01*
X84058112Y-37691954D01*
X84049404Y-37682463D01*
X84039742Y-37673967D01*
X84029176Y-37666500D01*
X84017755Y-37660094D01*
X84005528Y-37654779D01*
X83992544Y-37650590D01*
X83978851Y-37647558D01*
X83964500Y-37645715D01*
X83949539Y-37645094D01*
X83934075Y-37645670D01*
X83919224Y-37647388D01*
X83905041Y-37650234D01*
X83891577Y-37654196D01*
X83878886Y-37659257D01*
X83867021Y-37665405D01*
X83856035Y-37672626D01*
X83845980Y-37680906D01*
X83836910Y-37690230D01*
X83828877Y-37700585D01*
X83821935Y-37711957D01*
X83816137Y-37724331D01*
X83811534Y-37737695D01*
X83808181Y-37752033D01*
X83806131Y-37767333D01*
X83805436Y-37783579D01*
X83598359Y-37783579D01*
X83601537Y-37766944D01*
X83605515Y-37750196D01*
X83610206Y-37733798D01*
X83615609Y-37717771D01*
X83621720Y-37702138D01*
X83628536Y-37686920D01*
X83636055Y-37672141D01*
X83644272Y-37657821D01*
X83653186Y-37643984D01*
X83662794Y-37630651D01*
X83673092Y-37617845D01*
X83684077Y-37605587D01*
X83695748Y-37593901D01*
X83708101Y-37582808D01*
X83721132Y-37572330D01*
X83734839Y-37562490D01*
X83749220Y-37553310D01*
X83764271Y-37544811D01*
X83779989Y-37537017D01*
X83796372Y-37529948D01*
X83813416Y-37523629D01*
X83831119Y-37518080D01*
X83849478Y-37513324D01*
X83868489Y-37509382D01*
X83888150Y-37506279D01*
X83908458Y-37504034D01*
X83929411Y-37502671D01*
X83951004Y-37502212D01*
X83970589Y-37502626D01*
G37*
G36*
X85109448Y-37782114D02*
G01*
X85107849Y-37768761D01*
X85105706Y-37755465D01*
X85103011Y-37742247D01*
X85099761Y-37729134D01*
X85095949Y-37716149D01*
X85091570Y-37703316D01*
X85086619Y-37690660D01*
X85081089Y-37678204D01*
X85074976Y-37665973D01*
X85068274Y-37653990D01*
X85060978Y-37642281D01*
X85053081Y-37630868D01*
X85044579Y-37619777D01*
X85035466Y-37609032D01*
X85025736Y-37598656D01*
X85015384Y-37588674D01*
X85004405Y-37579109D01*
X84992792Y-37569987D01*
X84980542Y-37561331D01*
X84967647Y-37553165D01*
X84954102Y-37545514D01*
X84939903Y-37538401D01*
X84925042Y-37531851D01*
X84909516Y-37525888D01*
X84893319Y-37520536D01*
X84876444Y-37515819D01*
X84858887Y-37511762D01*
X84840641Y-37508388D01*
X84821702Y-37505722D01*
X84802064Y-37503788D01*
X84781722Y-37502610D01*
X84760669Y-37502212D01*
X84738828Y-37502703D01*
X84717637Y-37504159D01*
X84697098Y-37506551D01*
X84677215Y-37509849D01*
X84657990Y-37514024D01*
X84639426Y-37519047D01*
X84621526Y-37524891D01*
X84604293Y-37531525D01*
X84587730Y-37538920D01*
X84571839Y-37547049D01*
X84556624Y-37555881D01*
X84542087Y-37565388D01*
X84528232Y-37575541D01*
X84515060Y-37586311D01*
X84502576Y-37597670D01*
X84490781Y-37609587D01*
X84479679Y-37622035D01*
X84469272Y-37634983D01*
X84459564Y-37648405D01*
X84450557Y-37662269D01*
X84442255Y-37676549D01*
X84434659Y-37691213D01*
X84427773Y-37706235D01*
X84421599Y-37721584D01*
X84416142Y-37737231D01*
X84411402Y-37753149D01*
X84407384Y-37769307D01*
X84404090Y-37785678D01*
X84401523Y-37802231D01*
X84399686Y-37818939D01*
X84398582Y-37835771D01*
X84398213Y-37852700D01*
X84398582Y-37870001D01*
X84399686Y-37887173D01*
X84401523Y-37904188D01*
X84404090Y-37921019D01*
X84407384Y-37937639D01*
X84411402Y-37954018D01*
X84416142Y-37970131D01*
X84421599Y-37985950D01*
X84427773Y-38001446D01*
X84434659Y-38016593D01*
X84442255Y-38031363D01*
X84450557Y-38045728D01*
X84459564Y-38059661D01*
X84469272Y-38073135D01*
X84479679Y-38086121D01*
X84490781Y-38098592D01*
X84502576Y-38110520D01*
X84515060Y-38121879D01*
X84528232Y-38132640D01*
X84542087Y-38142777D01*
X84556624Y-38152260D01*
X84571839Y-38161064D01*
X84587730Y-38169160D01*
X84604293Y-38176520D01*
X84621526Y-38183118D01*
X84639426Y-38188926D01*
X84657990Y-38193915D01*
X84677215Y-38198060D01*
X84697098Y-38201331D01*
X84717637Y-38203701D01*
X84738828Y-38205144D01*
X84760669Y-38205631D01*
X84780460Y-38205285D01*
X84799669Y-38204258D01*
X84818297Y-38202565D01*
X84836346Y-38200222D01*
X84853817Y-38197244D01*
X84870710Y-38193648D01*
X84887027Y-38189448D01*
X84902769Y-38184661D01*
X84917937Y-38179301D01*
X84932531Y-38173385D01*
X84946553Y-38166928D01*
X84960005Y-38159946D01*
X84972885Y-38152454D01*
X84985197Y-38144468D01*
X84996941Y-38136004D01*
X85008118Y-38127076D01*
X85018729Y-38117702D01*
X85028775Y-38107896D01*
X85038256Y-38097674D01*
X85047175Y-38087052D01*
X85055532Y-38076044D01*
X85063329Y-38064668D01*
X85070565Y-38052938D01*
X85077242Y-38040870D01*
X85083362Y-38028480D01*
X85088925Y-38015783D01*
X85093933Y-38002795D01*
X85098385Y-37989531D01*
X85102284Y-37976007D01*
X85105631Y-37962239D01*
X85108425Y-37948243D01*
X85110669Y-37934033D01*
X84896468Y-37934033D01*
X84892890Y-37944619D01*
X84888909Y-37954574D01*
X84884489Y-37963891D01*
X84879593Y-37972562D01*
X84871276Y-37984343D01*
X84861684Y-37994632D01*
X84850693Y-38003404D01*
X84838179Y-38010636D01*
X84828930Y-38014589D01*
X84818914Y-38017839D01*
X84808093Y-38020379D01*
X84796431Y-38022203D01*
X84783892Y-38023302D01*
X84770439Y-38023670D01*
X84760144Y-38023444D01*
X84750230Y-38022773D01*
X84731532Y-38020143D01*
X84714317Y-38015875D01*
X84698555Y-38010061D01*
X84684220Y-38002797D01*
X84671280Y-37994175D01*
X84659709Y-37984289D01*
X84649478Y-37973234D01*
X84640557Y-37961102D01*
X84632919Y-37947988D01*
X84626534Y-37933985D01*
X84621375Y-37919188D01*
X84617411Y-37903689D01*
X84614616Y-37887582D01*
X84612960Y-37870962D01*
X84612414Y-37853921D01*
X84612974Y-37837165D01*
X84614660Y-37820762D01*
X84617482Y-37804812D01*
X84621451Y-37789415D01*
X84626576Y-37774672D01*
X84632867Y-37760683D01*
X84640335Y-37747550D01*
X84648989Y-37735372D01*
X84658840Y-37724250D01*
X84669897Y-37714286D01*
X84682170Y-37705578D01*
X84695670Y-37698228D01*
X84710407Y-37692336D01*
X84726390Y-37688004D01*
X84743629Y-37685330D01*
X84762135Y-37684417D01*
X84777865Y-37684887D01*
X84792468Y-37686276D01*
X84805975Y-37688555D01*
X84818414Y-37691691D01*
X84829815Y-37695654D01*
X84840209Y-37700414D01*
X84849625Y-37705939D01*
X84858092Y-37712199D01*
X84865640Y-37719164D01*
X84872299Y-37726802D01*
X84878099Y-37735082D01*
X84883069Y-37743974D01*
X84887240Y-37753447D01*
X84890640Y-37763470D01*
X84893299Y-37774013D01*
X84895247Y-37785045D01*
X85109448Y-37782114D01*
G37*
G36*
X85669497Y-38030753D02*
G01*
X85659476Y-38031922D01*
X85648192Y-38032907D01*
X85635991Y-38033701D01*
X85625803Y-38034196D01*
X85615427Y-38034563D01*
X85605042Y-38034799D01*
X85594824Y-38034901D01*
X85592316Y-38034905D01*
X85582505Y-38034708D01*
X85568490Y-38033515D01*
X85555428Y-38030940D01*
X85543441Y-38026643D01*
X85532653Y-38020281D01*
X85523187Y-38011514D01*
X85515165Y-37999998D01*
X85510681Y-37990626D01*
X85506931Y-37979779D01*
X85503950Y-37967356D01*
X85501776Y-37953257D01*
X85500444Y-37937380D01*
X85499993Y-37919623D01*
X85499993Y-37677578D01*
X85654110Y-37677578D01*
X85654110Y-37517843D01*
X85499993Y-37517843D01*
X85499993Y-37314633D01*
X85287257Y-37314633D01*
X85287257Y-37517843D01*
X85180767Y-37517843D01*
X85180767Y-37677578D01*
X85287257Y-37677578D01*
X85287257Y-37967494D01*
X85287657Y-37988033D01*
X85288837Y-38007360D01*
X85290763Y-38025510D01*
X85293405Y-38042522D01*
X85296728Y-38058431D01*
X85300702Y-38073274D01*
X85305294Y-38087089D01*
X85310472Y-38099912D01*
X85316203Y-38111780D01*
X85322455Y-38122729D01*
X85329196Y-38132796D01*
X85336394Y-38142018D01*
X85344017Y-38150432D01*
X85352032Y-38158075D01*
X85360406Y-38164983D01*
X85369109Y-38171193D01*
X85378107Y-38176742D01*
X85387368Y-38181666D01*
X85396861Y-38186003D01*
X85406552Y-38189789D01*
X85416410Y-38193060D01*
X85426402Y-38195855D01*
X85436496Y-38198209D01*
X85446660Y-38200158D01*
X85456861Y-38201741D01*
X85467068Y-38202994D01*
X85477248Y-38203953D01*
X85487369Y-38204655D01*
X85497398Y-38205137D01*
X85507304Y-38205436D01*
X85526615Y-38205631D01*
X85538250Y-38205569D01*
X85549524Y-38205389D01*
X85560438Y-38205098D01*
X85570991Y-38204704D01*
X85581183Y-38204213D01*
X85591015Y-38203635D01*
X85605086Y-38202617D01*
X85618346Y-38201443D01*
X85630795Y-38200138D01*
X85642432Y-38198727D01*
X85653258Y-38197236D01*
X85663272Y-38195689D01*
X85669497Y-38194640D01*
X85669497Y-38030753D01*
G37*
G36*
X86267892Y-37517843D02*
G01*
X86258705Y-37512579D01*
X86249533Y-37508590D01*
X86240142Y-37505719D01*
X86230297Y-37503809D01*
X86219763Y-37502704D01*
X86208306Y-37502248D01*
X86203412Y-37502212D01*
X86185982Y-37502874D01*
X86168899Y-37504811D01*
X86152220Y-37507945D01*
X86136001Y-37512199D01*
X86120297Y-37517496D01*
X86105163Y-37523760D01*
X86090657Y-37530913D01*
X86076833Y-37538879D01*
X86063748Y-37547580D01*
X86051457Y-37556940D01*
X86040016Y-37566881D01*
X86029480Y-37577328D01*
X86019907Y-37588202D01*
X86011351Y-37599427D01*
X86003869Y-37610927D01*
X85997515Y-37622623D01*
X85997515Y-37517843D01*
X85783314Y-37517843D01*
X85783314Y-38190000D01*
X85997515Y-38190000D01*
X85997515Y-37927927D01*
X85997739Y-37912505D01*
X85998408Y-37897697D01*
X85999514Y-37883493D01*
X86001051Y-37869886D01*
X86003012Y-37856868D01*
X86005391Y-37844431D01*
X86008181Y-37832566D01*
X86011376Y-37821265D01*
X86014968Y-37810521D01*
X86018952Y-37800325D01*
X86023320Y-37790669D01*
X86028067Y-37781546D01*
X86033184Y-37772946D01*
X86044507Y-37757286D01*
X86057236Y-37743625D01*
X86071318Y-37731898D01*
X86086700Y-37722040D01*
X86103330Y-37713986D01*
X86121153Y-37707672D01*
X86140118Y-37703033D01*
X86150012Y-37701322D01*
X86160172Y-37700004D01*
X86170590Y-37699074D01*
X86181261Y-37698521D01*
X86192177Y-37698339D01*
X86202633Y-37698468D01*
X86214510Y-37699014D01*
X86225599Y-37700025D01*
X86236475Y-37701538D01*
X86247715Y-37703594D01*
X86257356Y-37705655D01*
X86267892Y-37708108D01*
X86267892Y-37517843D01*
G37*
G36*
X86820125Y-37517843D02*
G01*
X86820125Y-37854166D01*
X86819632Y-37873014D01*
X86818148Y-37890971D01*
X86815667Y-37907992D01*
X86812183Y-37924030D01*
X86807691Y-37939043D01*
X86802183Y-37952985D01*
X86795655Y-37965812D01*
X86788099Y-37977478D01*
X86779510Y-37987939D01*
X86769881Y-37997150D01*
X86759207Y-38005067D01*
X86747482Y-38011645D01*
X86734699Y-38016839D01*
X86720852Y-38020604D01*
X86705936Y-38022896D01*
X86689944Y-38023670D01*
X86673836Y-38022898D01*
X86659097Y-38020618D01*
X86645681Y-38016886D01*
X86633543Y-38011756D01*
X86622636Y-38005283D01*
X86612917Y-37997524D01*
X86604339Y-37988532D01*
X86596857Y-37978363D01*
X86590425Y-37967072D01*
X86584998Y-37954714D01*
X86580531Y-37941345D01*
X86576978Y-37927019D01*
X86574293Y-37911791D01*
X86572432Y-37895716D01*
X86571348Y-37878851D01*
X86570997Y-37861249D01*
X86570997Y-37517843D01*
X86358262Y-37517843D01*
X86358262Y-37915471D01*
X86358382Y-37933074D01*
X86358764Y-37949998D01*
X86359440Y-37966264D01*
X86360445Y-37981897D01*
X86361810Y-37996920D01*
X86363568Y-38011358D01*
X86365754Y-38025233D01*
X86368398Y-38038569D01*
X86371535Y-38051390D01*
X86375197Y-38063719D01*
X86379417Y-38075581D01*
X86384228Y-38086998D01*
X86389663Y-38097994D01*
X86395755Y-38108593D01*
X86402537Y-38118819D01*
X86410041Y-38128695D01*
X86417206Y-38137407D01*
X86425047Y-38145675D01*
X86433550Y-38153480D01*
X86442705Y-38160809D01*
X86452500Y-38167643D01*
X86462922Y-38173968D01*
X86473961Y-38179766D01*
X86485604Y-38185023D01*
X86497839Y-38189722D01*
X86510656Y-38193846D01*
X86524041Y-38197380D01*
X86537983Y-38200307D01*
X86552470Y-38202612D01*
X86567491Y-38204279D01*
X86583033Y-38205290D01*
X86599085Y-38205631D01*
X86618462Y-38205145D01*
X86637194Y-38203697D01*
X86655260Y-38201305D01*
X86672641Y-38197987D01*
X86689314Y-38193760D01*
X86705259Y-38188642D01*
X86720456Y-38182651D01*
X86734884Y-38175803D01*
X86748522Y-38168116D01*
X86761349Y-38159609D01*
X86773345Y-38150298D01*
X86784489Y-38140201D01*
X86794759Y-38129335D01*
X86804136Y-38117718D01*
X86812598Y-38105368D01*
X86820125Y-38092302D01*
X86820125Y-38190000D01*
X87034326Y-38190000D01*
X87034326Y-37517843D01*
X86820125Y-37517843D01*
G37*
G36*
X88269951Y-38190000D02*
G01*
X88269951Y-37777473D01*
X88269828Y-37764177D01*
X88269445Y-37750957D01*
X88268781Y-37737834D01*
X88267815Y-37724833D01*
X88266527Y-37711976D01*
X88264895Y-37699285D01*
X88262899Y-37686784D01*
X88260517Y-37674494D01*
X88257728Y-37662440D01*
X88254513Y-37650642D01*
X88250848Y-37639125D01*
X88246715Y-37627911D01*
X88242092Y-37617022D01*
X88236957Y-37606482D01*
X88231291Y-37596312D01*
X88225071Y-37586536D01*
X88218278Y-37577177D01*
X88210889Y-37568257D01*
X88202886Y-37559799D01*
X88194245Y-37551825D01*
X88184947Y-37544359D01*
X88174970Y-37537423D01*
X88164294Y-37531039D01*
X88152897Y-37525232D01*
X88140759Y-37520022D01*
X88127859Y-37515433D01*
X88114176Y-37511488D01*
X88099689Y-37508209D01*
X88084376Y-37505619D01*
X88068218Y-37503741D01*
X88051192Y-37502598D01*
X88033279Y-37502212D01*
X88014909Y-37502813D01*
X87997093Y-37504583D01*
X87979860Y-37507473D01*
X87963239Y-37511432D01*
X87947257Y-37516409D01*
X87931944Y-37522356D01*
X87917327Y-37529221D01*
X87903434Y-37536955D01*
X87890294Y-37545508D01*
X87877935Y-37554829D01*
X87866385Y-37564868D01*
X87855673Y-37575576D01*
X87845826Y-37586902D01*
X87836874Y-37598796D01*
X87828844Y-37611209D01*
X87821765Y-37624089D01*
X87816174Y-37611410D01*
X87809815Y-37599147D01*
X87802648Y-37587356D01*
X87794631Y-37576091D01*
X87785724Y-37565409D01*
X87775886Y-37555365D01*
X87765077Y-37546015D01*
X87753255Y-37537413D01*
X87740380Y-37529616D01*
X87726410Y-37522678D01*
X87711306Y-37516655D01*
X87695026Y-37511604D01*
X87677529Y-37507578D01*
X87658776Y-37504634D01*
X87648915Y-37503584D01*
X87638724Y-37502826D01*
X87628199Y-37502366D01*
X87617334Y-37502212D01*
X87600016Y-37502811D01*
X87583254Y-37504570D01*
X87567076Y-37507428D01*
X87551510Y-37511325D01*
X87536586Y-37516201D01*
X87522331Y-37521995D01*
X87508774Y-37528649D01*
X87495945Y-37536100D01*
X87483871Y-37544291D01*
X87472582Y-37553159D01*
X87462105Y-37562646D01*
X87452470Y-37572691D01*
X87443705Y-37583234D01*
X87435838Y-37594215D01*
X87428899Y-37605574D01*
X87422916Y-37617250D01*
X87422916Y-37517843D01*
X87215554Y-37517843D01*
X87215554Y-38190000D01*
X87422916Y-38190000D01*
X87422916Y-37857341D01*
X87423063Y-37845194D01*
X87423498Y-37833570D01*
X87424214Y-37822458D01*
X87425207Y-37811851D01*
X87426468Y-37801738D01*
X87429774Y-37782963D01*
X87434079Y-37766062D01*
X87439334Y-37750962D01*
X87445486Y-37737593D01*
X87452485Y-37725882D01*
X87460280Y-37715758D01*
X87468819Y-37707150D01*
X87478051Y-37699985D01*
X87487925Y-37694193D01*
X87498390Y-37689703D01*
X87509395Y-37686441D01*
X87520888Y-37684337D01*
X87532818Y-37683319D01*
X87538932Y-37683196D01*
X87551858Y-37683813D01*
X87563813Y-37685649D01*
X87574815Y-37688682D01*
X87584884Y-37692889D01*
X87594038Y-37698246D01*
X87602297Y-37704731D01*
X87609679Y-37712321D01*
X87616204Y-37720992D01*
X87621890Y-37730723D01*
X87626757Y-37741489D01*
X87630822Y-37753269D01*
X87634106Y-37766040D01*
X87636628Y-37779777D01*
X87638405Y-37794460D01*
X87639457Y-37810064D01*
X87639804Y-37826566D01*
X87639804Y-38190000D01*
X87846922Y-38190000D01*
X87846922Y-37853189D01*
X87847065Y-37841290D01*
X87847489Y-37829907D01*
X87848189Y-37819029D01*
X87849157Y-37808648D01*
X87850389Y-37798755D01*
X87853617Y-37780397D01*
X87857822Y-37763881D01*
X87862956Y-37749138D01*
X87868969Y-37736094D01*
X87875811Y-37724677D01*
X87883434Y-37714817D01*
X87891788Y-37706440D01*
X87900824Y-37699476D01*
X87910491Y-37693851D01*
X87920742Y-37689495D01*
X87931525Y-37686335D01*
X87942793Y-37684299D01*
X87954496Y-37683315D01*
X87960495Y-37683196D01*
X87973652Y-37683827D01*
X87985842Y-37685702D01*
X87997080Y-37688797D01*
X88007382Y-37693084D01*
X88016766Y-37698537D01*
X88025247Y-37705130D01*
X88032842Y-37712838D01*
X88039569Y-37721633D01*
X88045442Y-37731491D01*
X88050478Y-37742384D01*
X88054695Y-37754287D01*
X88058108Y-37767173D01*
X88060734Y-37781017D01*
X88062589Y-37795792D01*
X88063691Y-37811472D01*
X88064054Y-37828032D01*
X88064054Y-38190000D01*
X88269951Y-38190000D01*
G37*
G36*
X89165345Y-38190000D02*
G01*
X89390781Y-38190000D01*
X89390781Y-37913028D01*
X89509972Y-37913028D01*
X89509972Y-37721053D01*
X89390781Y-37721053D01*
X89390781Y-37452142D01*
X89165345Y-37452142D01*
X89165345Y-37721053D01*
X89000237Y-37721053D01*
X89000237Y-37205212D01*
X88773335Y-37205212D01*
X88773335Y-37913028D01*
X89165345Y-37913028D01*
X89165345Y-38190000D01*
G37*
G36*
X90001182Y-37189955D02*
G01*
X90020709Y-37191066D01*
X90039691Y-37192893D01*
X90058121Y-37195418D01*
X90075993Y-37198620D01*
X90093301Y-37202480D01*
X90110037Y-37206979D01*
X90126196Y-37212097D01*
X90141771Y-37217815D01*
X90156756Y-37224112D01*
X90171144Y-37230971D01*
X90184929Y-37238370D01*
X90198104Y-37246291D01*
X90210663Y-37254715D01*
X90222600Y-37263621D01*
X90233907Y-37272990D01*
X90244580Y-37282802D01*
X90254610Y-37293039D01*
X90263992Y-37303681D01*
X90272719Y-37314708D01*
X90280785Y-37326100D01*
X90288184Y-37337838D01*
X90294908Y-37349903D01*
X90300952Y-37362276D01*
X90306309Y-37374936D01*
X90310973Y-37387864D01*
X90314937Y-37401041D01*
X90318194Y-37414446D01*
X90320739Y-37428062D01*
X90322565Y-37441868D01*
X90323665Y-37455844D01*
X90324033Y-37469972D01*
X90323464Y-37486554D01*
X90321770Y-37503004D01*
X90318971Y-37519246D01*
X90315088Y-37535204D01*
X90310139Y-37550802D01*
X90304146Y-37565966D01*
X90297129Y-37580620D01*
X90289106Y-37594688D01*
X90280099Y-37608095D01*
X90270128Y-37620765D01*
X90259212Y-37632623D01*
X90247371Y-37643594D01*
X90234626Y-37653601D01*
X90220997Y-37662570D01*
X90206503Y-37670425D01*
X90191165Y-37677090D01*
X90208140Y-37683385D01*
X90224410Y-37691214D01*
X90239919Y-37700481D01*
X90254615Y-37711089D01*
X90268443Y-37722940D01*
X90281351Y-37735938D01*
X90293284Y-37749986D01*
X90304188Y-37764986D01*
X90314011Y-37780843D01*
X90322698Y-37797458D01*
X90330196Y-37814735D01*
X90336451Y-37832577D01*
X90341410Y-37850887D01*
X90345018Y-37869568D01*
X90347222Y-37888523D01*
X90347969Y-37907655D01*
X90347580Y-37922413D01*
X90346417Y-37937043D01*
X90344486Y-37951522D01*
X90341793Y-37965829D01*
X90338343Y-37979940D01*
X90334144Y-37993834D01*
X90329200Y-38007488D01*
X90323518Y-38020880D01*
X90317103Y-38033988D01*
X90309962Y-38046789D01*
X90302101Y-38059261D01*
X90293525Y-38071381D01*
X90284241Y-38083128D01*
X90274253Y-38094478D01*
X90263570Y-38105411D01*
X90252195Y-38115902D01*
X90240136Y-38125931D01*
X90227398Y-38135474D01*
X90213986Y-38144510D01*
X90199908Y-38153016D01*
X90185169Y-38160970D01*
X90169775Y-38168349D01*
X90153732Y-38175131D01*
X90137046Y-38181295D01*
X90119723Y-38186816D01*
X90101768Y-38191674D01*
X90083188Y-38195846D01*
X90063988Y-38199309D01*
X90044175Y-38202041D01*
X90023755Y-38204021D01*
X90002733Y-38205225D01*
X89981116Y-38205631D01*
X89959490Y-38205236D01*
X89938444Y-38204066D01*
X89917984Y-38202140D01*
X89898118Y-38199477D01*
X89878852Y-38196098D01*
X89860194Y-38192022D01*
X89842150Y-38187269D01*
X89824728Y-38181859D01*
X89807935Y-38175812D01*
X89791777Y-38169148D01*
X89776262Y-38161886D01*
X89761396Y-38154047D01*
X89747187Y-38145649D01*
X89733642Y-38136713D01*
X89720768Y-38127259D01*
X89708572Y-38117307D01*
X89697060Y-38106875D01*
X89686240Y-38095985D01*
X89676119Y-38084656D01*
X89666703Y-38072907D01*
X89658001Y-38060759D01*
X89650019Y-38048232D01*
X89642763Y-38035344D01*
X89636241Y-38022117D01*
X89630461Y-38008569D01*
X89625428Y-37994721D01*
X89621150Y-37980592D01*
X89617635Y-37966203D01*
X89614888Y-37951572D01*
X89612917Y-37936721D01*
X89611730Y-37921668D01*
X89611332Y-37906434D01*
X89611496Y-37902281D01*
X89831151Y-37902281D01*
X89831805Y-37915363D01*
X89833748Y-37928176D01*
X89836953Y-37940641D01*
X89841394Y-37952679D01*
X89847042Y-37964211D01*
X89853871Y-37975156D01*
X89861854Y-37985436D01*
X89870963Y-37994972D01*
X89881170Y-38003682D01*
X89892450Y-38011489D01*
X89904775Y-38018313D01*
X89918117Y-38024075D01*
X89932449Y-38028694D01*
X89947744Y-38032092D01*
X89963976Y-38034189D01*
X89981116Y-38034905D01*
X89997996Y-38034175D01*
X90013993Y-38032042D01*
X90029081Y-38028589D01*
X90043230Y-38023903D01*
X90056412Y-38018067D01*
X90068597Y-38011167D01*
X90079758Y-38003288D01*
X90089865Y-37994514D01*
X90098891Y-37984929D01*
X90106806Y-37974620D01*
X90113582Y-37963670D01*
X90119190Y-37952164D01*
X90123601Y-37940188D01*
X90126788Y-37927825D01*
X90128721Y-37915162D01*
X90129371Y-37902281D01*
X90128753Y-37889382D01*
X90126908Y-37876664D01*
X90123852Y-37864217D01*
X90119602Y-37852132D01*
X90114172Y-37840497D01*
X90107578Y-37829402D01*
X90099837Y-37818938D01*
X90090964Y-37809194D01*
X90080975Y-37800261D01*
X90069885Y-37792227D01*
X90057710Y-37785182D01*
X90044467Y-37779217D01*
X90030169Y-37774422D01*
X90014835Y-37770885D01*
X89998479Y-37768697D01*
X89981116Y-37767948D01*
X89963493Y-37768665D01*
X89946903Y-37770765D01*
X89931361Y-37774171D01*
X89916880Y-37778805D01*
X89903476Y-37784592D01*
X89891162Y-37791454D01*
X89879953Y-37799314D01*
X89869863Y-37808095D01*
X89860907Y-37817721D01*
X89853098Y-37828114D01*
X89846452Y-37839198D01*
X89840982Y-37850895D01*
X89836702Y-37863129D01*
X89833628Y-37875823D01*
X89831773Y-37888899D01*
X89831151Y-37902281D01*
X89611496Y-37902281D01*
X89612096Y-37887044D01*
X89614346Y-37867868D01*
X89618027Y-37849004D01*
X89623079Y-37830550D01*
X89629445Y-37812606D01*
X89637067Y-37795271D01*
X89645886Y-37778642D01*
X89655846Y-37762819D01*
X89666887Y-37747900D01*
X89678952Y-37733985D01*
X89691984Y-37721171D01*
X89705923Y-37709559D01*
X89720712Y-37699245D01*
X89736294Y-37690330D01*
X89752610Y-37682912D01*
X89769602Y-37677090D01*
X89754264Y-37670425D01*
X89739770Y-37662570D01*
X89726140Y-37653601D01*
X89713395Y-37643594D01*
X89701555Y-37632623D01*
X89690639Y-37620765D01*
X89680667Y-37608095D01*
X89671660Y-37594688D01*
X89663638Y-37580620D01*
X89656620Y-37565966D01*
X89650627Y-37550802D01*
X89645679Y-37535204D01*
X89641795Y-37519246D01*
X89638997Y-37503004D01*
X89637303Y-37486554D01*
X89637111Y-37480963D01*
X89850935Y-37480963D01*
X89851490Y-37492820D01*
X89853142Y-37504439D01*
X89855874Y-37515747D01*
X89859666Y-37526670D01*
X89864500Y-37537137D01*
X89870358Y-37547076D01*
X89877220Y-37556412D01*
X89885068Y-37565074D01*
X89893883Y-37572988D01*
X89903647Y-37580084D01*
X89914342Y-37586286D01*
X89925948Y-37591524D01*
X89938447Y-37595725D01*
X89951820Y-37598815D01*
X89966050Y-37600722D01*
X89981116Y-37601374D01*
X89995707Y-37600722D01*
X90009515Y-37598815D01*
X90022517Y-37595725D01*
X90034693Y-37591524D01*
X90046020Y-37586286D01*
X90056477Y-37580084D01*
X90066041Y-37572988D01*
X90074692Y-37565074D01*
X90082406Y-37556412D01*
X90089162Y-37547076D01*
X90094939Y-37537137D01*
X90099715Y-37526670D01*
X90103467Y-37515747D01*
X90106175Y-37504439D01*
X90107815Y-37492820D01*
X90108367Y-37480963D01*
X90107815Y-37469105D01*
X90106175Y-37457486D01*
X90103467Y-37446178D01*
X90099715Y-37435255D01*
X90094939Y-37424788D01*
X90089162Y-37414850D01*
X90082406Y-37405513D01*
X90074692Y-37396851D01*
X90066041Y-37388937D01*
X90056477Y-37381841D01*
X90046020Y-37375639D01*
X90034693Y-37370401D01*
X90022517Y-37366200D01*
X90009515Y-37363110D01*
X89995707Y-37361203D01*
X89981116Y-37360551D01*
X89966050Y-37361189D01*
X89951820Y-37363060D01*
X89938447Y-37366096D01*
X89925948Y-37370229D01*
X89914342Y-37375393D01*
X89903647Y-37381519D01*
X89893883Y-37388542D01*
X89885068Y-37396393D01*
X89877220Y-37405006D01*
X89870358Y-37414313D01*
X89864500Y-37424246D01*
X89859666Y-37434740D01*
X89855874Y-37445725D01*
X89853142Y-37457135D01*
X89851490Y-37468904D01*
X89850935Y-37480963D01*
X89637111Y-37480963D01*
X89636734Y-37469972D01*
X89637102Y-37455715D01*
X89638202Y-37441626D01*
X89640029Y-37427723D01*
X89642575Y-37414026D01*
X89645836Y-37400551D01*
X89649804Y-37387320D01*
X89654473Y-37374349D01*
X89659837Y-37361658D01*
X89665891Y-37349265D01*
X89672628Y-37337189D01*
X89680041Y-37325449D01*
X89688125Y-37314064D01*
X89696873Y-37303051D01*
X89706280Y-37292431D01*
X89716338Y-37282221D01*
X89727042Y-37272440D01*
X89738387Y-37263107D01*
X89750364Y-37254241D01*
X89762969Y-37245861D01*
X89776195Y-37237984D01*
X89790037Y-37230630D01*
X89804487Y-37223817D01*
X89819539Y-37217565D01*
X89835189Y-37211891D01*
X89851428Y-37206815D01*
X89868252Y-37202355D01*
X89885654Y-37198529D01*
X89903627Y-37195358D01*
X89922166Y-37192858D01*
X89941265Y-37191050D01*
X89960917Y-37189951D01*
X89981116Y-37189581D01*
X90001182Y-37189955D01*
G37*
G36*
X91178883Y-37517843D02*
G01*
X90923893Y-37517843D01*
X90715310Y-37802386D01*
X90715310Y-37205212D01*
X90501109Y-37205212D01*
X90501109Y-38190000D01*
X90715310Y-38190000D01*
X90715310Y-37908387D01*
X90922672Y-38190000D01*
X91177418Y-38190000D01*
X90915589Y-37853921D01*
X91178883Y-37517843D01*
G37*
G36*
X92344898Y-37844396D02*
G01*
X92339085Y-37862516D01*
X92331686Y-37880006D01*
X92322788Y-37896792D01*
X92312475Y-37912799D01*
X92300834Y-37927954D01*
X92287952Y-37942181D01*
X92273912Y-37955406D01*
X92258803Y-37967555D01*
X92242708Y-37978554D01*
X92234319Y-37983598D01*
X92225715Y-37988327D01*
X92216909Y-37992732D01*
X92207910Y-37996801D01*
X92198729Y-38000528D01*
X92189377Y-38003902D01*
X92179864Y-38006913D01*
X92170203Y-38009554D01*
X92160402Y-38011813D01*
X92150473Y-38013683D01*
X92140427Y-38015153D01*
X92130275Y-38016215D01*
X92120026Y-38016859D01*
X92109692Y-38017076D01*
X92091553Y-38016667D01*
X92073913Y-38015456D01*
X92056776Y-38013462D01*
X92040149Y-38010704D01*
X92024035Y-38007203D01*
X92008440Y-38002978D01*
X91993369Y-37998050D01*
X91978828Y-37992438D01*
X91964820Y-37986161D01*
X91951352Y-37979241D01*
X91938428Y-37971696D01*
X91926054Y-37963546D01*
X91914234Y-37954812D01*
X91902973Y-37945514D01*
X91892276Y-37935670D01*
X91882150Y-37925301D01*
X91872598Y-37914427D01*
X91863625Y-37903068D01*
X91855237Y-37891244D01*
X91847439Y-37878973D01*
X91840236Y-37866277D01*
X91833632Y-37853175D01*
X91827634Y-37839688D01*
X91822245Y-37825833D01*
X91817472Y-37811633D01*
X91813318Y-37797106D01*
X91809790Y-37782272D01*
X91806892Y-37767152D01*
X91804629Y-37751765D01*
X91803006Y-37736131D01*
X91802029Y-37720269D01*
X91801702Y-37704200D01*
X91802009Y-37689106D01*
X91802929Y-37674112D01*
X91804456Y-37659241D01*
X91806589Y-37644520D01*
X91809325Y-37629973D01*
X91812658Y-37615624D01*
X91816587Y-37601500D01*
X91821108Y-37587624D01*
X91826217Y-37574022D01*
X91831912Y-37560719D01*
X91838188Y-37547739D01*
X91845043Y-37535108D01*
X91852473Y-37522850D01*
X91860475Y-37510990D01*
X91869045Y-37499553D01*
X91878181Y-37488565D01*
X91887878Y-37478049D01*
X91898133Y-37468031D01*
X91908943Y-37458536D01*
X91920305Y-37449589D01*
X91932216Y-37441215D01*
X91944671Y-37433438D01*
X91957668Y-37426283D01*
X91971203Y-37419776D01*
X91985273Y-37413941D01*
X91999874Y-37408803D01*
X92015004Y-37404387D01*
X92030658Y-37400719D01*
X92046834Y-37397822D01*
X92063528Y-37395722D01*
X92080737Y-37394444D01*
X92098457Y-37394012D01*
X92111426Y-37394266D01*
X92124088Y-37395019D01*
X92136441Y-37396262D01*
X92148482Y-37397983D01*
X92160208Y-37400172D01*
X92171617Y-37402817D01*
X92182706Y-37405908D01*
X92193472Y-37409434D01*
X92203911Y-37413383D01*
X92214022Y-37417746D01*
X92223801Y-37422511D01*
X92233246Y-37427667D01*
X92242354Y-37433204D01*
X92251122Y-37439111D01*
X92259547Y-37445376D01*
X92267626Y-37451989D01*
X92275357Y-37458939D01*
X92282736Y-37466216D01*
X92289762Y-37473807D01*
X92296430Y-37481703D01*
X92302739Y-37489893D01*
X92308685Y-37498365D01*
X92314265Y-37507109D01*
X92319478Y-37516114D01*
X92324319Y-37525370D01*
X92328787Y-37534864D01*
X92332878Y-37544587D01*
X92336590Y-37554527D01*
X92339919Y-37564674D01*
X92342863Y-37575016D01*
X92345419Y-37585544D01*
X92347585Y-37596245D01*
X92584256Y-37596245D01*
X92581235Y-37575330D01*
X92577394Y-37554688D01*
X92572732Y-37534345D01*
X92567252Y-37514327D01*
X92560953Y-37494659D01*
X92553837Y-37475366D01*
X92545904Y-37456475D01*
X92537156Y-37438010D01*
X92527592Y-37419998D01*
X92517214Y-37402465D01*
X92506023Y-37385435D01*
X92494019Y-37368935D01*
X92481203Y-37352990D01*
X92467577Y-37337625D01*
X92453140Y-37322867D01*
X92437894Y-37308741D01*
X92421839Y-37295272D01*
X92404976Y-37282487D01*
X92387307Y-37270410D01*
X92368831Y-37259068D01*
X92349550Y-37248486D01*
X92329465Y-37238690D01*
X92308575Y-37229705D01*
X92286883Y-37221558D01*
X92264389Y-37214272D01*
X92241093Y-37207875D01*
X92216997Y-37202392D01*
X92192101Y-37197848D01*
X92166406Y-37194270D01*
X92139913Y-37191682D01*
X92112622Y-37190110D01*
X92084535Y-37189581D01*
X92054846Y-37190297D01*
X92025916Y-37192417D01*
X91997757Y-37195899D01*
X91970381Y-37200704D01*
X91943800Y-37206789D01*
X91918027Y-37214112D01*
X91893072Y-37222634D01*
X91868949Y-37232312D01*
X91845669Y-37243105D01*
X91823245Y-37254972D01*
X91801688Y-37267872D01*
X91781010Y-37281763D01*
X91761223Y-37296604D01*
X91742340Y-37312354D01*
X91724373Y-37328972D01*
X91707333Y-37346415D01*
X91691232Y-37364644D01*
X91676083Y-37383616D01*
X91661898Y-37403291D01*
X91648688Y-37423627D01*
X91636466Y-37444583D01*
X91625244Y-37466117D01*
X91615033Y-37488189D01*
X91605846Y-37510756D01*
X91597695Y-37533779D01*
X91590592Y-37557215D01*
X91584548Y-37581023D01*
X91579576Y-37605161D01*
X91575688Y-37629590D01*
X91572896Y-37654267D01*
X91571212Y-37679151D01*
X91570648Y-37704200D01*
X91571220Y-37729988D01*
X91572929Y-37755530D01*
X91575763Y-37780790D01*
X91579711Y-37805729D01*
X91584762Y-37830310D01*
X91590904Y-37854496D01*
X91598127Y-37878248D01*
X91606419Y-37901530D01*
X91615769Y-37924303D01*
X91626165Y-37946530D01*
X91637597Y-37968174D01*
X91650054Y-37989196D01*
X91663523Y-38009560D01*
X91677994Y-38029227D01*
X91693456Y-38048160D01*
X91709897Y-38066321D01*
X91727307Y-38083673D01*
X91745673Y-38100178D01*
X91764985Y-38115799D01*
X91785232Y-38130497D01*
X91806401Y-38144236D01*
X91828483Y-38156977D01*
X91851466Y-38168684D01*
X91875338Y-38179318D01*
X91900088Y-38188841D01*
X91925706Y-38197217D01*
X91952179Y-38204408D01*
X91979497Y-38210375D01*
X92007649Y-38215082D01*
X92036623Y-38218491D01*
X92066407Y-38220563D01*
X92096992Y-38221263D01*
X92122075Y-38220775D01*
X92146621Y-38219327D01*
X92170622Y-38216943D01*
X92194067Y-38213644D01*
X92216947Y-38209456D01*
X92239251Y-38204399D01*
X92260971Y-38198499D01*
X92282097Y-38191778D01*
X92302619Y-38184259D01*
X92322528Y-38175965D01*
X92341813Y-38166920D01*
X92360465Y-38157146D01*
X92378475Y-38146667D01*
X92395832Y-38135506D01*
X92412528Y-38123687D01*
X92428551Y-38111231D01*
X92443894Y-38098163D01*
X92458546Y-38084506D01*
X92472497Y-38070283D01*
X92485739Y-38055516D01*
X92498260Y-38040230D01*
X92510052Y-38024447D01*
X92521104Y-38008190D01*
X92531408Y-37991483D01*
X92540954Y-37974349D01*
X92549731Y-37956811D01*
X92557730Y-37938892D01*
X92564942Y-37920616D01*
X92571357Y-37902005D01*
X92576965Y-37883082D01*
X92581756Y-37863872D01*
X92585722Y-37844396D01*
X92344898Y-37844396D01*
G37*
G36*
X93069133Y-37502683D02*
G01*
X93090358Y-37504082D01*
X93111006Y-37506383D01*
X93131071Y-37509560D01*
X93150544Y-37513591D01*
X93169416Y-37518448D01*
X93187680Y-37524109D01*
X93205328Y-37530548D01*
X93222350Y-37537739D01*
X93238740Y-37545659D01*
X93254489Y-37554283D01*
X93269589Y-37563585D01*
X93284032Y-37573541D01*
X93297809Y-37584126D01*
X93310913Y-37595315D01*
X93323335Y-37607083D01*
X93335067Y-37619407D01*
X93346102Y-37632259D01*
X93356430Y-37645617D01*
X93366044Y-37659455D01*
X93374936Y-37673748D01*
X93383097Y-37688472D01*
X93390520Y-37703601D01*
X93397196Y-37719111D01*
X93403117Y-37734977D01*
X93408275Y-37751174D01*
X93412661Y-37767677D01*
X93416269Y-37784462D01*
X93419089Y-37801504D01*
X93421113Y-37818778D01*
X93422333Y-37836258D01*
X93422742Y-37853921D01*
X93422333Y-37871606D01*
X93421113Y-37889105D01*
X93419089Y-37906395D01*
X93416269Y-37923450D01*
X93412661Y-37940247D01*
X93408275Y-37956760D01*
X93403117Y-37972964D01*
X93397196Y-37988835D01*
X93390520Y-38004348D01*
X93383097Y-38019479D01*
X93374936Y-38034203D01*
X93366044Y-38048495D01*
X93356430Y-38062331D01*
X93346102Y-38075685D01*
X93335067Y-38088533D01*
X93323335Y-38100851D01*
X93310913Y-38112613D01*
X93297809Y-38123796D01*
X93284032Y-38134374D01*
X93269589Y-38144322D01*
X93254489Y-38153617D01*
X93238740Y-38162233D01*
X93222350Y-38170145D01*
X93205328Y-38177329D01*
X93187680Y-38183761D01*
X93169416Y-38189415D01*
X93150544Y-38194267D01*
X93131071Y-38198292D01*
X93111006Y-38201466D01*
X93090358Y-38203763D01*
X93069133Y-38205160D01*
X93047341Y-38205631D01*
X93025833Y-38205160D01*
X93004866Y-38203763D01*
X92984451Y-38201466D01*
X92964595Y-38198292D01*
X92945309Y-38194267D01*
X92926602Y-38189415D01*
X92908483Y-38183761D01*
X92890960Y-38177329D01*
X92874045Y-38170145D01*
X92857745Y-38162233D01*
X92842069Y-38153617D01*
X92827028Y-38144322D01*
X92812631Y-38134374D01*
X92798886Y-38123796D01*
X92785803Y-38112613D01*
X92773392Y-38100851D01*
X92761661Y-38088533D01*
X92750619Y-38075685D01*
X92740277Y-38062331D01*
X92730643Y-38048495D01*
X92721727Y-38034203D01*
X92713537Y-38019479D01*
X92706083Y-38004348D01*
X92699375Y-37988835D01*
X92693421Y-37972964D01*
X92688231Y-37956760D01*
X92683814Y-37940247D01*
X92680179Y-37923450D01*
X92677336Y-37906395D01*
X92675294Y-37889105D01*
X92674062Y-37871606D01*
X92673649Y-37853921D01*
X92887850Y-37853921D01*
X92888581Y-37871149D01*
X92890746Y-37887880D01*
X92894301Y-37904029D01*
X92899204Y-37919512D01*
X92905410Y-37934243D01*
X92912876Y-37948138D01*
X92921560Y-37961113D01*
X92931417Y-37973081D01*
X92942405Y-37983959D01*
X92954480Y-37993662D01*
X92967600Y-38002105D01*
X92981720Y-38009203D01*
X92996797Y-38014871D01*
X93012788Y-38019024D01*
X93029651Y-38021579D01*
X93047341Y-38022449D01*
X93065345Y-38021579D01*
X93082510Y-38019024D01*
X93098790Y-38014871D01*
X93114141Y-38009203D01*
X93128519Y-38002105D01*
X93141880Y-37993662D01*
X93154179Y-37983959D01*
X93165371Y-37973081D01*
X93175413Y-37961113D01*
X93184260Y-37948138D01*
X93191867Y-37934243D01*
X93198191Y-37919512D01*
X93203187Y-37904029D01*
X93206810Y-37887880D01*
X93209017Y-37871149D01*
X93209762Y-37853921D01*
X93209017Y-37836938D01*
X93206810Y-37820394D01*
X93203187Y-37804380D01*
X93198191Y-37788987D01*
X93191867Y-37774305D01*
X93184260Y-37760425D01*
X93175413Y-37747438D01*
X93165371Y-37735433D01*
X93154179Y-37724502D01*
X93141880Y-37714734D01*
X93128519Y-37706221D01*
X93114141Y-37699052D01*
X93098790Y-37693319D01*
X93082510Y-37689112D01*
X93065345Y-37686522D01*
X93047341Y-37685638D01*
X93029651Y-37686522D01*
X93012788Y-37689112D01*
X92996797Y-37693319D01*
X92981720Y-37699052D01*
X92967600Y-37706221D01*
X92954480Y-37714734D01*
X92942405Y-37724502D01*
X92931417Y-37735433D01*
X92921560Y-37747438D01*
X92912876Y-37760425D01*
X92905410Y-37774305D01*
X92899204Y-37788987D01*
X92894301Y-37804380D01*
X92890746Y-37820394D01*
X92888581Y-37836938D01*
X92887850Y-37853921D01*
X92673649Y-37853921D01*
X92674062Y-37836258D01*
X92675294Y-37818778D01*
X92677336Y-37801504D01*
X92680179Y-37784462D01*
X92683814Y-37767677D01*
X92688231Y-37751174D01*
X92693421Y-37734977D01*
X92699375Y-37719111D01*
X92706083Y-37703601D01*
X92713537Y-37688472D01*
X92721727Y-37673748D01*
X92730643Y-37659455D01*
X92740277Y-37645617D01*
X92750619Y-37632259D01*
X92761661Y-37619407D01*
X92773392Y-37607083D01*
X92785803Y-37595315D01*
X92798886Y-37584126D01*
X92812631Y-37573541D01*
X92827028Y-37563585D01*
X92842069Y-37554283D01*
X92857745Y-37545659D01*
X92874045Y-37537739D01*
X92890960Y-37530548D01*
X92908483Y-37524109D01*
X92926602Y-37518448D01*
X92945309Y-37513591D01*
X92964595Y-37509560D01*
X92984451Y-37506383D01*
X93004866Y-37504082D01*
X93025833Y-37502683D01*
X93047341Y-37502212D01*
X93069133Y-37502683D01*
G37*
G36*
X94612449Y-38190000D02*
G01*
X94612449Y-37777473D01*
X94612326Y-37764177D01*
X94611943Y-37750957D01*
X94611279Y-37737834D01*
X94610314Y-37724833D01*
X94609025Y-37711976D01*
X94607394Y-37699285D01*
X94605397Y-37686784D01*
X94603015Y-37674494D01*
X94600227Y-37662440D01*
X94597011Y-37650642D01*
X94593347Y-37639125D01*
X94589213Y-37627911D01*
X94584590Y-37617022D01*
X94579455Y-37606482D01*
X94573789Y-37596312D01*
X94567569Y-37586536D01*
X94560776Y-37577177D01*
X94553388Y-37568257D01*
X94545384Y-37559799D01*
X94536743Y-37551825D01*
X94527445Y-37544359D01*
X94517468Y-37537423D01*
X94506792Y-37531039D01*
X94495396Y-37525232D01*
X94483258Y-37520022D01*
X94470358Y-37515433D01*
X94456674Y-37511488D01*
X94442187Y-37508209D01*
X94426874Y-37505619D01*
X94410716Y-37503741D01*
X94393691Y-37502598D01*
X94375778Y-37502212D01*
X94357407Y-37502813D01*
X94339591Y-37504583D01*
X94322358Y-37507473D01*
X94305737Y-37511432D01*
X94289756Y-37516409D01*
X94274442Y-37522356D01*
X94259825Y-37529221D01*
X94245932Y-37536955D01*
X94232792Y-37545508D01*
X94220433Y-37554829D01*
X94208883Y-37564868D01*
X94198171Y-37575576D01*
X94188325Y-37586902D01*
X94179372Y-37598796D01*
X94171343Y-37611209D01*
X94164263Y-37624089D01*
X94158672Y-37611410D01*
X94152314Y-37599147D01*
X94145146Y-37587356D01*
X94137129Y-37576091D01*
X94128223Y-37565409D01*
X94118385Y-37555365D01*
X94107575Y-37546015D01*
X94095753Y-37537413D01*
X94082878Y-37529616D01*
X94068908Y-37522678D01*
X94053804Y-37516655D01*
X94037524Y-37511604D01*
X94020028Y-37507578D01*
X94001274Y-37504634D01*
X93991413Y-37503584D01*
X93981222Y-37502826D01*
X93970697Y-37502366D01*
X93959832Y-37502212D01*
X93942515Y-37502811D01*
X93925753Y-37504570D01*
X93909574Y-37507428D01*
X93894009Y-37511325D01*
X93879084Y-37516201D01*
X93864829Y-37521995D01*
X93851273Y-37528649D01*
X93838443Y-37536100D01*
X93826370Y-37544291D01*
X93815080Y-37553159D01*
X93804603Y-37562646D01*
X93794968Y-37572691D01*
X93786203Y-37583234D01*
X93778337Y-37594215D01*
X93771398Y-37605574D01*
X93765415Y-37617250D01*
X93765415Y-37517843D01*
X93558053Y-37517843D01*
X93558053Y-38190000D01*
X93765415Y-38190000D01*
X93765415Y-37857341D01*
X93765561Y-37845194D01*
X93765996Y-37833570D01*
X93766713Y-37822458D01*
X93767705Y-37811851D01*
X93768967Y-37801738D01*
X93772272Y-37782963D01*
X93776577Y-37766062D01*
X93781832Y-37750962D01*
X93787984Y-37737593D01*
X93794983Y-37725882D01*
X93802778Y-37715758D01*
X93811317Y-37707150D01*
X93820549Y-37699985D01*
X93830423Y-37694193D01*
X93840888Y-37689703D01*
X93851893Y-37686441D01*
X93863386Y-37684337D01*
X93875317Y-37683319D01*
X93881430Y-37683196D01*
X93894356Y-37683813D01*
X93906311Y-37685649D01*
X93917313Y-37688682D01*
X93927382Y-37692889D01*
X93936536Y-37698246D01*
X93944795Y-37704731D01*
X93952178Y-37712321D01*
X93958702Y-37720992D01*
X93964388Y-37730723D01*
X93969255Y-37741489D01*
X93973321Y-37753269D01*
X93976605Y-37766040D01*
X93979126Y-37779777D01*
X93980903Y-37794460D01*
X93981956Y-37810064D01*
X93982302Y-37826566D01*
X93982302Y-38190000D01*
X94189420Y-38190000D01*
X94189420Y-37853189D01*
X94189563Y-37841290D01*
X94189987Y-37829907D01*
X94190687Y-37819029D01*
X94191656Y-37808648D01*
X94192887Y-37798755D01*
X94196115Y-37780397D01*
X94200320Y-37763881D01*
X94205454Y-37749138D01*
X94211467Y-37736094D01*
X94218310Y-37724677D01*
X94225933Y-37714817D01*
X94234286Y-37706440D01*
X94243322Y-37699476D01*
X94252989Y-37693851D01*
X94263240Y-37689495D01*
X94274024Y-37686335D01*
X94285292Y-37684299D01*
X94296994Y-37683315D01*
X94302993Y-37683196D01*
X94316151Y-37683827D01*
X94328340Y-37685702D01*
X94339578Y-37688797D01*
X94349880Y-37693084D01*
X94359264Y-37698537D01*
X94367745Y-37705130D01*
X94375341Y-37712838D01*
X94382067Y-37721633D01*
X94387940Y-37731491D01*
X94392977Y-37742384D01*
X94397193Y-37754287D01*
X94400606Y-37767173D01*
X94403232Y-37781017D01*
X94405088Y-37795792D01*
X94406189Y-37811472D01*
X94406552Y-37828032D01*
X94406552Y-38190000D01*
X94612449Y-38190000D01*
G37*
G36*
X95226695Y-37502656D02*
G01*
X95244379Y-37503974D01*
X95261686Y-37506149D01*
X95278601Y-37509159D01*
X95295111Y-37512985D01*
X95311202Y-37517608D01*
X95326859Y-37523008D01*
X95342071Y-37529166D01*
X95356822Y-37536062D01*
X95371100Y-37543677D01*
X95384890Y-37551990D01*
X95398179Y-37560983D01*
X95410953Y-37570636D01*
X95423199Y-37580929D01*
X95434902Y-37591843D01*
X95446050Y-37603359D01*
X95456628Y-37615456D01*
X95466622Y-37628115D01*
X95476020Y-37641317D01*
X95484807Y-37655042D01*
X95492970Y-37669271D01*
X95500495Y-37683984D01*
X95507368Y-37699161D01*
X95513575Y-37714783D01*
X95519104Y-37730831D01*
X95523940Y-37747284D01*
X95528069Y-37764124D01*
X95531478Y-37781330D01*
X95534154Y-37798884D01*
X95536082Y-37816765D01*
X95537249Y-37834955D01*
X95537641Y-37853433D01*
X95537249Y-37872021D01*
X95536082Y-37890313D01*
X95534154Y-37908288D01*
X95531478Y-37925928D01*
X95528069Y-37943214D01*
X95523940Y-37960125D01*
X95519104Y-37976644D01*
X95513575Y-37992751D01*
X95507368Y-38008425D01*
X95500495Y-38023650D01*
X95492970Y-38038404D01*
X95484807Y-38052669D01*
X95476020Y-38066426D01*
X95466622Y-38079655D01*
X95456628Y-38092337D01*
X95446050Y-38104453D01*
X95434902Y-38115984D01*
X95423199Y-38126911D01*
X95410953Y-38137213D01*
X95398179Y-38146873D01*
X95384890Y-38155870D01*
X95371100Y-38164185D01*
X95356822Y-38171801D01*
X95342071Y-38178696D01*
X95326859Y-38184852D01*
X95311202Y-38190249D01*
X95295111Y-38194869D01*
X95278601Y-38198692D01*
X95261686Y-38201699D01*
X95244379Y-38203871D01*
X95226695Y-38205188D01*
X95208646Y-38205631D01*
X95192101Y-38205035D01*
X95175673Y-38203286D01*
X95159440Y-38200447D01*
X95143479Y-38196579D01*
X95127867Y-38191743D01*
X95112681Y-38186002D01*
X95097999Y-38179416D01*
X95083899Y-38172048D01*
X95070456Y-38163958D01*
X95057749Y-38155208D01*
X95045855Y-38145860D01*
X95034852Y-38135976D01*
X95024815Y-38125616D01*
X95015824Y-38114843D01*
X95007954Y-38103718D01*
X95001284Y-38092302D01*
X95001284Y-38502630D01*
X94787083Y-38502630D01*
X94787083Y-37853433D01*
X95001284Y-37853433D01*
X95002032Y-37870640D01*
X95004245Y-37887395D01*
X95007880Y-37903608D01*
X95012889Y-37919188D01*
X95019228Y-37934043D01*
X95026850Y-37948084D01*
X95035712Y-37961218D01*
X95045766Y-37973356D01*
X95056969Y-37984406D01*
X95069273Y-37994278D01*
X95082635Y-38002880D01*
X95097008Y-38010122D01*
X95112347Y-38015913D01*
X95128606Y-38020162D01*
X95145741Y-38022778D01*
X95163705Y-38023670D01*
X95181196Y-38022778D01*
X95197917Y-38020162D01*
X95213818Y-38015913D01*
X95228849Y-38010122D01*
X95242962Y-38002880D01*
X95256106Y-37994278D01*
X95268233Y-37984406D01*
X95279293Y-37973356D01*
X95289237Y-37961218D01*
X95298015Y-37948084D01*
X95305578Y-37934043D01*
X95311876Y-37919188D01*
X95316861Y-37903608D01*
X95320483Y-37887395D01*
X95322692Y-37870640D01*
X95323440Y-37853433D01*
X95322692Y-37836226D01*
X95320483Y-37819471D01*
X95316861Y-37803258D01*
X95311876Y-37787678D01*
X95305578Y-37772823D01*
X95298015Y-37758782D01*
X95289237Y-37745647D01*
X95279293Y-37733510D01*
X95268233Y-37722459D01*
X95256106Y-37712588D01*
X95242962Y-37703985D01*
X95228849Y-37696743D01*
X95213818Y-37690953D01*
X95197917Y-37686704D01*
X95181196Y-37684088D01*
X95163705Y-37683196D01*
X95145741Y-37684088D01*
X95128606Y-37686704D01*
X95112347Y-37690953D01*
X95097008Y-37696743D01*
X95082635Y-37703985D01*
X95069273Y-37712588D01*
X95056969Y-37722459D01*
X95045766Y-37733510D01*
X95035712Y-37745647D01*
X95026850Y-37758782D01*
X95019228Y-37772823D01*
X95012889Y-37787678D01*
X95007880Y-37803258D01*
X95004245Y-37819471D01*
X95002032Y-37836226D01*
X95001284Y-37853433D01*
X94787083Y-37853433D01*
X94787083Y-37517843D01*
X95001284Y-37517843D01*
X95001284Y-37615785D01*
X95007954Y-37604366D01*
X95015824Y-37593233D01*
X95024815Y-37582448D01*
X95034852Y-37572073D01*
X95045855Y-37562170D01*
X95057749Y-37552801D01*
X95070456Y-37544030D01*
X95083899Y-37535917D01*
X95097999Y-37528526D01*
X95112681Y-37521918D01*
X95127867Y-37516156D01*
X95143479Y-37511302D01*
X95159440Y-37507418D01*
X95175673Y-37504567D01*
X95192101Y-37502811D01*
X95208646Y-37502212D01*
X95226695Y-37502656D01*
G37*
G36*
X96027402Y-37502683D02*
G01*
X96048627Y-37504082D01*
X96069276Y-37506383D01*
X96089341Y-37509560D01*
X96108813Y-37513591D01*
X96127686Y-37518448D01*
X96145950Y-37524109D01*
X96163597Y-37530548D01*
X96180620Y-37537739D01*
X96197010Y-37545659D01*
X96212759Y-37554283D01*
X96227859Y-37563585D01*
X96242301Y-37573541D01*
X96256079Y-37584126D01*
X96269182Y-37595315D01*
X96281605Y-37607083D01*
X96293337Y-37619407D01*
X96304371Y-37632259D01*
X96314700Y-37645617D01*
X96324314Y-37659455D01*
X96333205Y-37673748D01*
X96341367Y-37688472D01*
X96348789Y-37703601D01*
X96355465Y-37719111D01*
X96361386Y-37734977D01*
X96366544Y-37751174D01*
X96370931Y-37767677D01*
X96374538Y-37784462D01*
X96377358Y-37801504D01*
X96379382Y-37818778D01*
X96380603Y-37836258D01*
X96381011Y-37853921D01*
X96380603Y-37871606D01*
X96379382Y-37889105D01*
X96377358Y-37906395D01*
X96374538Y-37923450D01*
X96370931Y-37940247D01*
X96366544Y-37956760D01*
X96361386Y-37972964D01*
X96355465Y-37988835D01*
X96348789Y-38004348D01*
X96341367Y-38019479D01*
X96333205Y-38034203D01*
X96324314Y-38048495D01*
X96314700Y-38062331D01*
X96304371Y-38075685D01*
X96293337Y-38088533D01*
X96281605Y-38100851D01*
X96269182Y-38112613D01*
X96256079Y-38123796D01*
X96242301Y-38134374D01*
X96227859Y-38144322D01*
X96212759Y-38153617D01*
X96197010Y-38162233D01*
X96180620Y-38170145D01*
X96163597Y-38177329D01*
X96145950Y-38183761D01*
X96127686Y-38189415D01*
X96108813Y-38194267D01*
X96089341Y-38198292D01*
X96069276Y-38201466D01*
X96048627Y-38203763D01*
X96027402Y-38205160D01*
X96005610Y-38205631D01*
X95984102Y-38205160D01*
X95963136Y-38203763D01*
X95942720Y-38201466D01*
X95922865Y-38198292D01*
X95903579Y-38194267D01*
X95884871Y-38189415D01*
X95866752Y-38183761D01*
X95849230Y-38177329D01*
X95832314Y-38170145D01*
X95816014Y-38162233D01*
X95800339Y-38153617D01*
X95785298Y-38144322D01*
X95770900Y-38134374D01*
X95757156Y-38123796D01*
X95744073Y-38112613D01*
X95731661Y-38100851D01*
X95719930Y-38088533D01*
X95708889Y-38075685D01*
X95698547Y-38062331D01*
X95688913Y-38048495D01*
X95679996Y-38034203D01*
X95671806Y-38019479D01*
X95664353Y-38004348D01*
X95657644Y-37988835D01*
X95651690Y-37972964D01*
X95646500Y-37956760D01*
X95642083Y-37940247D01*
X95638449Y-37923450D01*
X95635606Y-37906395D01*
X95633563Y-37889105D01*
X95632331Y-37871606D01*
X95631919Y-37853921D01*
X95846120Y-37853921D01*
X95846851Y-37871149D01*
X95849016Y-37887880D01*
X95852571Y-37904029D01*
X95857473Y-37919512D01*
X95863679Y-37934243D01*
X95871145Y-37948138D01*
X95879829Y-37961113D01*
X95889686Y-37973081D01*
X95900674Y-37983959D01*
X95912750Y-37993662D01*
X95925869Y-38002105D01*
X95939989Y-38009203D01*
X95955066Y-38014871D01*
X95971058Y-38019024D01*
X95987920Y-38021579D01*
X96005610Y-38022449D01*
X96023615Y-38021579D01*
X96040779Y-38019024D01*
X96057059Y-38014871D01*
X96072411Y-38009203D01*
X96086789Y-38002105D01*
X96100149Y-37993662D01*
X96112448Y-37983959D01*
X96123640Y-37973081D01*
X96133682Y-37961113D01*
X96142529Y-37948138D01*
X96150137Y-37934243D01*
X96156461Y-37919512D01*
X96161456Y-37904029D01*
X96165080Y-37887880D01*
X96167286Y-37871149D01*
X96168032Y-37853921D01*
X96167286Y-37836938D01*
X96165080Y-37820394D01*
X96161456Y-37804380D01*
X96156461Y-37788987D01*
X96150137Y-37774305D01*
X96142529Y-37760425D01*
X96133682Y-37747438D01*
X96123640Y-37735433D01*
X96112448Y-37724502D01*
X96100149Y-37714734D01*
X96086789Y-37706221D01*
X96072411Y-37699052D01*
X96057059Y-37693319D01*
X96040779Y-37689112D01*
X96023615Y-37686522D01*
X96005610Y-37685638D01*
X95987920Y-37686522D01*
X95971058Y-37689112D01*
X95955066Y-37693319D01*
X95939989Y-37699052D01*
X95925869Y-37706221D01*
X95912750Y-37714734D01*
X95900674Y-37724502D01*
X95889686Y-37735433D01*
X95879829Y-37747438D01*
X95871145Y-37760425D01*
X95863679Y-37774305D01*
X95857473Y-37788987D01*
X95852571Y-37804380D01*
X95849016Y-37820394D01*
X95846851Y-37836938D01*
X95846120Y-37853921D01*
X95631919Y-37853921D01*
X95632331Y-37836258D01*
X95633563Y-37818778D01*
X95635606Y-37801504D01*
X95638449Y-37784462D01*
X95642083Y-37767677D01*
X95646500Y-37751174D01*
X95651690Y-37734977D01*
X95657644Y-37719111D01*
X95664353Y-37703601D01*
X95671806Y-37688472D01*
X95679996Y-37673748D01*
X95688913Y-37659455D01*
X95698547Y-37645617D01*
X95708889Y-37632259D01*
X95719930Y-37619407D01*
X95731661Y-37607083D01*
X95744073Y-37595315D01*
X95757156Y-37584126D01*
X95770900Y-37573541D01*
X95785298Y-37563585D01*
X95800339Y-37554283D01*
X95816014Y-37545659D01*
X95832314Y-37537739D01*
X95849230Y-37530548D01*
X95866752Y-37524109D01*
X95884871Y-37518448D01*
X95903579Y-37513591D01*
X95922865Y-37509560D01*
X95942720Y-37506383D01*
X95963136Y-37504082D01*
X95984102Y-37502683D01*
X96005610Y-37502212D01*
X96027402Y-37502683D01*
G37*
G36*
X96870474Y-37794815D02*
G01*
X96860009Y-37791439D01*
X96849864Y-37788218D01*
X96840040Y-37785139D01*
X96830537Y-37782190D01*
X96812500Y-37776632D01*
X96795759Y-37771444D01*
X96780319Y-37766524D01*
X96766189Y-37761773D01*
X96753374Y-37757091D01*
X96741880Y-37752377D01*
X96731715Y-37747532D01*
X96722884Y-37742455D01*
X96712153Y-37734186D01*
X96704462Y-37724831D01*
X96699831Y-37714053D01*
X96698283Y-37701514D01*
X96699218Y-37690857D01*
X96701928Y-37681276D01*
X96708050Y-37670164D01*
X96716726Y-37660940D01*
X96724701Y-37655252D01*
X96733774Y-37650612D01*
X96743801Y-37647013D01*
X96754636Y-37644450D01*
X96766134Y-37642917D01*
X96778150Y-37642407D01*
X96788841Y-37642783D01*
X96798839Y-37643902D01*
X96812539Y-37646946D01*
X96824683Y-37651591D01*
X96835273Y-37657796D01*
X96844310Y-37665519D01*
X96851794Y-37674715D01*
X96857728Y-37685345D01*
X96862112Y-37697364D01*
X96864948Y-37710732D01*
X96866236Y-37725405D01*
X96866322Y-37730579D01*
X97077836Y-37730579D01*
X97077557Y-37718599D01*
X97076719Y-37706802D01*
X97075320Y-37695202D01*
X97073360Y-37683810D01*
X97070838Y-37672641D01*
X97067753Y-37661707D01*
X97064103Y-37651020D01*
X97059888Y-37640594D01*
X97055107Y-37630442D01*
X97049758Y-37620577D01*
X97043841Y-37611011D01*
X97037354Y-37601757D01*
X97030297Y-37592829D01*
X97022669Y-37584239D01*
X97014468Y-37576001D01*
X97005693Y-37568127D01*
X96996344Y-37560629D01*
X96986419Y-37553522D01*
X96975917Y-37546818D01*
X96964838Y-37540530D01*
X96953180Y-37534670D01*
X96940943Y-37529252D01*
X96928124Y-37524289D01*
X96914724Y-37519793D01*
X96900741Y-37515778D01*
X96886174Y-37512256D01*
X96871022Y-37509241D01*
X96855285Y-37506745D01*
X96838960Y-37504781D01*
X96822048Y-37503362D01*
X96804546Y-37502501D01*
X96786454Y-37502212D01*
X96769590Y-37502405D01*
X96753119Y-37502986D01*
X96737052Y-37503957D01*
X96721398Y-37505319D01*
X96706165Y-37507072D01*
X96691364Y-37509220D01*
X96677004Y-37511763D01*
X96663093Y-37514702D01*
X96649641Y-37518040D01*
X96636657Y-37521778D01*
X96624152Y-37525916D01*
X96612132Y-37530457D01*
X96600609Y-37535403D01*
X96589591Y-37540754D01*
X96579088Y-37546512D01*
X96569109Y-37552678D01*
X96559663Y-37559255D01*
X96550759Y-37566243D01*
X96542406Y-37573644D01*
X96534615Y-37581459D01*
X96527393Y-37589691D01*
X96520751Y-37598340D01*
X96514698Y-37607407D01*
X96509243Y-37616895D01*
X96504394Y-37626805D01*
X96500162Y-37637138D01*
X96496556Y-37647896D01*
X96493585Y-37659080D01*
X96491258Y-37670692D01*
X96489584Y-37682733D01*
X96488573Y-37695205D01*
X96488234Y-37708108D01*
X96488515Y-37719805D01*
X96489348Y-37730956D01*
X96490717Y-37741579D01*
X96492609Y-37751693D01*
X96495008Y-37761315D01*
X96501267Y-37779158D01*
X96509377Y-37795253D01*
X96519217Y-37809744D01*
X96530669Y-37822777D01*
X96543613Y-37834496D01*
X96557931Y-37845046D01*
X96573502Y-37854573D01*
X96590209Y-37863221D01*
X96607932Y-37871134D01*
X96617137Y-37874861D01*
X96626551Y-37878459D01*
X96636160Y-37881946D01*
X96645948Y-37885340D01*
X96655901Y-37888659D01*
X96666004Y-37891921D01*
X96676242Y-37895145D01*
X96686599Y-37898348D01*
X96697062Y-37901549D01*
X96708775Y-37905298D01*
X96720059Y-37908861D01*
X96730917Y-37912252D01*
X96741352Y-37915485D01*
X96751369Y-37918576D01*
X96760972Y-37921537D01*
X96778948Y-37927129D01*
X96795311Y-37932377D01*
X96810092Y-37937394D01*
X96823321Y-37942294D01*
X96835028Y-37947192D01*
X96845244Y-37952201D01*
X96854000Y-37957436D01*
X96864460Y-37965961D01*
X96871805Y-37975637D01*
X96876136Y-37986848D01*
X96877557Y-37999979D01*
X96876615Y-38011599D01*
X96873857Y-38021893D01*
X96869388Y-38030902D01*
X96863312Y-38038666D01*
X96855732Y-38045223D01*
X96846751Y-38050615D01*
X96836475Y-38054880D01*
X96825007Y-38058059D01*
X96812450Y-38060191D01*
X96798909Y-38061317D01*
X96789385Y-38061528D01*
X96777791Y-38061195D01*
X96766665Y-38060182D01*
X96756046Y-38058466D01*
X96745971Y-38056025D01*
X96736481Y-38052837D01*
X96723425Y-38046606D01*
X96711899Y-38038569D01*
X96702036Y-38028652D01*
X96693964Y-38016779D01*
X96689643Y-38007741D01*
X96686215Y-37997778D01*
X96683718Y-37986869D01*
X96682192Y-37974990D01*
X96681674Y-37962121D01*
X96471625Y-37962121D01*
X96471973Y-37976486D01*
X96473008Y-37990455D01*
X96474724Y-38004022D01*
X96477111Y-38017183D01*
X96480161Y-38029936D01*
X96483866Y-38042276D01*
X96488218Y-38054200D01*
X96493207Y-38065703D01*
X96498825Y-38076781D01*
X96505064Y-38087432D01*
X96511916Y-38097650D01*
X96519372Y-38107433D01*
X96527423Y-38116776D01*
X96536061Y-38125675D01*
X96545278Y-38134127D01*
X96555065Y-38142128D01*
X96565414Y-38149674D01*
X96576316Y-38156760D01*
X96587762Y-38163384D01*
X96599746Y-38169541D01*
X96612257Y-38175228D01*
X96625287Y-38180441D01*
X96638829Y-38185175D01*
X96652873Y-38189427D01*
X96667411Y-38193193D01*
X96682435Y-38196470D01*
X96697936Y-38199253D01*
X96713905Y-38201539D01*
X96730335Y-38203324D01*
X96747217Y-38204603D01*
X96764542Y-38205373D01*
X96782302Y-38205631D01*
X96797963Y-38205462D01*
X96813423Y-38204948D01*
X96828664Y-38204081D01*
X96843666Y-38202853D01*
X96858410Y-38201257D01*
X96872877Y-38199283D01*
X96887045Y-38196924D01*
X96900898Y-38194171D01*
X96914413Y-38191016D01*
X96927573Y-38187451D01*
X96940358Y-38183469D01*
X96952748Y-38179060D01*
X96964723Y-38174216D01*
X96976265Y-38168930D01*
X96987353Y-38163192D01*
X96997969Y-38156996D01*
X97008092Y-38150333D01*
X97017704Y-38143194D01*
X97026784Y-38135571D01*
X97035313Y-38127457D01*
X97043272Y-38118842D01*
X97050642Y-38109720D01*
X97057402Y-38100081D01*
X97063533Y-38089917D01*
X97069016Y-38079221D01*
X97073831Y-38067984D01*
X97077959Y-38056198D01*
X97081380Y-38043854D01*
X97084074Y-38030945D01*
X97086023Y-38017462D01*
X97087207Y-38003398D01*
X97087606Y-37988743D01*
X97087321Y-37977004D01*
X97086477Y-37965815D01*
X97085087Y-37955160D01*
X97083165Y-37945019D01*
X97080725Y-37935375D01*
X97074349Y-37917501D01*
X97066070Y-37901392D01*
X97056002Y-37886901D01*
X97044255Y-37873882D01*
X97030944Y-37862187D01*
X97016180Y-37851671D01*
X97000075Y-37842186D01*
X96982741Y-37833587D01*
X96973649Y-37829573D01*
X96964292Y-37825725D01*
X96954684Y-37822025D01*
X96944840Y-37818454D01*
X96934772Y-37814995D01*
X96924496Y-37811629D01*
X96914025Y-37808337D01*
X96903373Y-37805101D01*
X96892555Y-37801903D01*
X96881584Y-37798725D01*
X96870474Y-37795547D01*
X96870474Y-37794815D01*
G37*
G36*
X97198736Y-37294361D02*
G01*
X97199430Y-37308082D01*
X97201469Y-37321444D01*
X97204790Y-37334374D01*
X97209330Y-37346801D01*
X97215027Y-37358650D01*
X97221817Y-37369851D01*
X97229638Y-37380329D01*
X97238426Y-37390013D01*
X97248118Y-37398829D01*
X97258652Y-37406706D01*
X97269965Y-37413570D01*
X97281993Y-37419348D01*
X97294673Y-37423970D01*
X97307943Y-37427360D01*
X97321740Y-37429448D01*
X97336001Y-37430160D01*
X97350476Y-37429448D01*
X97364461Y-37427360D01*
X97377895Y-37423970D01*
X97390715Y-37419348D01*
X97402861Y-37413570D01*
X97414273Y-37406706D01*
X97424887Y-37398829D01*
X97434644Y-37390013D01*
X97443483Y-37380329D01*
X97451341Y-37369851D01*
X97458159Y-37358650D01*
X97463873Y-37346801D01*
X97468425Y-37334374D01*
X97471752Y-37321444D01*
X97473793Y-37308082D01*
X97474487Y-37294361D01*
X97473793Y-37280356D01*
X97471752Y-37266777D01*
X97468425Y-37253690D01*
X97463873Y-37241162D01*
X97458159Y-37229257D01*
X97451341Y-37218043D01*
X97443483Y-37207584D01*
X97434644Y-37197946D01*
X97424887Y-37189196D01*
X97414273Y-37181399D01*
X97402861Y-37174620D01*
X97390715Y-37168927D01*
X97377895Y-37164384D01*
X97364461Y-37161058D01*
X97350476Y-37159014D01*
X97336001Y-37158318D01*
X97321740Y-37159014D01*
X97307943Y-37161058D01*
X97294673Y-37164384D01*
X97281993Y-37168927D01*
X97269965Y-37174620D01*
X97258652Y-37181399D01*
X97248118Y-37189196D01*
X97238426Y-37197946D01*
X97229638Y-37207584D01*
X97221817Y-37218043D01*
X97215027Y-37229257D01*
X97209330Y-37241162D01*
X97204790Y-37253690D01*
X97201469Y-37266777D01*
X97199430Y-37280356D01*
X97198736Y-37294361D01*
G37*
G36*
X97229511Y-38190000D02*
G01*
X97443712Y-38190000D01*
X97443712Y-37517843D01*
X97229511Y-37517843D01*
X97229511Y-38190000D01*
G37*
G36*
X98046748Y-38030753D02*
G01*
X98036727Y-38031922D01*
X98025443Y-38032907D01*
X98013241Y-38033701D01*
X98003053Y-38034196D01*
X97992678Y-38034563D01*
X97982292Y-38034799D01*
X97972074Y-38034901D01*
X97969567Y-38034905D01*
X97959756Y-38034708D01*
X97945741Y-38033515D01*
X97932679Y-38030940D01*
X97920692Y-38026643D01*
X97909903Y-38020281D01*
X97900437Y-38011514D01*
X97892416Y-37999998D01*
X97887932Y-37990626D01*
X97884181Y-37979779D01*
X97881200Y-37967356D01*
X97879026Y-37953257D01*
X97877695Y-37937380D01*
X97877243Y-37919623D01*
X97877243Y-37677578D01*
X98031360Y-37677578D01*
X98031360Y-37517843D01*
X97877243Y-37517843D01*
X97877243Y-37314633D01*
X97664508Y-37314633D01*
X97664508Y-37517843D01*
X97558018Y-37517843D01*
X97558018Y-37677578D01*
X97664508Y-37677578D01*
X97664508Y-37967494D01*
X97664908Y-37988033D01*
X97666087Y-38007360D01*
X97668014Y-38025510D01*
X97670655Y-38042522D01*
X97673979Y-38058431D01*
X97677953Y-38073274D01*
X97682544Y-38087089D01*
X97687722Y-38099912D01*
X97693453Y-38111780D01*
X97699705Y-38122729D01*
X97706447Y-38132796D01*
X97713645Y-38142018D01*
X97721267Y-38150432D01*
X97729282Y-38158075D01*
X97737657Y-38164983D01*
X97746359Y-38171193D01*
X97755358Y-38176742D01*
X97764619Y-38181666D01*
X97774111Y-38186003D01*
X97783803Y-38189789D01*
X97793660Y-38193060D01*
X97803652Y-38195855D01*
X97813746Y-38198209D01*
X97823910Y-38200158D01*
X97834112Y-38201741D01*
X97844319Y-38202994D01*
X97854499Y-38203953D01*
X97864619Y-38204655D01*
X97874649Y-38205137D01*
X97884554Y-38205436D01*
X97903866Y-38205631D01*
X97915500Y-38205569D01*
X97926775Y-38205389D01*
X97937688Y-38205098D01*
X97948241Y-38204704D01*
X97958434Y-38204213D01*
X97968265Y-38203635D01*
X97982337Y-38202617D01*
X97995597Y-38201443D01*
X98008045Y-38200138D01*
X98019682Y-38198727D01*
X98030508Y-38197236D01*
X98040522Y-38195689D01*
X98046748Y-38194640D01*
X98046748Y-38030753D01*
G37*
G36*
X98478614Y-37502626D02*
G01*
X98497746Y-37503856D01*
X98516416Y-37505877D01*
X98534611Y-37508668D01*
X98552321Y-37512206D01*
X98569534Y-37516468D01*
X98586240Y-37521432D01*
X98602427Y-37527075D01*
X98618084Y-37533374D01*
X98633200Y-37540308D01*
X98647764Y-37547852D01*
X98661765Y-37555986D01*
X98675191Y-37564685D01*
X98688032Y-37573928D01*
X98700276Y-37583693D01*
X98711912Y-37593955D01*
X98722930Y-37604694D01*
X98733317Y-37615886D01*
X98743063Y-37627508D01*
X98752157Y-37639539D01*
X98760587Y-37651955D01*
X98768342Y-37664734D01*
X98775412Y-37677853D01*
X98781785Y-37691290D01*
X98787450Y-37705022D01*
X98792395Y-37719027D01*
X98796611Y-37733282D01*
X98800085Y-37747764D01*
X98802806Y-37762451D01*
X98804763Y-37777320D01*
X98805946Y-37792349D01*
X98806343Y-37807515D01*
X98806329Y-37818188D01*
X98806232Y-37829196D01*
X98805969Y-37840621D01*
X98805457Y-37852547D01*
X98804614Y-37865058D01*
X98803713Y-37874874D01*
X98802544Y-37885100D01*
X98801071Y-37895771D01*
X98799260Y-37906922D01*
X98313461Y-37906922D01*
X98314597Y-37921469D01*
X98316498Y-37935655D01*
X98319234Y-37949402D01*
X98322876Y-37962628D01*
X98327495Y-37975255D01*
X98333163Y-37987203D01*
X98339951Y-37998391D01*
X98347930Y-38008741D01*
X98357171Y-38018171D01*
X98367745Y-38026603D01*
X98379724Y-38033957D01*
X98393179Y-38040153D01*
X98408181Y-38045110D01*
X98424802Y-38048750D01*
X98443111Y-38050993D01*
X98452922Y-38051565D01*
X98463182Y-38051758D01*
X98470032Y-38051664D01*
X98483079Y-38050918D01*
X98495272Y-38049457D01*
X98506635Y-38047310D01*
X98517188Y-38044506D01*
X98526957Y-38041076D01*
X98540184Y-38034823D01*
X98551771Y-38027330D01*
X98561792Y-38018699D01*
X98570324Y-38009032D01*
X98577443Y-37998428D01*
X98583225Y-37986991D01*
X98587745Y-37974822D01*
X98797794Y-37974822D01*
X98795668Y-37986679D01*
X98792955Y-37998384D01*
X98789662Y-38009920D01*
X98785794Y-38021274D01*
X98781354Y-38032430D01*
X98776350Y-38043375D01*
X98770785Y-38054093D01*
X98764665Y-38064569D01*
X98757995Y-38074790D01*
X98750781Y-38084741D01*
X98743027Y-38094406D01*
X98734738Y-38103772D01*
X98725920Y-38112823D01*
X98716578Y-38121546D01*
X98706717Y-38129925D01*
X98696342Y-38137945D01*
X98685458Y-38145593D01*
X98674071Y-38152854D01*
X98662185Y-38159712D01*
X98649806Y-38166154D01*
X98636938Y-38172164D01*
X98623588Y-38177729D01*
X98609759Y-38182833D01*
X98595458Y-38187462D01*
X98580689Y-38191601D01*
X98565458Y-38195235D01*
X98549770Y-38198351D01*
X98533629Y-38200933D01*
X98517041Y-38202966D01*
X98500012Y-38204437D01*
X98482545Y-38205330D01*
X98464647Y-38205631D01*
X98442780Y-38205204D01*
X98421555Y-38203933D01*
X98400977Y-38201835D01*
X98381049Y-38198926D01*
X98361774Y-38195223D01*
X98343155Y-38190742D01*
X98325196Y-38185499D01*
X98307900Y-38179512D01*
X98291271Y-38172797D01*
X98275312Y-38165369D01*
X98260026Y-38157246D01*
X98245417Y-38148444D01*
X98231487Y-38138979D01*
X98218241Y-38128868D01*
X98205682Y-38118128D01*
X98193812Y-38106774D01*
X98182636Y-38094823D01*
X98172157Y-38082292D01*
X98162378Y-38069197D01*
X98153302Y-38055555D01*
X98144933Y-38041382D01*
X98137274Y-38026695D01*
X98130329Y-38011509D01*
X98124100Y-37995842D01*
X98118592Y-37979709D01*
X98113807Y-37963128D01*
X98109749Y-37946115D01*
X98106422Y-37928686D01*
X98103828Y-37910858D01*
X98101971Y-37892647D01*
X98100854Y-37874070D01*
X98100481Y-37855143D01*
X98100846Y-37836982D01*
X98101940Y-37819059D01*
X98103759Y-37801398D01*
X98106300Y-37784018D01*
X98106384Y-37783579D01*
X98313461Y-37783579D01*
X98596294Y-37783579D01*
X98595630Y-37768017D01*
X98593669Y-37753226D01*
X98590461Y-37739237D01*
X98586055Y-37726083D01*
X98580500Y-37713797D01*
X98573844Y-37702410D01*
X98566138Y-37691954D01*
X98557429Y-37682463D01*
X98547767Y-37673967D01*
X98537201Y-37666500D01*
X98525780Y-37660094D01*
X98513553Y-37654779D01*
X98500569Y-37650590D01*
X98486877Y-37647558D01*
X98472525Y-37645715D01*
X98457564Y-37645094D01*
X98442100Y-37645670D01*
X98427249Y-37647388D01*
X98413066Y-37650234D01*
X98399602Y-37654196D01*
X98386911Y-37659257D01*
X98375046Y-37665405D01*
X98364060Y-37672626D01*
X98354005Y-37680906D01*
X98344935Y-37690230D01*
X98336902Y-37700585D01*
X98329960Y-37711957D01*
X98324162Y-37724331D01*
X98319559Y-37737695D01*
X98316207Y-37752033D01*
X98314156Y-37767333D01*
X98313461Y-37783579D01*
X98106384Y-37783579D01*
X98109562Y-37766944D01*
X98113540Y-37750196D01*
X98118232Y-37733798D01*
X98123634Y-37717771D01*
X98129745Y-37702138D01*
X98136561Y-37686920D01*
X98144080Y-37672141D01*
X98152297Y-37657821D01*
X98161211Y-37643984D01*
X98170819Y-37630651D01*
X98181117Y-37617845D01*
X98192103Y-37605587D01*
X98203773Y-37593901D01*
X98216126Y-37582808D01*
X98229157Y-37572330D01*
X98242865Y-37562490D01*
X98257245Y-37553310D01*
X98272296Y-37544811D01*
X98288014Y-37537017D01*
X98304397Y-37529948D01*
X98321441Y-37523629D01*
X98339144Y-37518080D01*
X98357503Y-37513324D01*
X98376514Y-37509382D01*
X98396175Y-37506279D01*
X98416484Y-37504034D01*
X98437436Y-37502671D01*
X98459030Y-37502212D01*
X98478614Y-37502626D01*
G37*
G36*
X100334082Y-37205212D02*
G01*
X100076406Y-37205212D01*
X99817264Y-37890558D01*
X99555680Y-37205212D01*
X99293852Y-37205212D01*
X99293852Y-38190000D01*
X99514891Y-38190000D01*
X99514891Y-37579637D01*
X99733489Y-38190000D01*
X99901284Y-38190000D01*
X100112798Y-37579637D01*
X100112798Y-38190000D01*
X100334082Y-38190000D01*
X100334082Y-37205212D01*
G37*
G36*
X100867319Y-37502683D02*
G01*
X100888543Y-37504082D01*
X100909192Y-37506383D01*
X100929257Y-37509560D01*
X100948729Y-37513591D01*
X100967602Y-37518448D01*
X100985866Y-37524109D01*
X101003513Y-37530548D01*
X101020536Y-37537739D01*
X101036926Y-37545659D01*
X101052675Y-37554283D01*
X101067775Y-37563585D01*
X101082218Y-37573541D01*
X101095995Y-37584126D01*
X101109099Y-37595315D01*
X101121521Y-37607083D01*
X101133253Y-37619407D01*
X101144287Y-37632259D01*
X101154616Y-37645617D01*
X101164230Y-37659455D01*
X101173122Y-37673748D01*
X101181283Y-37688472D01*
X101188706Y-37703601D01*
X101195381Y-37719111D01*
X101201302Y-37734977D01*
X101206460Y-37751174D01*
X101210847Y-37767677D01*
X101214454Y-37784462D01*
X101217274Y-37801504D01*
X101219298Y-37818778D01*
X101220519Y-37836258D01*
X101220928Y-37853921D01*
X101220519Y-37871606D01*
X101219298Y-37889105D01*
X101217274Y-37906395D01*
X101214454Y-37923450D01*
X101210847Y-37940247D01*
X101206460Y-37956760D01*
X101201302Y-37972964D01*
X101195381Y-37988835D01*
X101188706Y-38004348D01*
X101181283Y-38019479D01*
X101173122Y-38034203D01*
X101164230Y-38048495D01*
X101154616Y-38062331D01*
X101144287Y-38075685D01*
X101133253Y-38088533D01*
X101121521Y-38100851D01*
X101109099Y-38112613D01*
X101095995Y-38123796D01*
X101082218Y-38134374D01*
X101067775Y-38144322D01*
X101052675Y-38153617D01*
X101036926Y-38162233D01*
X101020536Y-38170145D01*
X101003513Y-38177329D01*
X100985866Y-38183761D01*
X100967602Y-38189415D01*
X100948729Y-38194267D01*
X100929257Y-38198292D01*
X100909192Y-38201466D01*
X100888543Y-38203763D01*
X100867319Y-38205160D01*
X100845526Y-38205631D01*
X100824018Y-38205160D01*
X100803052Y-38203763D01*
X100782636Y-38201466D01*
X100762781Y-38198292D01*
X100743495Y-38194267D01*
X100724788Y-38189415D01*
X100706668Y-38183761D01*
X100689146Y-38177329D01*
X100672230Y-38170145D01*
X100655930Y-38162233D01*
X100640255Y-38153617D01*
X100625214Y-38144322D01*
X100610817Y-38134374D01*
X100597072Y-38123796D01*
X100583989Y-38112613D01*
X100571577Y-38100851D01*
X100559846Y-38088533D01*
X100548805Y-38075685D01*
X100538463Y-38062331D01*
X100528829Y-38048495D01*
X100519912Y-38034203D01*
X100511723Y-38019479D01*
X100504269Y-38004348D01*
X100497560Y-37988835D01*
X100491607Y-37972964D01*
X100486417Y-37956760D01*
X100482000Y-37940247D01*
X100478365Y-37923450D01*
X100475522Y-37906395D01*
X100473480Y-37889105D01*
X100472248Y-37871606D01*
X100471835Y-37853921D01*
X100686036Y-37853921D01*
X100686767Y-37871149D01*
X100688932Y-37887880D01*
X100692487Y-37904029D01*
X100697389Y-37919512D01*
X100703595Y-37934243D01*
X100711062Y-37948138D01*
X100719745Y-37961113D01*
X100729603Y-37973081D01*
X100740591Y-37983959D01*
X100752666Y-37993662D01*
X100765785Y-38002105D01*
X100779905Y-38009203D01*
X100794983Y-38014871D01*
X100810974Y-38019024D01*
X100827836Y-38021579D01*
X100845526Y-38022449D01*
X100863531Y-38021579D01*
X100880695Y-38019024D01*
X100896976Y-38014871D01*
X100912327Y-38009203D01*
X100926705Y-38002105D01*
X100940066Y-37993662D01*
X100952364Y-37983959D01*
X100963557Y-37973081D01*
X100973599Y-37961113D01*
X100982445Y-37948138D01*
X100990053Y-37934243D01*
X100996377Y-37919512D01*
X101001373Y-37904029D01*
X101004996Y-37887880D01*
X101007202Y-37871149D01*
X101007948Y-37853921D01*
X101007202Y-37836938D01*
X101004996Y-37820394D01*
X101001373Y-37804380D01*
X100996377Y-37788987D01*
X100990053Y-37774305D01*
X100982445Y-37760425D01*
X100973599Y-37747438D01*
X100963557Y-37735433D01*
X100952364Y-37724502D01*
X100940066Y-37714734D01*
X100926705Y-37706221D01*
X100912327Y-37699052D01*
X100896976Y-37693319D01*
X100880695Y-37689112D01*
X100863531Y-37686522D01*
X100845526Y-37685638D01*
X100827836Y-37686522D01*
X100810974Y-37689112D01*
X100794983Y-37693319D01*
X100779905Y-37699052D01*
X100765785Y-37706221D01*
X100752666Y-37714734D01*
X100740591Y-37724502D01*
X100729603Y-37735433D01*
X100719745Y-37747438D01*
X100711062Y-37760425D01*
X100703595Y-37774305D01*
X100697389Y-37788987D01*
X100692487Y-37804380D01*
X100688932Y-37820394D01*
X100686767Y-37836938D01*
X100686036Y-37853921D01*
X100471835Y-37853921D01*
X100472248Y-37836258D01*
X100473480Y-37818778D01*
X100475522Y-37801504D01*
X100478365Y-37784462D01*
X100482000Y-37767677D01*
X100486417Y-37751174D01*
X100491607Y-37734977D01*
X100497560Y-37719111D01*
X100504269Y-37703601D01*
X100511723Y-37688472D01*
X100519912Y-37673748D01*
X100528829Y-37659455D01*
X100538463Y-37645617D01*
X100548805Y-37632259D01*
X100559846Y-37619407D01*
X100571577Y-37607083D01*
X100583989Y-37595315D01*
X100597072Y-37584126D01*
X100610817Y-37573541D01*
X100625214Y-37563585D01*
X100640255Y-37554283D01*
X100655930Y-37545659D01*
X100672230Y-37537739D01*
X100689146Y-37530548D01*
X100706668Y-37524109D01*
X100724788Y-37518448D01*
X100743495Y-37513591D01*
X100762781Y-37509560D01*
X100782636Y-37506383D01*
X100803052Y-37504082D01*
X100824018Y-37502683D01*
X100845526Y-37502212D01*
X100867319Y-37502683D01*
G37*
G36*
X102063321Y-38190000D02*
G01*
X101849120Y-38190000D01*
X101849120Y-38093768D01*
X101842450Y-38105167D01*
X101834583Y-38116246D01*
X101825598Y-38126947D01*
X101815575Y-38137213D01*
X101804593Y-38146986D01*
X101792732Y-38156210D01*
X101780070Y-38164827D01*
X101766688Y-38172780D01*
X101752665Y-38180012D01*
X101738080Y-38186466D01*
X101723013Y-38192083D01*
X101707543Y-38196808D01*
X101691750Y-38200582D01*
X101675713Y-38203349D01*
X101659511Y-38205051D01*
X101643224Y-38205631D01*
X101625153Y-38205188D01*
X101607450Y-38203871D01*
X101590127Y-38201700D01*
X101573198Y-38198694D01*
X101556677Y-38194874D01*
X101540577Y-38190257D01*
X101524912Y-38184864D01*
X101509695Y-38178715D01*
X101494940Y-38171828D01*
X101480661Y-38164223D01*
X101466871Y-38155919D01*
X101453583Y-38146937D01*
X101440811Y-38137295D01*
X101428569Y-38127013D01*
X101416870Y-38116110D01*
X101405728Y-38104606D01*
X101395156Y-38092520D01*
X101385168Y-38079872D01*
X101375777Y-38066682D01*
X101366998Y-38052967D01*
X101358843Y-38038749D01*
X101351325Y-38024047D01*
X101344460Y-38008879D01*
X101338260Y-37993266D01*
X101332738Y-37977226D01*
X101327909Y-37960780D01*
X101323785Y-37943947D01*
X101320381Y-37926746D01*
X101317709Y-37909197D01*
X101315785Y-37891319D01*
X101314620Y-37873131D01*
X101314228Y-37854654D01*
X101314238Y-37854166D01*
X101526964Y-37854166D01*
X101527712Y-37871284D01*
X101529923Y-37887956D01*
X101533552Y-37904092D01*
X101538550Y-37919600D01*
X101544871Y-37934389D01*
X101552466Y-37948370D01*
X101561290Y-37961450D01*
X101571294Y-37973539D01*
X101582432Y-37984547D01*
X101594655Y-37994381D01*
X101607918Y-38002952D01*
X101622173Y-38010168D01*
X101637372Y-38015939D01*
X101653468Y-38020173D01*
X101670415Y-38022781D01*
X101688164Y-38023670D01*
X101705871Y-38022781D01*
X101722779Y-38020173D01*
X101738843Y-38015939D01*
X101754014Y-38010168D01*
X101768245Y-38002952D01*
X101781488Y-37994381D01*
X101793696Y-37984547D01*
X101804821Y-37973539D01*
X101814815Y-37961450D01*
X101823631Y-37948370D01*
X101831221Y-37934389D01*
X101837538Y-37919600D01*
X101842534Y-37904092D01*
X101846161Y-37887956D01*
X101848373Y-37871284D01*
X101849120Y-37854166D01*
X101848373Y-37837246D01*
X101846161Y-37820715D01*
X101842534Y-37804670D01*
X101837538Y-37789208D01*
X101831221Y-37774426D01*
X101823631Y-37760421D01*
X101814815Y-37747289D01*
X101804821Y-37735128D01*
X101793696Y-37724034D01*
X101781488Y-37714105D01*
X101768245Y-37705438D01*
X101754014Y-37698129D01*
X101738843Y-37692275D01*
X101722779Y-37687974D01*
X101705871Y-37685322D01*
X101688164Y-37684417D01*
X101670415Y-37685322D01*
X101653468Y-37687974D01*
X101637372Y-37692275D01*
X101622173Y-37698129D01*
X101607918Y-37705438D01*
X101594655Y-37714105D01*
X101582432Y-37724034D01*
X101571294Y-37735128D01*
X101561290Y-37747289D01*
X101552466Y-37760421D01*
X101544871Y-37774426D01*
X101538550Y-37789208D01*
X101533552Y-37804670D01*
X101529923Y-37820715D01*
X101527712Y-37837246D01*
X101526964Y-37854166D01*
X101314238Y-37854166D01*
X101314620Y-37836065D01*
X101315785Y-37817771D01*
X101317709Y-37799793D01*
X101320381Y-37782148D01*
X101323785Y-37764857D01*
X101327909Y-37747939D01*
X101332738Y-37731413D01*
X101338260Y-37715298D01*
X101344460Y-37699614D01*
X101351325Y-37684381D01*
X101358843Y-37669616D01*
X101366998Y-37655340D01*
X101375777Y-37641573D01*
X101385168Y-37628333D01*
X101395156Y-37615639D01*
X101405728Y-37603511D01*
X101416870Y-37591969D01*
X101428569Y-37581031D01*
X101440811Y-37570718D01*
X101453583Y-37561047D01*
X101466871Y-37552040D01*
X101480661Y-37543714D01*
X101494940Y-37536089D01*
X101509695Y-37529185D01*
X101524912Y-37523021D01*
X101540577Y-37517616D01*
X101556677Y-37512990D01*
X101573198Y-37509161D01*
X101590127Y-37506150D01*
X101607450Y-37503975D01*
X101625153Y-37502656D01*
X101643224Y-37502212D01*
X101659511Y-37502811D01*
X101675713Y-37504567D01*
X101691750Y-37507418D01*
X101707543Y-37511302D01*
X101723013Y-37516156D01*
X101738080Y-37521918D01*
X101752665Y-37528526D01*
X101766688Y-37535917D01*
X101780070Y-37544030D01*
X101792732Y-37552801D01*
X101804593Y-37562170D01*
X101815575Y-37572073D01*
X101825598Y-37582448D01*
X101834583Y-37593233D01*
X101842450Y-37604366D01*
X101849120Y-37615785D01*
X101849120Y-37205212D01*
X102063321Y-37205212D01*
X102063321Y-38190000D01*
G37*
X81633333Y-47224819D02*
X81300000Y-46748628D01*
X81061905Y-47224819D02*
X81061905Y-46224819D01*
X81061905Y-46224819D02*
X81442857Y-46224819D01*
X81442857Y-46224819D02*
X81538095Y-46272438D01*
X81538095Y-46272438D02*
X81585714Y-46320057D01*
X81585714Y-46320057D02*
X81633333Y-46415295D01*
X81633333Y-46415295D02*
X81633333Y-46558152D01*
X81633333Y-46558152D02*
X81585714Y-46653390D01*
X81585714Y-46653390D02*
X81538095Y-46701009D01*
X81538095Y-46701009D02*
X81442857Y-46748628D01*
X81442857Y-46748628D02*
X81061905Y-46748628D01*
X82585714Y-47224819D02*
X82014286Y-47224819D01*
X82300000Y-47224819D02*
X82300000Y-46224819D01*
X82300000Y-46224819D02*
X82204762Y-46367676D01*
X82204762Y-46367676D02*
X82109524Y-46462914D01*
X82109524Y-46462914D02*
X82014286Y-46510533D01*
D12*
X89649080Y-58422380D02*
X89709556Y-58240952D01*
X89709556Y-58240952D02*
X89770032Y-58180475D01*
X89770032Y-58180475D02*
X89890984Y-58119999D01*
X89890984Y-58119999D02*
X90072413Y-58119999D01*
X90072413Y-58119999D02*
X90193365Y-58180475D01*
X90193365Y-58180475D02*
X90253842Y-58240952D01*
X90253842Y-58240952D02*
X90314318Y-58361904D01*
X90314318Y-58361904D02*
X90314318Y-58845714D01*
X90314318Y-58845714D02*
X89044318Y-58845714D01*
X89044318Y-58845714D02*
X89044318Y-58422380D01*
X89044318Y-58422380D02*
X89104794Y-58301428D01*
X89104794Y-58301428D02*
X89165270Y-58240952D01*
X89165270Y-58240952D02*
X89286222Y-58180475D01*
X89286222Y-58180475D02*
X89407175Y-58180475D01*
X89407175Y-58180475D02*
X89528127Y-58240952D01*
X89528127Y-58240952D02*
X89588603Y-58301428D01*
X89588603Y-58301428D02*
X89649080Y-58422380D01*
X89649080Y-58422380D02*
X89649080Y-58845714D01*
X90193365Y-56849999D02*
X90253842Y-56910475D01*
X90253842Y-56910475D02*
X90314318Y-57091904D01*
X90314318Y-57091904D02*
X90314318Y-57212856D01*
X90314318Y-57212856D02*
X90253842Y-57394285D01*
X90253842Y-57394285D02*
X90132889Y-57515237D01*
X90132889Y-57515237D02*
X90011937Y-57575714D01*
X90011937Y-57575714D02*
X89770032Y-57636190D01*
X89770032Y-57636190D02*
X89588603Y-57636190D01*
X89588603Y-57636190D02*
X89346699Y-57575714D01*
X89346699Y-57575714D02*
X89225746Y-57515237D01*
X89225746Y-57515237D02*
X89104794Y-57394285D01*
X89104794Y-57394285D02*
X89044318Y-57212856D01*
X89044318Y-57212856D02*
X89044318Y-57091904D01*
X89044318Y-57091904D02*
X89104794Y-56910475D01*
X89104794Y-56910475D02*
X89165270Y-56849999D01*
X89044318Y-55700952D02*
X89044318Y-56305714D01*
X89044318Y-56305714D02*
X89649080Y-56366190D01*
X89649080Y-56366190D02*
X89588603Y-56305714D01*
X89588603Y-56305714D02*
X89528127Y-56184761D01*
X89528127Y-56184761D02*
X89528127Y-55882380D01*
X89528127Y-55882380D02*
X89588603Y-55761428D01*
X89588603Y-55761428D02*
X89649080Y-55700952D01*
X89649080Y-55700952D02*
X89770032Y-55640475D01*
X89770032Y-55640475D02*
X90072413Y-55640475D01*
X90072413Y-55640475D02*
X90193365Y-55700952D01*
X90193365Y-55700952D02*
X90253842Y-55761428D01*
X90253842Y-55761428D02*
X90314318Y-55882380D01*
X90314318Y-55882380D02*
X90314318Y-56184761D01*
X90314318Y-56184761D02*
X90253842Y-56305714D01*
X90253842Y-56305714D02*
X90193365Y-56366190D01*
X89467651Y-54551904D02*
X90314318Y-54551904D01*
X88983842Y-54854285D02*
X89890984Y-55156666D01*
X89890984Y-55156666D02*
X89890984Y-54370475D01*
X89044318Y-54007618D02*
X89044318Y-53160951D01*
X89044318Y-53160951D02*
X90314318Y-53705237D01*
D11*
X64659523Y-60454819D02*
X64183333Y-60454819D01*
X64183333Y-60454819D02*
X64135714Y-60931009D01*
X64135714Y-60931009D02*
X64183333Y-60883390D01*
X64183333Y-60883390D02*
X64278571Y-60835771D01*
X64278571Y-60835771D02*
X64516666Y-60835771D01*
X64516666Y-60835771D02*
X64611904Y-60883390D01*
X64611904Y-60883390D02*
X64659523Y-60931009D01*
X64659523Y-60931009D02*
X64707142Y-61026247D01*
X64707142Y-61026247D02*
X64707142Y-61264342D01*
X64707142Y-61264342D02*
X64659523Y-61359580D01*
X64659523Y-61359580D02*
X64611904Y-61407200D01*
X64611904Y-61407200D02*
X64516666Y-61454819D01*
X64516666Y-61454819D02*
X64278571Y-61454819D01*
X64278571Y-61454819D02*
X64183333Y-61407200D01*
X64183333Y-61407200D02*
X64135714Y-61359580D01*
X64992857Y-60454819D02*
X65326190Y-61454819D01*
X65326190Y-61454819D02*
X65659523Y-60454819D01*
X64035715Y-55704819D02*
X64369048Y-56704819D01*
X64369048Y-56704819D02*
X64702381Y-55704819D01*
X65035715Y-56704819D02*
X65035715Y-55704819D01*
X65511905Y-56704819D02*
X65511905Y-55704819D01*
X65511905Y-55704819D02*
X65750000Y-55704819D01*
X65750000Y-55704819D02*
X65892857Y-55752438D01*
X65892857Y-55752438D02*
X65988095Y-55847676D01*
X65988095Y-55847676D02*
X66035714Y-55942914D01*
X66035714Y-55942914D02*
X66083333Y-56133390D01*
X66083333Y-56133390D02*
X66083333Y-56276247D01*
X66083333Y-56276247D02*
X66035714Y-56466723D01*
X66035714Y-56466723D02*
X65988095Y-56561961D01*
X65988095Y-56561961D02*
X65892857Y-56657200D01*
X65892857Y-56657200D02*
X65750000Y-56704819D01*
X65750000Y-56704819D02*
X65511905Y-56704819D01*
X66273810Y-56800057D02*
X67035714Y-56800057D01*
X67273810Y-56704819D02*
X67273810Y-55704819D01*
X67750000Y-56704819D02*
X67750000Y-55704819D01*
X67750000Y-55704819D02*
X68321428Y-56704819D01*
X68321428Y-56704819D02*
X68321428Y-55704819D01*
D13*
%TO.C,R1*%
X85840000Y-44400000D02*
X85070000Y-44400000D01*
X85070000Y-45770000D02*
X85070000Y-43030000D01*
X85070000Y-43030000D02*
X78530000Y-43030000D01*
X78530000Y-45770000D02*
X85070000Y-45770000D01*
X78530000Y-43030000D02*
X78530000Y-45770000D01*
X77760000Y-44400000D02*
X78530000Y-44400000D01*
D14*
%TO.C,Q1*%
X83740000Y-58585000D02*
X86890000Y-58585000D01*
X83740000Y-53375000D02*
X83740000Y-58585000D01*
X87930000Y-53375000D02*
X83740000Y-53375000D01*
D13*
%TO.C,TP2*%
X61050000Y-60050000D02*
X61050000Y-61950000D01*
X61050000Y-61950000D02*
X62900000Y-61950000D01*
X62900000Y-60050000D02*
X61050000Y-60050000D01*
X62900000Y-60100000D02*
X62900000Y-60050000D01*
X62900000Y-61950000D02*
X62900000Y-60100000D01*
D15*
%TO.C,J1*%
X70015000Y-26850000D02*
X62015000Y-26850000D01*
X62015000Y-26850000D02*
X62015000Y-35850000D01*
X71015000Y-35850000D02*
X61015000Y-35850000D01*
X71015000Y-35850000D02*
X71015000Y-45850000D01*
X70015000Y-35850000D02*
X70015000Y-26850000D01*
X61015000Y-35850000D02*
X61015000Y-45850000D01*
D16*
X60015000Y-38750000D02*
X60015000Y-38750000D01*
X60015000Y-38850000D02*
X60015000Y-38850000D01*
X60015000Y-38850000D02*
G75*
G03*
X60015000Y-38750000I0J50000D01*
G01*
X60015000Y-38750000D02*
G75*
G03*
X60015000Y-38850000I0J-50000D01*
G01*
D13*
%TO.C,TP1*%
X61050000Y-55050000D02*
X61050000Y-56950000D01*
X61050000Y-56950000D02*
X62900000Y-56950000D01*
X62900000Y-55050000D02*
X61050000Y-55050000D01*
X62900000Y-55100000D02*
X62900000Y-55050000D01*
X62900000Y-56950000D02*
X62900000Y-55100000D01*
%TD*%
M02*
